<svg width="4389" height="1492" xmlns="http://www.w3.org/2000/svg" xmlns:xlink="http://www.w3.org/1999/xlink" overflow="hidden"><defs><clipPath id="clip0"><rect x="145" y="622" width="4389" height="1492"/></clipPath><clipPath id="clip1"><rect x="145" y="622" width="4387" height="1490"/></clipPath><clipPath id="clip2"><rect x="145" y="622" width="4387" height="1490"/></clipPath><clipPath id="clip3"><rect x="247" y="673" width="4238" height="1287"/></clipPath><clipPath id="clip4"><rect x="247" y="673" width="4238" height="1287"/></clipPath><clipPath id="clip5"><rect x="247" y="673" width="4238" height="1287"/></clipPath><clipPath id="clip6"><rect x="145" y="622" width="4387" height="1490"/></clipPath><clipPath id="clip7"><rect x="145" y="622" width="4387" height="1490"/></clipPath><clipPath id="clip8"><rect x="145" y="622" width="4387" height="1490"/></clipPath><clipPath id="clip9"><rect x="145" y="622" width="4387" height="1490"/></clipPath><clipPath id="clip10"><rect x="145" y="622" width="4387" height="1490"/></clipPath><clipPath id="clip11"><rect x="145" y="622" width="4387" height="1490"/></clipPath><clipPath id="clip12"><rect x="145" y="622" width="4387" height="1490"/></clipPath><clipPath id="clip13"><rect x="145" y="622" width="4387" height="1490"/></clipPath><clipPath id="clip14"><rect x="145" y="622" width="4387" height="1490"/></clipPath><clipPath id="clip15"><rect x="145" y="622" width="4387" height="1490"/></clipPath><clipPath id="clip16"><rect x="145" y="622" width="4387" height="1490"/></clipPath><clipPath id="clip17"><rect x="145" y="622" width="4387" height="1490"/></clipPath><clipPath id="clip18"><rect x="145" y="622" width="4387" height="1490"/></clipPath><clipPath id="clip19"><rect x="145" y="622" width="4387" height="1490"/></clipPath><clipPath id="clip20"><rect x="145" y="622" width="4387" height="1490"/></clipPath><clipPath id="clip21"><rect x="145" y="622" width="4387" height="1490"/></clipPath><clipPath id="clip22"><rect x="145" y="622" width="4387" height="1490"/></clipPath><clipPath id="clip23"><rect x="145" y="622" width="4387" height="1490"/></clipPath><clipPath id="clip24"><rect x="145" y="622" width="4387" height="1490"/></clipPath><clipPath id="clip25"><rect x="145" y="622" width="4387" height="1490"/></clipPath><clipPath id="clip26"><rect x="145" y="622" width="4387" height="1490"/></clipPath><clipPath id="clip27"><rect x="145" y="622" width="4387" height="1490"/></clipPath><clipPath id="clip28"><rect x="145" y="622" width="4387" height="1490"/></clipPath><clipPath id="clip29"><rect x="145" y="622" width="4387" height="1490"/></clipPath><clipPath id="clip30"><rect x="145" y="622" width="4387" height="1490"/></clipPath><clipPath id="clip31"><rect x="145" y="622" width="4387" height="1490"/></clipPath><clipPath id="clip32"><rect x="145" y="622" width="4387" height="1490"/></clipPath><clipPath id="clip33"><rect x="145" y="622" width="4387" height="1490"/></clipPath><clipPath id="clip34"><rect x="145" y="622" width="4387" height="1490"/></clipPath><clipPath id="clip35"><rect x="145" y="622" width="4387" height="1490"/></clipPath><clipPath id="clip36"><rect x="145" y="622" width="4387" height="1490"/></clipPath><clipPath id="clip37"><rect x="145" y="622" width="4387" height="1490"/></clipPath><clipPath id="clip38"><rect x="145" y="622" width="4387" height="1490"/></clipPath><clipPath id="clip39"><rect x="145" y="622" width="4387" height="1490"/></clipPath><clipPath id="clip40"><rect x="145" y="622" width="4387" height="1490"/></clipPath><clipPath id="clip41"><rect x="145" y="622" width="4387" height="1490"/></clipPath><clipPath id="clip42"><rect x="145" y="622" width="4387" height="1490"/></clipPath><clipPath id="clip43"><rect x="145" y="622" width="4387" height="1490"/></clipPath><clipPath id="clip44"><rect x="145" y="622" width="4387" height="1490"/></clipPath><clipPath id="clip45"><rect x="145" y="622" width="4387" height="1490"/></clipPath><clipPath id="clip46"><rect x="145" y="622" width="4387" height="1490"/></clipPath><clipPath id="clip47"><rect x="145" y="622" width="4387" height="1490"/></clipPath><clipPath id="clip48"><rect x="145" y="622" width="4387" height="1490"/></clipPath><clipPath id="clip49"><rect x="145" y="622" width="4387" height="1490"/></clipPath><clipPath id="clip50"><rect x="145" y="622" width="4387" height="1490"/></clipPath><clipPath id="clip51"><rect x="145" y="622" width="4387" height="1490"/></clipPath><clipPath id="clip52"><rect x="145" y="622" width="4387" height="1490"/></clipPath><clipPath id="clip53"><rect x="145" y="622" width="4387" height="1490"/></clipPath><clipPath id="clip54"><rect x="145" y="622" width="4387" height="1490"/></clipPath><clipPath id="clip55"><rect x="145" y="622" width="4387" height="1490"/></clipPath><clipPath id="clip56"><rect x="145" y="622" width="4387" height="1490"/></clipPath><clipPath id="clip57"><rect x="145" y="622" width="4387" height="1490"/></clipPath><clipPath id="clip58"><rect x="145" y="622" width="4387" height="1490"/></clipPath><clipPath id="clip59"><rect x="145" y="622" width="4387" height="1490"/></clipPath><clipPath id="clip60"><rect x="145" y="622" width="4387" height="1490"/></clipPath><clipPath id="clip61"><rect x="145" y="622" width="4387" height="1490"/></clipPath><clipPath id="clip62"><rect x="145" y="622" width="4387" height="1490"/></clipPath><clipPath id="clip63"><rect x="145" y="622" width="4387" height="1490"/></clipPath><clipPath id="clip64"><rect x="145" y="622" width="4387" height="1490"/></clipPath><clipPath id="clip65"><rect x="145" y="622" width="4387" height="1490"/></clipPath><clipPath id="clip66"><rect x="145" y="622" width="4387" height="1490"/></clipPath><clipPath id="clip67"><rect x="145" y="622" width="4387" height="1490"/></clipPath><clipPath id="clip68"><rect x="145" y="622" width="4387" height="1490"/></clipPath><clipPath id="clip69"><rect x="145" y="622" width="4387" height="1490"/></clipPath><clipPath id="clip70"><rect x="145" y="622" width="4387" height="1490"/></clipPath><clipPath id="clip71"><rect x="145" y="622" width="4387" height="1490"/></clipPath><clipPath id="clip72"><rect x="145" y="622" width="4387" height="1490"/></clipPath><clipPath id="clip73"><rect x="145" y="622" width="4387" height="1490"/></clipPath><clipPath id="clip74"><rect x="145" y="622" width="4387" height="1490"/></clipPath><clipPath id="clip75"><rect x="145" y="622" width="4387" height="1490"/></clipPath><clipPath id="clip76"><rect x="145" y="622" width="4387" height="1490"/></clipPath><clipPath id="clip77"><rect x="145" y="622" width="4387" height="1490"/></clipPath><clipPath id="clip78"><rect x="145" y="622" width="4387" height="1490"/></clipPath><clipPath id="clip79"><rect x="145" y="622" width="4387" height="1490"/></clipPath><clipPath id="clip80"><rect x="145" y="622" width="4387" height="1490"/></clipPath><clipPath id="clip81"><rect x="145" y="622" width="4387" height="1490"/></clipPath><clipPath id="clip82"><rect x="145" y="622" width="4387" height="1490"/></clipPath><clipPath id="clip83"><rect x="145" y="622" width="4387" height="1490"/></clipPath><clipPath id="clip84"><rect x="145" y="622" width="4387" height="1490"/></clipPath><clipPath id="clip85"><rect x="145" y="622" width="4387" height="1490"/></clipPath><clipPath id="clip86"><rect x="145" y="622" width="4387" height="1490"/></clipPath><clipPath id="clip87"><rect x="145" y="622" width="4387" height="1490"/></clipPath></defs><g clip-path="url(#clip0)" transform="translate(-145 -622)"><rect x="146" y="623" width="4386" height="1489" fill="#FFFFFF"/><g clip-path="url(#clip1)"><path d="M247.5 1956.5 4481.5 1956.5M247.5 1773.56 4481.5 1773.56M247.5 1589.55 4481.5 1589.55M247.5 1223.54 4481.5 1223.54M247.5 1039.53 4481.5 1039.53M247.5 856.528 4481.5 856.528M247.5 673.5 4481.5 673.5" stroke="#D9D9D9" stroke-width="3.4375" stroke-linejoin="round" stroke-miterlimit="10" fill="none"/></g><g clip-path="url(#clip2)"><path d="M247.5 1406.5 4481.5 1406.5" stroke="#D9D9D9" stroke-width="3.4375" stroke-linejoin="round" stroke-miterlimit="10" fill="none" fill-rule="evenodd"/></g><g clip-path="url(#clip3)"><path d="M258 1306.04 279.009 1407 300.01 1370.05 321.011 1361.04 342.011 1269.04 363.012 1324.04 384.013 1223 405.013 1223 425.014 1260.04 446.015 1306.04 467.015 1370.05 488.016 1324.04 509.017 1223 530.017 1260.04 551.018 1269.04 572.019 1324.04 593.019 1223 614.02 1260.04 635.021 1269.04 656.021 1361.04 677.022 1306.04 698.023 1407 719.024 1370.05 740.024 1361.04 761.025 1269.04 782.026 1361.04 803.026 1269.04 824.027 1361.04 845.028 1306.04 866.028 1370.05 887.029 1324.04 908.03 1223 929.031 1260.04 950.031 1306.04 970.032 1407 991.032 1407 1012.03 1370.05 1033.03 1361.04 1054.03 1269.04 1075.04 1324.04 1096.04 1223 1117.04 1260.04 1138.04 1269.04 1159.04 1361.04 1180.04 1306.04 1201.04 1407 1222.04 1407 1243.04 1370.05 1264.04 1324.04 1285.04 1223 1306.04 1223 1327.04 1260.04 1348.04 1269.04 1369.04 1361.04 1390.05 1269.04 1411.05 1361.04 1432.05 1306.04 1453.05 1370.05 1474.05 1361.04 1495.05 1269.04 1515.05 1361.04 1536.05 1269.04 1557.05 1324.04 1578.05 1223 1599.05 1223 1620.05 1223 1641.05 1260.04 1662.05 1306.04 1683.06 1370.05 1704.06 1324.04 1725.06 1260.04 1746.06 1306.04 1767.06 1370.05 1788.06 1324.04 1809.06 1260.04 1830.06 1306.04 1851.06 1370.05 1872.06 1324.04 1893.06 1223 1914.06 1223 1935.06 1260.04 1956.06 1306.04 1977.06 1407 1998.07 1407 2019.07 1407 2039.07 1370.05 2060.07 1324.04 2081.07 1260.04 2102.07 1269.04 2123.07 1361.04 2144.07 1269.04 2165.07 1324.04 2186.07 1223 2207.07 1223 2228.07 1260.04 2249.07 1269.04 2270.07 1361.04 2291.08 1306.04 2312.08 1407 2333.08 1407 2354.08 1407 2375.08 1370.05 2396.08 1324.04 2417.08 1223 2438.08 1260.04 2459.08 1269.04 2480.08 1361.04 2501.08 1306.04 2522.08 1370.05 2543.08 1361.04 2564.08 1269.04 2584.08 1361.04 2605.09 1269.04 2626.09 1324.04 2647.09 1223 2668.09 1260.04 2689.09 1269.04 2710.09 1361.04 2731.09 1269.04 2752.09 1361.04 2773.09 1306.04 2794.09 1370.05 2815.09 1361.04 2836.09 1269.04 2857.09 1324.04 2878.09 1260.04 2899.1 1269.04 2920.1 1324.04 2941.1 1223 2962.1 1223 2983.1 1223 3004.1 1260.04 3025.1 1306.04 3046.1 1407 3067.1 1407 3088.1 1407 3108.1 1370.05 3129.1 1361.04 3150.1 1269.04 3171.1 1361.04 3192.1 1269.04 3213.11 1361.04 3234.11 1269.04 3255.11 1324.04 3276.11 1223 3297.11 1260.04 3318.11 1306.04 3339.11 1370.05 3360.11 1361.04 3381.11 1306.04 3402.11 1370.05 3423.11 1361.04 3444.11 1269.04 3465.11 1324.04 3486.11 1223 3507.12 1260.04 3528.12 1306.04 3549.12 1407 3570.12 1407 3591.12 1407 3612.12 1370.05 3633.12 1324.04 3653.12 1223 3674.12 1223 3695.12 1260.04 3716.12 1306.04 3737.12 1407 3758.12 1370.05 3779.12 1361.04 3800.12 1269.04 3821.13 1361.04 3842.13 1306.04 3863.13 1407 3884.13 1370.05 3905.13 1324.04 3926.13 1223 3947.13 1223 3968.13 1260.04 3989.13 1306.04 4010.13 1370.05 4031.13 1361.04 4052.13 1306.04 4073.13 1370.05 4094.13 1361.04 4115.13 1269.04 4136.14 1361.04 4157.14 1269.04 4178.14 1324.04 4198.14 1260.04 4219.14 1306.04 4240.14 1370.05 4261.14 1361.04 4282.14 1269.04 4303.14 1324.04 4324.14 1223 4345.14 1260.04 4366.14 1269.04 4387.14 1324.04 4408.14 1223 4429.15 1407 4450.15 1407 4471 1407" stroke="#4472C4" stroke-width="10.3125" stroke-linecap="round" stroke-linejoin="round" stroke-miterlimit="10" fill="none"/></g><g clip-path="url(#clip4)"><path d="M258 1332.04 279.009 1320.04 300.01 1292.04 321.011 1228.04 342.011 1132.04 363.012 1140.04 384.013 1085.04 405.013 1158.04 425.014 1271.04 446.015 1396.05 467.015 1534.05 488.016 1562.05 509.017 1568.05 530.017 1689.06 551.018 1748 572.019 1722.06 593.019 1630.05 614.02 1595.05 635.021 1567.05 656.021 1504.05 677.022 1374.05 698.023 1372.05 719.024 1281.04 740.024 1173.04 761.025 1127.04 782.026 1167.04 803.026 1111.04 824.027 1205.04 845.028 1229.04 866.028 1361.04 887.029 1409.05 908.03 1407.05 929.031 1458.05 950.031 1466.05 970.032 1483.05 991.032 1449.05 1012.03 1352.04 1033.03 1265.04 1054.03 1166.04 1075.04 1131.04 1096.04 1027.03 1117.04 1055.03 1138.04 1117.04 1159.04 1214.04 1180.04 1174.04 1201.04 1225.04 1222.04 1179.04 1243.04 1129.04 1264.04 1046.03 1285.04 993.033 1306.04 1037.03 1327.04 1138.04 1348.04 1248.04 1369.04 1374.05 1390.05 1376.05 1411.05 1396.05 1432.05 1267.04 1453.05 1250.04 1474.05 1108.04 1495.05 971.032 1515.05 969.032 1536.05 965.032 1557.05 1053.03 1578.05 1039.03 1599.05 1114.04 1620.05 1229.04 1641.05 1364.04 1662.05 1508.05 1683.06 1611.05 1704.06 1539.05 1725.06 1438.05 1746.06 1441.05 1767.06 1457.05 1788.06 1326.04 1809.06 1188.04 1830.06 1182.04 1851.06 1245.04 1872.06 1241.04 1893.06 1212.04 1914.06 1339.04 1935.06 1421.05 1956.06 1494.05 1977.06 1555.05 1998.07 1440.05 2019.07 1299.04 2039.07 1126.04 2060.07 960.031 2081.07 852 2102.07 869.029 2123.07 967.032 2144.07 1003.03 2165.07 1167.04 2186.07 1237.04 2207.07 1416.05 2228.07 1561.05 2249.07 1632.05 2270.07 1648.05 2291.08 1546.05 2312.08 1581.05 2333.08 1465.05 2354.08 1327.04 2375.08 1186.04 2396.08 1021.03 2417.08 941.031 2438.08 964.032 2459.08 1077.04 2480.08 1242.04 2501.08 1277.04 2522.08 1427.05 2543.08 1428.05 2564.08 1360.04 2584.08 1381.05 2605.09 1240.04 2626.09 1243.04 2647.09 1114.04 2668.09 1123.04 2689.09 1205.04 2710.09 1285.04 2731.09 1234.04 2752.09 1277.04 2773.09 1222.04 2794.09 1239.04 2815.09 1156.04 2836.09 1082.04 2857.09 1118.04 2878.09 1073.04 2899.1 1150.04 2920.1 1284.04 2941.1 1288.04 2962.1 1351.04 2983.1 1431.05 3004.1 1544.05 3025.1 1579.05 3046.1 1565.05 3067.1 1458.05 3088.1 1348.04 3108.1 1283.04 3129.1 1232.04 3150.1 1182.04 3171.1 1225.04 3192.1 1173.04 3213.11 1235.04 3234.11 1202.04 3255.11 1299.04 3276.11 1304.04 3297.11 1398.05 3318.11 1498.05 3339.11 1608.05 3360.11 1552.05 3381.11 1478.05 3402.11 1523.05 3423.11 1449.05 3444.11 1352.04 3465.11 1344.04 3486.11 1249.04 3507.12 1270.04 3528.12 1299.04 3549.12 1359.04 3570.12 1321.04 3591.12 1296.04 3612.12 1224.04 3633.12 1127.04 3653.12 1061.03 3674.12 1075.04 3695.12 1141.04 3716.12 1223.04 3737.12 1341.04 3758.12 1317.04 3779.12 1264.04 3800.12 1184.04 3821.13 1249.04 3842.13 1136.04 3863.13 1143.04 3884.13 1066.04 3905.13 1012.03 3926.13 945.031 3947.13 971.032 3968.13 1020.03 3989.13 1077.04 4010.13 1181.04 4031.13 1171.04 4052.13 1139.04 4073.13 1221.04 4094.13 1181.04 4115.13 1084.04 4136.14 1105.04 4157.14 1064.03 4178.14 1101.04 4198.14 1056.03 4219.14 1080.04 4240.14 1160.04 4261.14 1038.03 4282.14 995.033 4303.14 1032.03 4324.14 977.032 4345.14 1020.03 4366.14 1076.04 4387.14 1149.04 4408.14 1146.04 4429.15 1222.04 4450.15 1347.04 4471 1489.05" stroke="#ED7D31" stroke-width="10.3125" stroke-linecap="round" stroke-linejoin="round" stroke-miterlimit="10" fill="none"/></g><g clip-path="url(#clip5)"><path d="M258 1260.04 279.009 1310.04 300.01 1267.04 321.011 1237.04 342.011 1196.04 363.012 1305.04 384.013 1283.04 405.013 1397.05 425.014 1449.05 446.015 1474.05 467.015 1421.05 488.016 1306.04 509.017 1224.04 530.017 1264.04 551.018 1339.04 572.019 1381.05 593.019 1307.04 614.02 1321.04 635.021 1396.05 656.021 1457.05 677.022 1374.05 698.023 1404.05 719.024 1367.04 740.024 1303.04 761.025 1230.04 782.026 1269.04 803.026 1251.04 824.027 1333.04 845.028 1282.04 866.028 1328.04 887.029 1321.04 908.03 1281.04 929.031 1371.04 950.031 1422.05 970.032 1445.05 991.032 1391.05 1012.03 1268.04 1033.03 1189.04 1054.03 1152.04 1075.04 1324.04 1096.04 1339.04 1117.04 1430.05 1138.04 1522 1159.04 1497.05 1180.04 1384.05 1201.04 1361.04 1222.04 1268.04 1243.04 1205.04 1264.04 1171.04 1285.04 1223.04 1306.04 1224.04 1327.04 1308.04 1348.04 1376.05 1369.04 1439.05 1390.05 1406.05 1411.05 1416.05 1432.05 1356.04 1453.05 1346.04 1474.05 1254.04 1495.05 1201.04 1515.05 1258.04 1536.05 1251.04 1557.05 1370.04 1578.05 1331.04 1599.05 1427.05 1620.05 1492.05 1641.05 1512.05 1662.05 1503.05 1683.06 1509.05 1704.06 1412.05 1725.06 1369.04 1746.06 1318.04 1767.06 1381.05 1788.06 1311.04 1809.06 1297.04 1830.06 1366.04 1851.06 1376.05 1872.06 1214.04 1893.06 1092.04 1914.06 1143.04 1935.06 1220.04 1956.06 1297.04 1977.06 1397.05 1998.07 1391.05 2019.07 1349.04 2039.07 1319.04 2060.07 1262.04 2081.07 1252.04 2102.07 1296.04 2123.07 1348.04 2144.07 1277.04 2165.07 1341.04 2186.07 1262.04 2207.07 1289.04 2228.07 1324.04 2249.07 1385.05 2270.07 1471.05 2291.08 1442.05 2312.08 1477.05 2333.08 1393.05 2354.08 1215.04 2375.08 1161.04 2396.08 1118.04 2417.08 1169.04 2438.08 1186.04 2459.08 1269.04 2480.08 1314.04 2501.08 1269.04 2522.08 1322.04 2543.08 1271.04 2564.08 1171.04 2584.08 1198.04 2605.09 1149.04 2626.09 1215.04 2647.09 1181.04 2668.09 1245.04 2689.09 1328.04 2710.09 1412.05 2731.09 1286.04 2752.09 1309.04 2773.09 1316.04 2794.09 1351.04 2815.09 1271.04 2836.09 1212.04 2857.09 1234.04 2878.09 1146.04 2899.1 1197.04 2920.1 1303.04 2941.1 1202.04 2962.1 1264.04 2983.1 1354.04 3004.1 1406.05 3025.1 1415.05 3046.1 1429.05 3067.1 1386.05 3088.1 1367.04 3108.1 1294.04 3129.1 1209.04 3150.1 1211.04 3171.1 1235.04 3192.1 1222.04 3213.11 1275.04 3234.11 1188.04 3255.11 1208.04 3276.11 1094.04 3297.11 1128.04 3318.11 1155.04 3339.11 1274.04 3360.11 1286.04 3381.11 1253.04 3402.11 1289.04 3423.11 1185.04 3444.11 1095.04 3465.11 1171.04 3486.11 1065 3507.12 1142.04 3528.12 1138.04 3549.12 1192.04 3570.12 1223.04 3591.12 1214.04 3612.12 1216.04 3633.12 1117.04 3653.12 1125.04 3674.12 1212.04 3695.12 1240.04 3716.12 1269.04 3737.12 1300.04 3758.12 1263.04 3779.12 1258.04 3800.12 1219.04 3821.13 1258.04 3842.13 1176.04 3863.13 1260.04 3884.13 1211.04 3905.13 1116.04 3926.13 1082.04 3947.13 1178.04 3968.13 1224.04 3989.13 1235.04 4010.13 1240.04 4031.13 1206.04 4052.13 1187.04 4073.13 1243.04 4094.13 1219.04 4115.13 1157.04 4136.14 1243.04 4157.14 1223.04 4178.14 1255.04 4198.14 1188.04 4219.14 1242.04 4240.14 1294.04 4261.14 1263.04 4282.14 1175.04 4303.14 1231.04 4324.14 1213.04 4345.14 1260.04 4366.14 1276.04 4387.14 1324.04 4408.14 1239.04 4429.15 1287.04 4450.15 1337.04 4471 1406.05" stroke="#A5A5A5" stroke-width="10.3125" stroke-linecap="round" stroke-linejoin="round" stroke-miterlimit="10" fill="none"/></g><g clip-path="url(#clip6)"><text fill="#595959" font-family="Calibri,Calibri_MSFontService,sans-serif" font-weight="400" font-size="41" transform="matrix(1 0 0 1 175.542 1968)">-3</text></g><g clip-path="url(#clip7)"><text fill="#595959" font-family="Calibri,Calibri_MSFontService,sans-serif" font-weight="400" font-size="41" transform="matrix(1 0 0 1 175.542 1785)">-2</text></g><g clip-path="url(#clip8)"><text fill="#595959" font-family="Calibri,Calibri_MSFontService,sans-serif" font-weight="400" font-size="41" transform="matrix(1 0 0 1 175.542 1602)">-1</text></g><g clip-path="url(#clip9)"><text fill="#595959" font-family="Calibri,Calibri_MSFontService,sans-serif" font-weight="400" font-size="41" transform="matrix(1 0 0 1 188.169 1418)">0</text></g><g clip-path="url(#clip10)"><text fill="#595959" font-family="Calibri,Calibri_MSFontService,sans-serif" font-weight="400" font-size="41" transform="matrix(1 0 0 1 188.169 1235)">1</text></g><g clip-path="url(#clip11)"><text fill="#595959" font-family="Calibri,Calibri_MSFontService,sans-serif" font-weight="400" font-size="41" transform="matrix(1 0 0 1 188.169 1052)">2</text></g><g clip-path="url(#clip12)"><text fill="#595959" font-family="Calibri,Calibri_MSFontService,sans-serif" font-weight="400" font-size="41" transform="matrix(1 0 0 1 188.169 868)">3</text></g><g clip-path="url(#clip13)"><text fill="#595959" font-family="Calibri,Calibri_MSFontService,sans-serif" font-weight="400" font-size="41" transform="matrix(1 0 0 1 188.169 685)">4</text></g><g clip-path="url(#clip14)"><text fill="#595959" font-family="Calibri,Calibri_MSFontService,sans-serif" font-weight="400" font-size="41" transform="matrix(6.12323e-17 -1 1 6.12323e-17 271.642 1454)">1</text></g><g clip-path="url(#clip15)"><text fill="#595959" font-family="Calibri,Calibri_MSFontService,sans-serif" font-weight="400" font-size="41" transform="matrix(6.12323e-17 -1 1 6.12323e-17 334.528 1454)">4</text></g><g clip-path="url(#clip16)"><text fill="#595959" font-family="Calibri,Calibri_MSFontService,sans-serif" font-weight="400" font-size="41" transform="matrix(6.12323e-17 -1 1 6.12323e-17 397.412 1454)">7</text></g><g clip-path="url(#clip17)"><text fill="#595959" font-family="Calibri,Calibri_MSFontService,sans-serif" font-weight="400" font-size="41" transform="matrix(6.12323e-17 -1 1 6.12323e-17 460.297 1475)">10</text></g><g clip-path="url(#clip18)"><text fill="#595959" font-family="Calibri,Calibri_MSFontService,sans-serif" font-weight="400" font-size="41" transform="matrix(6.12323e-17 -1 1 6.12323e-17 523.182 1475)">13</text></g><g clip-path="url(#clip19)"><text fill="#595959" font-family="Calibri,Calibri_MSFontService,sans-serif" font-weight="400" font-size="41" transform="matrix(6.12323e-17 -1 1 6.12323e-17 586.067 1475)">16</text></g><g clip-path="url(#clip20)"><text fill="#595959" font-family="Calibri,Calibri_MSFontService,sans-serif" font-weight="400" font-size="41" transform="matrix(6.12323e-17 -1 1 6.12323e-17 648.952 1475)">19</text></g><g clip-path="url(#clip21)"><text fill="#595959" font-family="Calibri,Calibri_MSFontService,sans-serif" font-weight="400" font-size="41" transform="matrix(6.12323e-17 -1 1 6.12323e-17 711.837 1475)">22</text></g><g clip-path="url(#clip22)"><text fill="#595959" font-family="Calibri,Calibri_MSFontService,sans-serif" font-weight="400" font-size="41" transform="matrix(6.12323e-17 -1 1 6.12323e-17 774.721 1475)">25</text></g><g clip-path="url(#clip23)"><text fill="#595959" font-family="Calibri,Calibri_MSFontService,sans-serif" font-weight="400" font-size="41" transform="matrix(6.12323e-17 -1 1 6.12323e-17 837.606 1475)">28</text></g><g clip-path="url(#clip24)"><text fill="#595959" font-family="Calibri,Calibri_MSFontService,sans-serif" font-weight="400" font-size="41" transform="matrix(6.12323e-17 -1 1 6.12323e-17 900.491 1475)">31</text></g><g clip-path="url(#clip25)"><text fill="#595959" font-family="Calibri,Calibri_MSFontService,sans-serif" font-weight="400" font-size="41" transform="matrix(6.12323e-17 -1 1 6.12323e-17 963.376 1475)">34</text></g><g clip-path="url(#clip26)"><text fill="#595959" font-family="Calibri,Calibri_MSFontService,sans-serif" font-weight="400" font-size="41" transform="matrix(6.12323e-17 -1 1 6.12323e-17 1026.26 1475)">37</text></g><g clip-path="url(#clip27)"><text fill="#595959" font-family="Calibri,Calibri_MSFontService,sans-serif" font-weight="400" font-size="41" transform="matrix(6.12323e-17 -1 1 6.12323e-17 1089.15 1475)">40</text></g><g clip-path="url(#clip28)"><text fill="#595959" font-family="Calibri,Calibri_MSFontService,sans-serif" font-weight="400" font-size="41" transform="matrix(6.12323e-17 -1 1 6.12323e-17 1152.03 1475)">43</text></g><g clip-path="url(#clip29)"><text fill="#595959" font-family="Calibri,Calibri_MSFontService,sans-serif" font-weight="400" font-size="41" transform="matrix(6.12323e-17 -1 1 6.12323e-17 1214.92 1475)">46</text></g><g clip-path="url(#clip30)"><text fill="#595959" font-family="Calibri,Calibri_MSFontService,sans-serif" font-weight="400" font-size="41" transform="matrix(6.12323e-17 -1 1 6.12323e-17 1277.8 1475)">49</text></g><g clip-path="url(#clip31)"><text fill="#595959" font-family="Calibri,Calibri_MSFontService,sans-serif" font-weight="400" font-size="41" transform="matrix(6.12323e-17 -1 1 6.12323e-17 1340.69 1475)">52</text></g><g clip-path="url(#clip32)"><text fill="#595959" font-family="Calibri,Calibri_MSFontService,sans-serif" font-weight="400" font-size="41" transform="matrix(6.12323e-17 -1 1 6.12323e-17 1403.57 1475)">55</text></g><g clip-path="url(#clip33)"><text fill="#595959" font-family="Calibri,Calibri_MSFontService,sans-serif" font-weight="400" font-size="41" transform="matrix(6.12323e-17 -1 1 6.12323e-17 1466.45 1475)">58</text></g><g clip-path="url(#clip34)"><text fill="#595959" font-family="Calibri,Calibri_MSFontService,sans-serif" font-weight="400" font-size="41" transform="matrix(6.12323e-17 -1 1 6.12323e-17 1529.34 1475)">61</text></g><g clip-path="url(#clip35)"><text fill="#595959" font-family="Calibri,Calibri_MSFontService,sans-serif" font-weight="400" font-size="41" transform="matrix(6.12323e-17 -1 1 6.12323e-17 1592.22 1475)">64</text></g><g clip-path="url(#clip36)"><text fill="#595959" font-family="Calibri,Calibri_MSFontService,sans-serif" font-weight="400" font-size="41" transform="matrix(6.12323e-17 -1 1 6.12323e-17 1655.11 1475)">67</text></g><g clip-path="url(#clip37)"><text fill="#595959" font-family="Calibri,Calibri_MSFontService,sans-serif" font-weight="400" font-size="41" transform="matrix(6.12323e-17 -1 1 6.12323e-17 1717.99 1475)">70</text></g><g clip-path="url(#clip38)"><text fill="#595959" font-family="Calibri,Calibri_MSFontService,sans-serif" font-weight="400" font-size="41" transform="matrix(6.12323e-17 -1 1 6.12323e-17 1780.88 1475)">73</text></g><g clip-path="url(#clip39)"><text fill="#595959" font-family="Calibri,Calibri_MSFontService,sans-serif" font-weight="400" font-size="41" transform="matrix(6.12323e-17 -1 1 6.12323e-17 1843.76 1475)">76</text></g><g clip-path="url(#clip40)"><text fill="#595959" font-family="Calibri,Calibri_MSFontService,sans-serif" font-weight="400" font-size="41" transform="matrix(6.12323e-17 -1 1 6.12323e-17 1906.65 1475)">79</text></g><g clip-path="url(#clip41)"><text fill="#595959" font-family="Calibri,Calibri_MSFontService,sans-serif" font-weight="400" font-size="41" transform="matrix(6.12323e-17 -1 1 6.12323e-17 1969.53 1475)">82</text></g><g clip-path="url(#clip42)"><text fill="#595959" font-family="Calibri,Calibri_MSFontService,sans-serif" font-weight="400" font-size="41" transform="matrix(6.12323e-17 -1 1 6.12323e-17 2032.42 1475)">85</text></g><g clip-path="url(#clip43)"><text fill="#595959" font-family="Calibri,Calibri_MSFontService,sans-serif" font-weight="400" font-size="41" transform="matrix(6.12323e-17 -1 1 6.12323e-17 2095.3 1475)">88</text></g><g clip-path="url(#clip44)"><text fill="#595959" font-family="Calibri,Calibri_MSFontService,sans-serif" font-weight="400" font-size="41" transform="matrix(6.12323e-17 -1 1 6.12323e-17 2158.19 1475)">91</text></g><g clip-path="url(#clip45)"><text fill="#595959" font-family="Calibri,Calibri_MSFontService,sans-serif" font-weight="400" font-size="41" transform="matrix(6.12323e-17 -1 1 6.12323e-17 2221.07 1475)">94</text></g><g clip-path="url(#clip46)"><text fill="#595959" font-family="Calibri,Calibri_MSFontService,sans-serif" font-weight="400" font-size="41" transform="matrix(6.12323e-17 -1 1 6.12323e-17 2283.96 1475)">97</text></g><g clip-path="url(#clip47)"><text fill="#595959" font-family="Calibri,Calibri_MSFontService,sans-serif" font-weight="400" font-size="41" transform="matrix(6.12323e-17 -1 1 6.12323e-17 2346.84 1496)">100</text></g><g clip-path="url(#clip48)"><text fill="#595959" font-family="Calibri,Calibri_MSFontService,sans-serif" font-weight="400" font-size="41" transform="matrix(6.12323e-17 -1 1 6.12323e-17 2409.73 1496)">103</text></g><g clip-path="url(#clip49)"><text fill="#595959" font-family="Calibri,Calibri_MSFontService,sans-serif" font-weight="400" font-size="41" transform="matrix(6.12323e-17 -1 1 6.12323e-17 2472.61 1496)">106</text></g><g clip-path="url(#clip50)"><text fill="#595959" font-family="Calibri,Calibri_MSFontService,sans-serif" font-weight="400" font-size="41" transform="matrix(6.12323e-17 -1 1 6.12323e-17 2535.5 1496)">109</text></g><g clip-path="url(#clip51)"><text fill="#595959" font-family="Calibri,Calibri_MSFontService,sans-serif" font-weight="400" font-size="41" transform="matrix(6.12323e-17 -1 1 6.12323e-17 2598.38 1496)">112</text></g><g clip-path="url(#clip52)"><text fill="#595959" font-family="Calibri,Calibri_MSFontService,sans-serif" font-weight="400" font-size="41" transform="matrix(6.12323e-17 -1 1 6.12323e-17 2661.27 1496)">115</text></g><g clip-path="url(#clip53)"><text fill="#595959" font-family="Calibri,Calibri_MSFontService,sans-serif" font-weight="400" font-size="41" transform="matrix(6.12323e-17 -1 1 6.12323e-17 2724.15 1496)">118</text></g><g clip-path="url(#clip54)"><text fill="#595959" font-family="Calibri,Calibri_MSFontService,sans-serif" font-weight="400" font-size="41" transform="matrix(6.12323e-17 -1 1 6.12323e-17 2787.04 1496)">121</text></g><g clip-path="url(#clip55)"><text fill="#595959" font-family="Calibri,Calibri_MSFontService,sans-serif" font-weight="400" font-size="41" transform="matrix(6.12323e-17 -1 1 6.12323e-17 2849.92 1496)">124</text></g><g clip-path="url(#clip56)"><text fill="#595959" font-family="Calibri,Calibri_MSFontService,sans-serif" font-weight="400" font-size="41" transform="matrix(6.12323e-17 -1 1 6.12323e-17 2912.81 1496)">127</text></g><g clip-path="url(#clip57)"><text fill="#595959" font-family="Calibri,Calibri_MSFontService,sans-serif" font-weight="400" font-size="41" transform="matrix(6.12323e-17 -1 1 6.12323e-17 2975.69 1496)">130</text></g><g clip-path="url(#clip58)"><text fill="#595959" font-family="Calibri,Calibri_MSFontService,sans-serif" font-weight="400" font-size="41" transform="matrix(6.12323e-17 -1 1 6.12323e-17 3038.58 1496)">133</text></g><g clip-path="url(#clip59)"><text fill="#595959" font-family="Calibri,Calibri_MSFontService,sans-serif" font-weight="400" font-size="41" transform="matrix(6.12323e-17 -1 1 6.12323e-17 3101.46 1496)">136</text></g><g clip-path="url(#clip60)"><text fill="#595959" font-family="Calibri,Calibri_MSFontService,sans-serif" font-weight="400" font-size="41" transform="matrix(6.12323e-17 -1 1 6.12323e-17 3164.35 1496)">139</text></g><g clip-path="url(#clip61)"><text fill="#595959" font-family="Calibri,Calibri_MSFontService,sans-serif" font-weight="400" font-size="41" transform="matrix(6.12323e-17 -1 1 6.12323e-17 3227.23 1496)">142</text></g><g clip-path="url(#clip62)"><text fill="#595959" font-family="Calibri,Calibri_MSFontService,sans-serif" font-weight="400" font-size="41" transform="matrix(6.12323e-17 -1 1 6.12323e-17 3290.12 1496)">145</text></g><g clip-path="url(#clip63)"><text fill="#595959" font-family="Calibri,Calibri_MSFontService,sans-serif" font-weight="400" font-size="41" transform="matrix(6.12323e-17 -1 1 6.12323e-17 3353 1496)">148</text></g><g clip-path="url(#clip64)"><text fill="#595959" font-family="Calibri,Calibri_MSFontService,sans-serif" font-weight="400" font-size="41" transform="matrix(6.12323e-17 -1 1 6.12323e-17 3415.89 1496)">151</text></g><g clip-path="url(#clip65)"><text fill="#595959" font-family="Calibri,Calibri_MSFontService,sans-serif" font-weight="400" font-size="41" transform="matrix(6.12323e-17 -1 1 6.12323e-17 3478.77 1496)">154</text></g><g clip-path="url(#clip66)"><text fill="#595959" font-family="Calibri,Calibri_MSFontService,sans-serif" font-weight="400" font-size="41" transform="matrix(6.12323e-17 -1 1 6.12323e-17 3541.66 1496)">157</text></g><g clip-path="url(#clip67)"><text fill="#595959" font-family="Calibri,Calibri_MSFontService,sans-serif" font-weight="400" font-size="41" transform="matrix(6.12323e-17 -1 1 6.12323e-17 3604.54 1496)">160</text></g><g clip-path="url(#clip68)"><text fill="#595959" font-family="Calibri,Calibri_MSFontService,sans-serif" font-weight="400" font-size="41" transform="matrix(6.12323e-17 -1 1 6.12323e-17 3667.42 1496)">163</text></g><g clip-path="url(#clip69)"><text fill="#595959" font-family="Calibri,Calibri_MSFontService,sans-serif" font-weight="400" font-size="41" transform="matrix(6.12323e-17 -1 1 6.12323e-17 3730.31 1496)">166</text></g><g clip-path="url(#clip70)"><text fill="#595959" font-family="Calibri,Calibri_MSFontService,sans-serif" font-weight="400" font-size="41" transform="matrix(6.12323e-17 -1 1 6.12323e-17 3793.19 1496)">169</text></g><g clip-path="url(#clip71)"><text fill="#595959" font-family="Calibri,Calibri_MSFontService,sans-serif" font-weight="400" font-size="41" transform="matrix(6.12323e-17 -1 1 6.12323e-17 3856.08 1496)">172</text></g><g clip-path="url(#clip72)"><text fill="#595959" font-family="Calibri,Calibri_MSFontService,sans-serif" font-weight="400" font-size="41" transform="matrix(6.12323e-17 -1 1 6.12323e-17 3918.96 1496)">175</text></g><g clip-path="url(#clip73)"><text fill="#595959" font-family="Calibri,Calibri_MSFontService,sans-serif" font-weight="400" font-size="41" transform="matrix(6.12323e-17 -1 1 6.12323e-17 3981.85 1496)">178</text></g><g clip-path="url(#clip74)"><text fill="#595959" font-family="Calibri,Calibri_MSFontService,sans-serif" font-weight="400" font-size="41" transform="matrix(6.12323e-17 -1 1 6.12323e-17 4044.73 1496)">181</text></g><g clip-path="url(#clip75)"><text fill="#595959" font-family="Calibri,Calibri_MSFontService,sans-serif" font-weight="400" font-size="41" transform="matrix(6.12323e-17 -1 1 6.12323e-17 4107.62 1496)">184</text></g><g clip-path="url(#clip76)"><text fill="#595959" font-family="Calibri,Calibri_MSFontService,sans-serif" font-weight="400" font-size="41" transform="matrix(6.12323e-17 -1 1 6.12323e-17 4170.5 1496)">187</text></g><g clip-path="url(#clip77)"><text fill="#595959" font-family="Calibri,Calibri_MSFontService,sans-serif" font-weight="400" font-size="41" transform="matrix(6.12323e-17 -1 1 6.12323e-17 4233.39 1496)">190</text></g><g clip-path="url(#clip78)"><text fill="#595959" font-family="Calibri,Calibri_MSFontService,sans-serif" font-weight="400" font-size="41" transform="matrix(6.12323e-17 -1 1 6.12323e-17 4296.27 1496)">193</text></g><g clip-path="url(#clip79)"><text fill="#595959" font-family="Calibri,Calibri_MSFontService,sans-serif" font-weight="400" font-size="41" transform="matrix(6.12323e-17 -1 1 6.12323e-17 4359.16 1496)">196</text></g><g clip-path="url(#clip80)"><text fill="#595959" font-family="Calibri,Calibri_MSFontService,sans-serif" font-weight="400" font-size="41" transform="matrix(6.12323e-17 -1 1 6.12323e-17 4422.04 1496)">199</text></g><g clip-path="url(#clip81)"><text fill="#595959" font-family="Calibri,Calibri_MSFontService,sans-serif" font-weight="400" font-size="41" transform="matrix(6.12323e-17 -1 1 6.12323e-17 4484.93 1496)">202</text></g><g clip-path="url(#clip82)"><path d="M1887 2046 1975 2046" stroke="#4472C4" stroke-width="10.3125" stroke-linecap="round" stroke-linejoin="round" stroke-miterlimit="10" fill="none" fill-rule="evenodd"/></g><g clip-path="url(#clip83)"><text fill="#595959" font-family="Calibri,Calibri_MSFontService,sans-serif" font-weight="400" font-size="41" transform="matrix(1 0 0 1 1984.23 2057)">Real</text></g><g clip-path="url(#clip84)"><path d="M2111 2046 2199 2046" stroke="#ED7D31" stroke-width="10.3125" stroke-linecap="round" stroke-linejoin="round" stroke-miterlimit="10" fill="none" fill-rule="evenodd"/></g><g clip-path="url(#clip85)"><text fill="#595959" font-family="Calibri,Calibri_MSFontService,sans-serif" font-weight="400" font-size="41" transform="matrix(1 0 0 1 2208.76 2057)">Pre_everyone</text></g><g clip-path="url(#clip86)"><path d="M2497 2046 2585 2046" stroke="#A5A5A5" stroke-width="10.3125" stroke-linecap="round" stroke-linejoin="round" stroke-miterlimit="10" fill="none" fill-rule="evenodd"/></g><g clip-path="url(#clip87)"><text fill="#595959" font-family="Calibri,Calibri_MSFontService,sans-serif" font-weight="400" font-size="41" transform="matrix(1 0 0 1 2594.66 2057)">Pre_onlyone</text></g><rect x="146.5" y="623.5" width="4386" height="1489" stroke="#D9D9D9" stroke-width="3.4375" stroke-linejoin="round" stroke-miterlimit="10" fill="none"/></g></svg>