<svg width="4953" height="1881" xmlns="http://www.w3.org/2000/svg" xmlns:xlink="http://www.w3.org/1999/xlink" overflow="hidden"><defs><clipPath id="clip0"><rect x="7" y="142" width="4953" height="1881"/></clipPath><clipPath id="clip1"><rect x="8" y="143" width="4950" height="1878"/></clipPath><clipPath id="clip2"><rect x="8" y="143" width="4950" height="1878"/></clipPath><clipPath id="clip3"><rect x="109" y="193" width="4783" height="1676"/></clipPath><clipPath id="clip4"><rect x="109" y="193" width="4783" height="1676"/></clipPath><clipPath id="clip5"><rect x="109" y="193" width="4783" height="1676"/></clipPath><clipPath id="clip6"><rect x="109" y="193" width="4783" height="1676"/></clipPath><clipPath id="clip7"><rect x="8" y="143" width="4950" height="1878"/></clipPath><clipPath id="clip8"><rect x="8" y="143" width="4950" height="1878"/></clipPath><clipPath id="clip9"><rect x="8" y="143" width="4950" height="1878"/></clipPath><clipPath id="clip10"><rect x="8" y="143" width="4950" height="1878"/></clipPath><clipPath id="clip11"><rect x="8" y="143" width="4950" height="1878"/></clipPath><clipPath id="clip12"><rect x="8" y="143" width="4950" height="1878"/></clipPath><clipPath id="clip13"><rect x="8" y="143" width="4950" height="1878"/></clipPath><clipPath id="clip14"><rect x="8" y="143" width="4950" height="1878"/></clipPath><clipPath id="clip15"><rect x="8" y="143" width="4950" height="1878"/></clipPath><clipPath id="clip16"><rect x="8" y="143" width="4950" height="1878"/></clipPath><clipPath id="clip17"><rect x="8" y="143" width="4950" height="1878"/></clipPath><clipPath id="clip18"><rect x="8" y="143" width="4950" height="1878"/></clipPath><clipPath id="clip19"><rect x="8" y="143" width="4950" height="1878"/></clipPath><clipPath id="clip20"><rect x="8" y="143" width="4950" height="1878"/></clipPath><clipPath id="clip21"><rect x="8" y="143" width="4950" height="1878"/></clipPath><clipPath id="clip22"><rect x="8" y="143" width="4950" height="1878"/></clipPath><clipPath id="clip23"><rect x="8" y="143" width="4950" height="1878"/></clipPath><clipPath id="clip24"><rect x="8" y="143" width="4950" height="1878"/></clipPath><clipPath id="clip25"><rect x="8" y="143" width="4950" height="1878"/></clipPath><clipPath id="clip26"><rect x="8" y="143" width="4950" height="1878"/></clipPath><clipPath id="clip27"><rect x="8" y="143" width="4950" height="1878"/></clipPath><clipPath id="clip28"><rect x="8" y="143" width="4950" height="1878"/></clipPath><clipPath id="clip29"><rect x="8" y="143" width="4950" height="1878"/></clipPath><clipPath id="clip30"><rect x="8" y="143" width="4950" height="1878"/></clipPath><clipPath id="clip31"><rect x="8" y="143" width="4950" height="1878"/></clipPath><clipPath id="clip32"><rect x="8" y="143" width="4950" height="1878"/></clipPath><clipPath id="clip33"><rect x="8" y="143" width="4950" height="1878"/></clipPath><clipPath id="clip34"><rect x="8" y="143" width="4950" height="1878"/></clipPath><clipPath id="clip35"><rect x="8" y="143" width="4950" height="1878"/></clipPath><clipPath id="clip36"><rect x="8" y="143" width="4950" height="1878"/></clipPath><clipPath id="clip37"><rect x="8" y="143" width="4950" height="1878"/></clipPath><clipPath id="clip38"><rect x="8" y="143" width="4950" height="1878"/></clipPath><clipPath id="clip39"><rect x="8" y="143" width="4950" height="1878"/></clipPath><clipPath id="clip40"><rect x="8" y="143" width="4950" height="1878"/></clipPath><clipPath id="clip41"><rect x="8" y="143" width="4950" height="1878"/></clipPath><clipPath id="clip42"><rect x="8" y="143" width="4950" height="1878"/></clipPath><clipPath id="clip43"><rect x="8" y="143" width="4950" height="1878"/></clipPath><clipPath id="clip44"><rect x="8" y="143" width="4950" height="1878"/></clipPath><clipPath id="clip45"><rect x="8" y="143" width="4950" height="1878"/></clipPath><clipPath id="clip46"><rect x="8" y="143" width="4950" height="1878"/></clipPath><clipPath id="clip47"><rect x="8" y="143" width="4950" height="1878"/></clipPath><clipPath id="clip48"><rect x="8" y="143" width="4950" height="1878"/></clipPath><clipPath id="clip49"><rect x="8" y="143" width="4950" height="1878"/></clipPath><clipPath id="clip50"><rect x="8" y="143" width="4950" height="1878"/></clipPath><clipPath id="clip51"><rect x="8" y="143" width="4950" height="1878"/></clipPath><clipPath id="clip52"><rect x="8" y="143" width="4950" height="1878"/></clipPath><clipPath id="clip53"><rect x="8" y="143" width="4950" height="1878"/></clipPath><clipPath id="clip54"><rect x="8" y="143" width="4950" height="1878"/></clipPath><clipPath id="clip55"><rect x="8" y="143" width="4950" height="1878"/></clipPath><clipPath id="clip56"><rect x="8" y="143" width="4950" height="1878"/></clipPath><clipPath id="clip57"><rect x="8" y="143" width="4950" height="1878"/></clipPath><clipPath id="clip58"><rect x="8" y="143" width="4950" height="1878"/></clipPath><clipPath id="clip59"><rect x="8" y="143" width="4950" height="1878"/></clipPath><clipPath id="clip60"><rect x="8" y="143" width="4950" height="1878"/></clipPath><clipPath id="clip61"><rect x="8" y="143" width="4950" height="1878"/></clipPath><clipPath id="clip62"><rect x="8" y="143" width="4950" height="1878"/></clipPath><clipPath id="clip63"><rect x="8" y="143" width="4950" height="1878"/></clipPath><clipPath id="clip64"><rect x="8" y="143" width="4950" height="1878"/></clipPath><clipPath id="clip65"><rect x="8" y="143" width="4950" height="1878"/></clipPath><clipPath id="clip66"><rect x="8" y="143" width="4950" height="1878"/></clipPath><clipPath id="clip67"><rect x="8" y="143" width="4950" height="1878"/></clipPath><clipPath id="clip68"><rect x="8" y="143" width="4950" height="1878"/></clipPath><clipPath id="clip69"><rect x="8" y="143" width="4950" height="1878"/></clipPath><clipPath id="clip70"><rect x="8" y="143" width="4950" height="1878"/></clipPath><clipPath id="clip71"><rect x="8" y="143" width="4950" height="1878"/></clipPath><clipPath id="clip72"><rect x="8" y="143" width="4950" height="1878"/></clipPath><clipPath id="clip73"><rect x="8" y="143" width="4950" height="1878"/></clipPath><clipPath id="clip74"><rect x="8" y="143" width="4950" height="1878"/></clipPath><clipPath id="clip75"><rect x="8" y="143" width="4950" height="1878"/></clipPath><clipPath id="clip76"><rect x="8" y="143" width="4950" height="1878"/></clipPath><clipPath id="clip77"><rect x="8" y="143" width="4950" height="1878"/></clipPath><clipPath id="clip78"><rect x="8" y="143" width="4950" height="1878"/></clipPath><clipPath id="clip79"><rect x="8" y="143" width="4950" height="1878"/></clipPath><clipPath id="clip80"><rect x="8" y="143" width="4950" height="1878"/></clipPath><clipPath id="clip81"><rect x="8" y="143" width="4950" height="1878"/></clipPath><clipPath id="clip82"><rect x="8" y="143" width="4950" height="1878"/></clipPath><clipPath id="clip83"><rect x="8" y="143" width="4950" height="1878"/></clipPath><clipPath id="clip84"><rect x="8" y="143" width="4950" height="1878"/></clipPath><clipPath id="clip85"><rect x="8" y="143" width="4950" height="1878"/></clipPath><clipPath id="clip86"><rect x="8" y="143" width="4950" height="1878"/></clipPath><clipPath id="clip87"><rect x="8" y="143" width="4950" height="1878"/></clipPath></defs><g clip-path="url(#clip0)" transform="translate(-7 -142)"><rect x="7.9999" y="143" width="4950" height="1878" fill="#FFFFFF"/><g clip-path="url(#clip1)"><path d="M109.5 1865.5 4889.5 1865.5M109.5 1587.55 4889.5 1587.55M109.5 1308.54 4889.5 1308.54M109.5 750.525 4889.5 750.525M109.5 472.516 4889.5 472.516M109.5 193.5 4889.5 193.5" stroke="#D9D9D9" stroke-width="3.4375" stroke-linejoin="round" stroke-miterlimit="10" fill="none"/></g><g clip-path="url(#clip2)"><path d="M109.5 1029.5 4889.5 1029.5" stroke="#D9D9D9" stroke-width="3.4375" stroke-linejoin="round" stroke-miterlimit="10" fill="none" fill-rule="evenodd"/></g><g clip-path="url(#clip3)"><path d="M122 1030 147.005 974.032 172.006 904.03 197.006 807.026 221.007 876.029 246.008 974.032 271.009 904.03 296.01 807.026 320.01 876.029 345.011 1030 370.012 1030 395.013 974.032 419.014 904.03 444.015 751 469.015 807.026 494.016 821.027 518.017 904.03 543.018 807.026 568.019 876.029 593.019 974.032 617.02 904.03 642.021 807.026 667.022 821.027 692.023 960.031 717.024 876.029 741.024 1030 766.025 974.032 791.026 904.03 816.027 807.026 840.028 821.027 865.028 904.03 890.029 751 915.03 807.026 939.031 876.029 964.032 1030 989.032 1030 1014.03 974.032 1038.03 904.03 1063.03 751 1088.04 751 1113.04 751 1137.04 751 1162.04 751 1187.04 807.026 1212.04 821.027 1237.04 904.03 1261.04 751 1286.04 751 1311.04 751 1336.04 807.026 1360.04 821.027 1385.05 960.031 1410.05 876.029 1435.05 974.032 1459.05 960.031 1484.05 876.029 1509.05 1030 1534.05 974.032 1558.05 904.03 1583.05 751 1608.05 751 1633.05 751 1657.05 751 1682.06 751 1707.06 751 1732.06 751 1757.06 751 1781.06 751 1806.06 751 1831.06 807.026 1856.06 821.027 1880.06 960.031 1905.06 876.029 1930.06 1030 1955.06 1030 1979.06 1030 2004.07 1030 2029.07 974.032 2054.07 904.03 2078.07 807.026 2103.07 876.029 2128.07 974.032 2153.07 960.031 2178.07 876.029 2202.07 1030 2227.07 1030 2252.07 974.032 2277.07 960.031 2301.08 876.029 2326.08 1030 2351.08 1030 2376.08 1030 2400.08 1030 2425.08 1030 2450.08 974.032 2475.08 960.031 2499.08 821.027 2524.08 904.03 2549.08 807.026 2574.08 821.027 2598.09 904.03 2623.09 807.026 2648.09 821.027 2673.09 960.031 2698.09 821.027 2722.09 960.031 2747.09 876.029 2772.09 1030 2797.09 974.032 2821.09 904.03 2846.09 751 2871.09 751 2896.09 751 2920.1 807.026 2945.1 821.027 2970.1 904.03 2995.1 807.026 3019.1 876.029 3044.1 1030 3069.1 1030 3094.1 974.032 3118.1 904.03 3143.1 751 3168.1 751 3193.1 807.026 3218.11 876.029 3242.11 974.032 3267.11 904.03 3292.11 751 3317.11 751 3341.11 751 3366.11 751 3391.11 751 3416.11 751 3440.11 807.026 3465.11 876.029 3490.11 974.032 3515.12 960.031 3539.12 821.027 3564.12 904.03 3589.12 751 3614.12 751 3639.12 751 3663.12 807.026 3688.12 821.027 3713.12 960.031 3738.12 876.029 3762.12 974.032 3787.12 904.03 3812.12 807.026 3837.13 821.027 3861.13 904.03 3886.13 807.026 3911.13 821.027 3936.13 904.03 3960.13 807.026 3985.13 876.029 4010.13 1030 4035.13 974.032 4059.13 960.031 4084.13 821.027 4109.13 904.03 4134.14 751 4159.14 751 4183.14 807.026 4208.14 876.029 4233.14 1030 4258.14 1030 4282.14 974.032 4307.14 960.031 4332.14 821.027 4357.14 904.03 4381.14 751 4406.14 751 4431.15 807.026 4456.15 821.027 4480.15 960.031 4505.15 821.027 4530.15 904.03 4555.15 751 4579.15 751 4604.15 807.026 4629.15 821.027 4654.15 904.03 4679.15 751 4703.15 751 4728.16 807.026 4753.16 876.029 4778.16 974.032 4802.16 904.03 4827.16 1030 4852.16 1030 4877 1030" stroke="#4472C4" stroke-width="10.3125" stroke-linecap="round" stroke-linejoin="round" stroke-miterlimit="10" fill="none"/></g><g clip-path="url(#clip4)"><path d="M122 890.029 147.005 946.031 172.006 949.031 197.006 852.028 221.007 900.03 246.008 1004.03 271.009 974.032 296.01 929.031 320.01 1031.03 345.011 1135.04 370.012 1156.04 395.013 1102.04 419.014 1046.03 444.015 964.032 469.015 1010.03 494.016 1082.04 518.017 1070.04 543.018 883.029 568.019 933.031 593.019 1038.03 617.02 997.033 642.021 931.031 667.022 1033.03 692.023 1204.04 717.024 1143.04 741.024 1253.04 766.025 1117.04 791.026 917.03 816.027 608.02 840.028 480.016 865.028 463.015 890.029 325 915.03 394.013 939.031 525.017 964.032 641.021 989.032 615.02 1014.03 595.02 1038.03 555.018 1063.03 432.014 1088.04 494.016 1113.04 595.02 1137.04 706.023 1162.04 856.028 1187.04 962.032 1212.04 1143.04 1237.04 1236.04 1261.04 1107.04 1286.04 1205.04 1311.04 1218.04 1336.04 1129.04 1360.04 1062.03 1385.05 1073.04 1410.05 1043.03 1435.05 1156.04 1459.05 1085.04 1484.05 989.032 1509.05 1126.04 1534.05 1110.04 1558.05 1089.04 1583.05 1021.03 1608.05 1063.03 1633.05 1122.04 1657.05 1167.04 1682.06 1287.04 1707.06 1362.04 1732.06 1266.04 1757.06 1170.04 1781.06 1096.04 1806.06 1048.03 1831.06 975.032 1856.06 913.03 1880.06 909.03 1905.06 799.026 1930.06 903.03 1955.06 841.028 1979.06 816.027 2004.07 749.025 2029.07 656.022 2054.07 549.018 2078.07 457.015 2103.07 557.018 2128.07 705.023 2153.07 729.024 2178.07 743.024 2202.07 963.032 2227.07 920.03 2252.07 903.03 2277.07 800.026 2301.08 680.022 2326.08 732.024 2351.08 643.021 2376.08 608.02 2400.08 515.017 2425.08 515.017 2450.08 518.017 2475.08 551.018 2499.08 481.016 2524.08 662.022 2549.08 620.02 2574.08 754.025 2598.09 936.031 2623.09 990.032 2648.09 1224.04 2673.09 1462.05 2698.09 1492.05 2722.09 1645.05 2747.09 1595.05 2772.09 1665 2797.09 1498.05 2821.09 1352.04 2846.09 1192.04 2871.09 1116.04 2896.09 987.032 2920.1 881.029 2945.1 831.027 2970.1 813.027 2995.1 685.022 3019.1 738.024 3044.1 871.029 3069.1 858.028 3094.1 811.027 3118.1 727.024 3143.1 642.021 3168.1 777.026 3193.1 963.032 3218.11 1127.04 3242.11 1240.04 3267.11 1240.04 3292.11 1092.04 3317.11 1093.04 3341.11 1084.04 3366.11 1016.03 3391.11 852.028 3416.11 737.024 3440.11 617.02 3465.11 599.02 3490.11 697.023 3515.12 643.021 3539.12 638.021 3564.12 803.026 3589.12 782.026 3614.12 922.03 3639.12 1096.04 3663.12 1258.04 3688.12 1260.04 3713.12 1255.04 3738.12 1047.03 3762.12 1078.04 3787.12 885.029 3812.12 651.021 3837.13 633.021 3861.13 667.022 3886.13 557.018 3911.13 626.021 3936.13 764.025 3960.13 681.022 3985.13 766.025 4010.13 887.029 4035.13 807.026 4059.13 731.024 4084.13 630.021 4109.13 665.022 4134.14 524.017 4159.14 560.018 4183.14 642.021 4208.14 771.025 4233.14 939.031 4258.14 946.031 4282.14 907.03 4307.14 827.027 4332.14 652.021 4357.14 593.019 4381.14 445.015 4406.14 519.017 4431.15 645.021 4456.15 803.026 4480.15 951.031 4505.15 914.03 4530.15 1016.03 4555.15 913.03 4579.15 957.031 4604.15 970.032 4629.15 989.032 4654.15 1002.03 4679.15 771.025 4703.15 724.024 4728.16 774.025 4753.16 847.028 4778.16 982.032 4802.16 964.032 4827.16 943.031 4852.16 1102.04 4877 1178.04" stroke="#ED7D31" stroke-width="10.3125" stroke-linecap="round" stroke-linejoin="round" stroke-miterlimit="10" fill="none"/></g><g clip-path="url(#clip5)"><path d="M122 773.025 147.005 727.024 172.006 760.025 197.006 721.024 221.007 902.03 246.008 1008.03 271.009 961.031 296.01 902.03 320.01 1025.03 345.011 1158.04 370.012 1093.04 395.013 995.033 419.014 879.029 444.015 731.024 469.015 812.027 494.016 873.029 518.017 943.031 543.018 753.025 568.019 818.027 593.019 856.028 617.02 813.027 642.021 867.028 667.022 1045.03 692.023 1222.04 717.024 1207.04 741.024 1293 766.025 1148.04 791.026 901.03 816.027 712.023 840.028 729.024 865.028 819.027 890.029 691.023 915.03 703.023 939.031 742.024 964.032 820.027 989.032 823.027 1014.03 773.025 1038.03 714.023 1063.03 646.021 1088.04 753.025 1113.04 846.028 1137.04 956.031 1162.04 1030.03 1187.04 1083.04 1212.04 1122.04 1237.04 1093.04 1261.04 839.028 1286.04 673.022 1311.04 762.025 1336.04 800.026 1360.04 947.031 1385.05 1110.04 1410.05 1147.04 1435.05 1277.04 1459.05 1118.04 1484.05 1021.03 1509.05 942.031 1534.05 759.025 1558.05 602.02 1583.05 583.019 1608.05 708.023 1633.05 821.027 1657.05 855.028 1682.06 891.029 1707.06 890.029 1732.06 890.029 1757.06 1023.03 1781.06 982.032 1806.06 967.032 1831.06 993.033 1856.06 1104.04 1880.06 1138.04 1905.06 1086.04 1930.06 1255.04 1955.06 1123.04 1979.06 1128.04 2004.07 956.031 2029.07 749.025 2054.07 527.017 2078.07 390 2103.07 520.017 2128.07 627.021 2153.07 593.019 2178.07 689.023 2202.07 799.026 2227.07 704.023 2252.07 607.02 2277.07 584.019 2301.08 622.02 2326.08 764.025 2351.08 729.024 2376.08 680.022 2400.08 660.022 2425.08 731.024 2450.08 686.022 2475.08 614.02 2499.08 588.019 2524.08 948.031 2549.08 928.03 2574.08 1046.03 2598.09 1115.04 2623.09 1035.03 2648.09 1082.04 2673.09 998.033 2698.09 814.027 2722.09 917.03 2747.09 747.025 2772.09 923.03 2797.09 852.028 2821.09 854.028 2846.09 810.027 2871.09 902.03 2896.09 943.031 2920.1 917.03 2945.1 934.031 2970.1 930.031 2995.1 816.027 3019.1 914.03 3044.1 983.032 3069.1 938.031 3094.1 822.027 3118.1 732.024 3143.1 729.024 3168.1 901.03 3193.1 813.027 3218.11 828.027 3242.11 859.028 3267.11 669.022 3292.11 619.02 3317.11 765.025 3341.11 908.03 3366.11 965.032 3391.11 1007.03 3416.11 971.032 3440.11 998.033 3465.11 1044.03 3490.11 1128.04 3515.12 910.03 3539.12 756.025 3564.12 798.026 3589.12 680.022 3614.12 806.026 3639.12 944.031 3663.12 1109.04 3688.12 1226.04 3713.12 1017.03 3738.12 864.028 3762.12 922.03 3787.12 741.024 3812.12 645.021 3837.13 605.02 3861.13 652.021 3886.13 625.021 3911.13 752.025 3936.13 914.03 3960.13 908.03 3985.13 1026.03 4010.13 1072.04 4035.13 901.03 4059.13 776.025 4084.13 685.022 4109.13 753.025 4134.14 644.021 4159.14 745.024 4183.14 808.026 4208.14 884.029 4233.14 1001.03 4258.14 855.028 4282.14 790.026 4307.14 694.023 4332.14 588.019 4357.14 685.022 4381.14 634.021 4406.14 737.024 4431.15 784.026 4456.15 883.029 4480.15 970.032 4505.15 972.032 4530.15 1046.03 4555.15 945.031 4579.15 989.032 4604.15 914.03 4629.15 800.026 4654.15 846.028 4679.15 741.024 4703.15 845.028 4728.16 926.03 4753.16 980.032 4778.16 1053.03 4802.16 1038.03 4827.16 990.032 4852.16 1016.03 4877 1105.04" stroke="#A5A5A5" stroke-width="10.3125" stroke-linecap="round" stroke-linejoin="round" stroke-miterlimit="10" fill="none"/></g><g clip-path="url(#clip6)"><path d="M122 952.031 147.005 897.029 172.006 846.028 197.006 746.024 221.007 807.026 246.008 869.029 271.009 856.028 296.01 747.025 320.01 768.025 345.011 771.025 370.012 760.025 395.013 685.022 419.014 650.021 444.015 590.019 469.015 711.023 494.016 864.028 518.017 983.032 543.018 871.029 568.019 818.027 593.019 890.029 617.02 848.028 642.021 811.027 667.022 897.029 692.023 1054.03 717.024 1052.03 741.024 1211.04 766.025 1100.04 791.026 932.031 816.027 790.026 840.028 731.024 865.028 766.025 890.029 600.02 915.03 689.023 939.031 810.027 964.032 955.031 989.032 1002.03 1014.03 1053.03 1038.03 991.032 1063.03 888.029 1088.04 949.031 1113.04 975.032 1137.04 995.033 1162.04 1024.03 1187.04 1044.03 1212.04 1095.04 1237.04 1055.03 1261.04 878.029 1286.04 960.031 1311.04 919.03 1336.04 952.031 1360.04 878.029 1385.05 875.029 1410.05 772.025 1435.05 790.026 1459.05 780.026 1484.05 683.022 1509.05 858.028 1534.05 843.028 1558.05 813.027 1583.05 710.023 1608.05 732.024 1633.05 754.025 1657.05 811.027 1682.06 919.03 1707.06 970.032 1732.06 990.032 1757.06 1013.03 1781.06 988.032 1806.06 974.032 1831.06 932.031 1856.06 923.03 1880.06 927.03 1905.06 963.032 1930.06 988.032 1955.06 857.028 1979.06 671.022 2004.07 562.018 2029.07 409.013 2054.07 270 2078.07 297.01 2103.07 459.015 2128.07 690.023 2153.07 691.023 2178.07 750.025 2202.07 890.029 2227.07 954.031 2252.07 893.029 2277.07 926.03 2301.08 891.029 2326.08 931.031 2351.08 823.027 2376.08 665.022 2400.08 547.018 2425.08 534.018 2450.08 465.015 2475.08 474.016 2499.08 502.016 2524.08 857.028 2549.08 716.023 2574.08 817.027 2598.09 806.026 2623.09 613.02 2648.09 771.025 2673.09 760.025 2698.09 626.021 2722.09 774.025 2747.09 731.024 2772.09 956.031 2797.09 914.03 2821.09 843.028 2846.09 782.026 2871.09 825.027 2896.09 941.031 2920.1 1034.03 2945.1 1082.04 2970.1 1140.04 2995.1 1016.03 3019.1 1152.04 3044.1 1229.04 3069.1 1088.04 3094.1 883.029 3118.1 770.025 3143.1 700.023 3168.1 623.02 3193.1 660.022 3218.11 742.024 3242.11 927.03 3267.11 925.03 3292.11 949.031 3317.11 1153.04 3341.11 1326.04 3366.11 1364 3391.11 1250.04 3416.11 1060.03 3440.11 921.03 3465.11 889.029 3490.11 887.029 3515.12 793.026 3539.12 638.021 3564.12 698.023 3589.12 647.021 3614.12 726.024 3639.12 856.028 3663.12 990.032 3688.12 1043.03 3713.12 1035.03 3738.12 812.027 3762.12 844.028 3787.12 713.023 3812.12 492.016 3837.13 620.02 3861.13 767.025 3886.13 736.024 3911.13 890.029 3936.13 970.032 3960.13 920.03 3985.13 920.03 4010.13 951.031 4035.13 798.026 4059.13 643.021 4084.13 532.017 4109.13 597.02 4134.14 493.016 4159.14 664.022 4183.14 804.026 4208.14 901.03 4233.14 967.032 4258.14 893.029 4282.14 842.028 4307.14 740.024 4332.14 712.023 4357.14 810.027 4381.14 744.024 4406.14 879.029 4431.15 925.03 4456.15 1076.04 4480.15 1165.04 4505.15 1096.04 4530.15 1250.04 4555.15 1176.04 4579.15 1238.04 4604.15 1165.04 4629.15 1079.04 4654.15 1082.04 4679.15 914.03 4703.15 902.03 4728.16 964.032 4753.16 964.032 4778.16 1056.03 4802.16 920.03 4827.16 897.029 4852.16 1000.03 4877 976.032" stroke="#FFC000" stroke-width="10.3125" stroke-linecap="round" stroke-linejoin="round" stroke-miterlimit="10" fill="none"/></g><g clip-path="url(#clip7)"><text fill="#595959" font-family="Calibri,Calibri_MSFontService,sans-serif" font-weight="400" font-size="41" transform="matrix(1 0 0 1 38.0417 1878)">-3</text></g><g clip-path="url(#clip8)"><text fill="#595959" font-family="Calibri,Calibri_MSFontService,sans-serif" font-weight="400" font-size="41" transform="matrix(1 0 0 1 38.0417 1599)">-2</text></g><g clip-path="url(#clip9)"><text fill="#595959" font-family="Calibri,Calibri_MSFontService,sans-serif" font-weight="400" font-size="41" transform="matrix(1 0 0 1 38.0417 1320)">-1</text></g><g clip-path="url(#clip10)"><text fill="#595959" font-family="Calibri,Calibri_MSFontService,sans-serif" font-weight="400" font-size="41" transform="matrix(1 0 0 1 50.6689 1041)">0</text></g><g clip-path="url(#clip11)"><text fill="#595959" font-family="Calibri,Calibri_MSFontService,sans-serif" font-weight="400" font-size="41" transform="matrix(1 0 0 1 50.6689 762)">1</text></g><g clip-path="url(#clip12)"><text fill="#595959" font-family="Calibri,Calibri_MSFontService,sans-serif" font-weight="400" font-size="41" transform="matrix(1 0 0 1 50.6689 484)">2</text></g><g clip-path="url(#clip13)"><text fill="#595959" font-family="Calibri,Calibri_MSFontService,sans-serif" font-weight="400" font-size="41" transform="matrix(1 0 0 1 50.6689 205)">3</text></g><g clip-path="url(#clip14)"><text fill="#595959" font-family="Calibri,Calibri_MSFontService,sans-serif" font-weight="400" font-size="41" transform="matrix(1 0 0 1 111.768 1095)">1</text></g><g clip-path="url(#clip15)"><text fill="#595959" font-family="Calibri,Calibri_MSFontService,sans-serif" font-weight="400" font-size="41" transform="matrix(1 0 0 1 186.058 1095)">4</text></g><g clip-path="url(#clip16)"><text fill="#595959" font-family="Calibri,Calibri_MSFontService,sans-serif" font-weight="400" font-size="41" transform="matrix(1 0 0 1 260.348 1095)">7</text></g><g clip-path="url(#clip17)"><text fill="#595959" font-family="Calibri,Calibri_MSFontService,sans-serif" font-weight="400" font-size="41" transform="matrix(1 0 0 1 324.189 1095)">10</text></g><g clip-path="url(#clip18)"><text fill="#595959" font-family="Calibri,Calibri_MSFontService,sans-serif" font-weight="400" font-size="41" transform="matrix(1 0 0 1 398.479 1095)">13</text></g><g clip-path="url(#clip19)"><text fill="#595959" font-family="Calibri,Calibri_MSFontService,sans-serif" font-weight="400" font-size="41" transform="matrix(1 0 0 1 472.77 1095)">16</text></g><g clip-path="url(#clip20)"><text fill="#595959" font-family="Calibri,Calibri_MSFontService,sans-serif" font-weight="400" font-size="41" transform="matrix(1 0 0 1 547.06 1095)">19</text></g><g clip-path="url(#clip21)"><text fill="#595959" font-family="Calibri,Calibri_MSFontService,sans-serif" font-weight="400" font-size="41" transform="matrix(1 0 0 1 621.351 1095)">22</text></g><g clip-path="url(#clip22)"><text fill="#595959" font-family="Calibri,Calibri_MSFontService,sans-serif" font-weight="400" font-size="41" transform="matrix(1 0 0 1 695.641 1095)">25</text></g><g clip-path="url(#clip23)"><text fill="#595959" font-family="Calibri,Calibri_MSFontService,sans-serif" font-weight="400" font-size="41" transform="matrix(1 0 0 1 769.931 1095)">28</text></g><g clip-path="url(#clip24)"><text fill="#595959" font-family="Calibri,Calibri_MSFontService,sans-serif" font-weight="400" font-size="41" transform="matrix(1 0 0 1 844.222 1095)">31</text></g><g clip-path="url(#clip25)"><text fill="#595959" font-family="Calibri,Calibri_MSFontService,sans-serif" font-weight="400" font-size="41" transform="matrix(1 0 0 1 918.513 1095)">34</text></g><g clip-path="url(#clip26)"><text fill="#595959" font-family="Calibri,Calibri_MSFontService,sans-serif" font-weight="400" font-size="41" transform="matrix(1 0 0 1 992.803 1095)">37</text></g><g clip-path="url(#clip27)"><text fill="#595959" font-family="Calibri,Calibri_MSFontService,sans-serif" font-weight="400" font-size="41" transform="matrix(1 0 0 1 1067.09 1095)">40</text></g><g clip-path="url(#clip28)"><text fill="#595959" font-family="Calibri,Calibri_MSFontService,sans-serif" font-weight="400" font-size="41" transform="matrix(1 0 0 1 1141.38 1095)">43</text></g><g clip-path="url(#clip29)"><text fill="#595959" font-family="Calibri,Calibri_MSFontService,sans-serif" font-weight="400" font-size="41" transform="matrix(1 0 0 1 1215.67 1095)">46</text></g><g clip-path="url(#clip30)"><text fill="#595959" font-family="Calibri,Calibri_MSFontService,sans-serif" font-weight="400" font-size="41" transform="matrix(1 0 0 1 1289.96 1095)">49</text></g><g clip-path="url(#clip31)"><text fill="#595959" font-family="Calibri,Calibri_MSFontService,sans-serif" font-weight="400" font-size="41" transform="matrix(1 0 0 1 1364.26 1095)">52</text></g><g clip-path="url(#clip32)"><text fill="#595959" font-family="Calibri,Calibri_MSFontService,sans-serif" font-weight="400" font-size="41" transform="matrix(1 0 0 1 1438.55 1095)">55</text></g><g clip-path="url(#clip33)"><text fill="#595959" font-family="Calibri,Calibri_MSFontService,sans-serif" font-weight="400" font-size="41" transform="matrix(1 0 0 1 1512.84 1095)">58</text></g><g clip-path="url(#clip34)"><text fill="#595959" font-family="Calibri,Calibri_MSFontService,sans-serif" font-weight="400" font-size="41" transform="matrix(1 0 0 1 1587.13 1095)">61</text></g><g clip-path="url(#clip35)"><text fill="#595959" font-family="Calibri,Calibri_MSFontService,sans-serif" font-weight="400" font-size="41" transform="matrix(1 0 0 1 1661.42 1095)">64</text></g><g clip-path="url(#clip36)"><text fill="#595959" font-family="Calibri,Calibri_MSFontService,sans-serif" font-weight="400" font-size="41" transform="matrix(1 0 0 1 1735.71 1095)">67</text></g><g clip-path="url(#clip37)"><text fill="#595959" font-family="Calibri,Calibri_MSFontService,sans-serif" font-weight="400" font-size="41" transform="matrix(1 0 0 1 1810 1095)">70</text></g><g clip-path="url(#clip38)"><text fill="#595959" font-family="Calibri,Calibri_MSFontService,sans-serif" font-weight="400" font-size="41" transform="matrix(1 0 0 1 1884.29 1095)">73</text></g><g clip-path="url(#clip39)"><text fill="#595959" font-family="Calibri,Calibri_MSFontService,sans-serif" font-weight="400" font-size="41" transform="matrix(1 0 0 1 1958.58 1095)">76</text></g><g clip-path="url(#clip40)"><text fill="#595959" font-family="Calibri,Calibri_MSFontService,sans-serif" font-weight="400" font-size="41" transform="matrix(1 0 0 1 2032.87 1095)">79</text></g><g clip-path="url(#clip41)"><text fill="#595959" font-family="Calibri,Calibri_MSFontService,sans-serif" font-weight="400" font-size="41" transform="matrix(1 0 0 1 2107.16 1095)">82</text></g><g clip-path="url(#clip42)"><text fill="#595959" font-family="Calibri,Calibri_MSFontService,sans-serif" font-weight="400" font-size="41" transform="matrix(1 0 0 1 2181.45 1095)">85</text></g><g clip-path="url(#clip43)"><text fill="#595959" font-family="Calibri,Calibri_MSFontService,sans-serif" font-weight="400" font-size="41" transform="matrix(1 0 0 1 2255.74 1095)">88</text></g><g clip-path="url(#clip44)"><text fill="#595959" font-family="Calibri,Calibri_MSFontService,sans-serif" font-weight="400" font-size="41" transform="matrix(1 0 0 1 2330.03 1095)">91</text></g><g clip-path="url(#clip45)"><text fill="#595959" font-family="Calibri,Calibri_MSFontService,sans-serif" font-weight="400" font-size="41" transform="matrix(1 0 0 1 2404.32 1095)">94</text></g><g clip-path="url(#clip46)"><text fill="#595959" font-family="Calibri,Calibri_MSFontService,sans-serif" font-weight="400" font-size="41" transform="matrix(1 0 0 1 2478.61 1095)">97</text></g><g clip-path="url(#clip47)"><text fill="#595959" font-family="Calibri,Calibri_MSFontService,sans-serif" font-weight="400" font-size="41" transform="matrix(1 0 0 1 2542.45 1095)">100</text></g><g clip-path="url(#clip48)"><text fill="#595959" font-family="Calibri,Calibri_MSFontService,sans-serif" font-weight="400" font-size="41" transform="matrix(1 0 0 1 2616.74 1095)">103</text></g><g clip-path="url(#clip49)"><text fill="#595959" font-family="Calibri,Calibri_MSFontService,sans-serif" font-weight="400" font-size="41" transform="matrix(1 0 0 1 2691.03 1095)">106</text></g><g clip-path="url(#clip50)"><text fill="#595959" font-family="Calibri,Calibri_MSFontService,sans-serif" font-weight="400" font-size="41" transform="matrix(1 0 0 1 2765.32 1095)">109</text></g><g clip-path="url(#clip51)"><text fill="#595959" font-family="Calibri,Calibri_MSFontService,sans-serif" font-weight="400" font-size="41" transform="matrix(1 0 0 1 2839.61 1095)">112</text></g><g clip-path="url(#clip52)"><text fill="#595959" font-family="Calibri,Calibri_MSFontService,sans-serif" font-weight="400" font-size="41" transform="matrix(1 0 0 1 2913.9 1095)">115</text></g><g clip-path="url(#clip53)"><text fill="#595959" font-family="Calibri,Calibri_MSFontService,sans-serif" font-weight="400" font-size="41" transform="matrix(1 0 0 1 2988.19 1095)">118</text></g><g clip-path="url(#clip54)"><text fill="#595959" font-family="Calibri,Calibri_MSFontService,sans-serif" font-weight="400" font-size="41" transform="matrix(1 0 0 1 3062.49 1095)">121</text></g><g clip-path="url(#clip55)"><text fill="#595959" font-family="Calibri,Calibri_MSFontService,sans-serif" font-weight="400" font-size="41" transform="matrix(1 0 0 1 3136.78 1095)">124</text></g><g clip-path="url(#clip56)"><text fill="#595959" font-family="Calibri,Calibri_MSFontService,sans-serif" font-weight="400" font-size="41" transform="matrix(1 0 0 1 3211.07 1095)">127</text></g><g clip-path="url(#clip57)"><text fill="#595959" font-family="Calibri,Calibri_MSFontService,sans-serif" font-weight="400" font-size="41" transform="matrix(1 0 0 1 3285.36 1095)">130</text></g><g clip-path="url(#clip58)"><text fill="#595959" font-family="Calibri,Calibri_MSFontService,sans-serif" font-weight="400" font-size="41" transform="matrix(1 0 0 1 3359.65 1095)">133</text></g><g clip-path="url(#clip59)"><text fill="#595959" font-family="Calibri,Calibri_MSFontService,sans-serif" font-weight="400" font-size="41" transform="matrix(1 0 0 1 3433.94 1095)">136</text></g><g clip-path="url(#clip60)"><text fill="#595959" font-family="Calibri,Calibri_MSFontService,sans-serif" font-weight="400" font-size="41" transform="matrix(1 0 0 1 3508.23 1095)">139</text></g><g clip-path="url(#clip61)"><text fill="#595959" font-family="Calibri,Calibri_MSFontService,sans-serif" font-weight="400" font-size="41" transform="matrix(1 0 0 1 3582.52 1095)">142</text></g><g clip-path="url(#clip62)"><text fill="#595959" font-family="Calibri,Calibri_MSFontService,sans-serif" font-weight="400" font-size="41" transform="matrix(1 0 0 1 3656.81 1095)">145</text></g><g clip-path="url(#clip63)"><text fill="#595959" font-family="Calibri,Calibri_MSFontService,sans-serif" font-weight="400" font-size="41" transform="matrix(1 0 0 1 3731.1 1095)">148</text></g><g clip-path="url(#clip64)"><text fill="#595959" font-family="Calibri,Calibri_MSFontService,sans-serif" font-weight="400" font-size="41" transform="matrix(1 0 0 1 3805.39 1095)">151</text></g><g clip-path="url(#clip65)"><text fill="#595959" font-family="Calibri,Calibri_MSFontService,sans-serif" font-weight="400" font-size="41" transform="matrix(1 0 0 1 3879.68 1095)">154</text></g><g clip-path="url(#clip66)"><text fill="#595959" font-family="Calibri,Calibri_MSFontService,sans-serif" font-weight="400" font-size="41" transform="matrix(1 0 0 1 3953.97 1095)">157</text></g><g clip-path="url(#clip67)"><text fill="#595959" font-family="Calibri,Calibri_MSFontService,sans-serif" font-weight="400" font-size="41" transform="matrix(1 0 0 1 4028.26 1095)">160</text></g><g clip-path="url(#clip68)"><text fill="#595959" font-family="Calibri,Calibri_MSFontService,sans-serif" font-weight="400" font-size="41" transform="matrix(1 0 0 1 4102.55 1095)">163</text></g><g clip-path="url(#clip69)"><text fill="#595959" font-family="Calibri,Calibri_MSFontService,sans-serif" font-weight="400" font-size="41" transform="matrix(1 0 0 1 4176.84 1095)">166</text></g><g clip-path="url(#clip70)"><text fill="#595959" font-family="Calibri,Calibri_MSFontService,sans-serif" font-weight="400" font-size="41" transform="matrix(1 0 0 1 4251.13 1095)">169</text></g><g clip-path="url(#clip71)"><text fill="#595959" font-family="Calibri,Calibri_MSFontService,sans-serif" font-weight="400" font-size="41" transform="matrix(1 0 0 1 4325.42 1095)">172</text></g><g clip-path="url(#clip72)"><text fill="#595959" font-family="Calibri,Calibri_MSFontService,sans-serif" font-weight="400" font-size="41" transform="matrix(1 0 0 1 4399.71 1095)">175</text></g><g clip-path="url(#clip73)"><text fill="#595959" font-family="Calibri,Calibri_MSFontService,sans-serif" font-weight="400" font-size="41" transform="matrix(1 0 0 1 4474 1095)">178</text></g><g clip-path="url(#clip74)"><text fill="#595959" font-family="Calibri,Calibri_MSFontService,sans-serif" font-weight="400" font-size="41" transform="matrix(1 0 0 1 4548.29 1095)">181</text></g><g clip-path="url(#clip75)"><text fill="#595959" font-family="Calibri,Calibri_MSFontService,sans-serif" font-weight="400" font-size="41" transform="matrix(1 0 0 1 4622.58 1095)">184</text></g><g clip-path="url(#clip76)"><text fill="#595959" font-family="Calibri,Calibri_MSFontService,sans-serif" font-weight="400" font-size="41" transform="matrix(1 0 0 1 4696.88 1095)">187</text></g><g clip-path="url(#clip77)"><text fill="#595959" font-family="Calibri,Calibri_MSFontService,sans-serif" font-weight="400" font-size="41" transform="matrix(1 0 0 1 4771.17 1095)">190</text></g><g clip-path="url(#clip78)"><text fill="#595959" font-family="Calibri,Calibri_MSFontService,sans-serif" font-weight="400" font-size="41" transform="matrix(1 0 0 1 4845.46 1095)">193</text></g><g clip-path="url(#clip79)"><path d="M1749 1955 1837 1955" stroke="#4472C4" stroke-width="10.3125" stroke-linecap="round" stroke-linejoin="round" stroke-miterlimit="10" fill="none" fill-rule="evenodd"/></g><g clip-path="url(#clip80)"><text fill="#595959" font-family="Calibri,Calibri_MSFontService,sans-serif" font-weight="400" font-size="41" transform="matrix(1 0 0 1 1845.86 1967)">Real</text></g><g clip-path="url(#clip81)"><path d="M1984 1955 2072 1955" stroke="#ED7D31" stroke-width="10.3125" stroke-linecap="round" stroke-linejoin="round" stroke-miterlimit="10" fill="none" fill-rule="evenodd"/></g><g clip-path="url(#clip82)"><text fill="#595959" font-family="Calibri,Calibri_MSFontService,sans-serif" font-weight="400" font-size="41" transform="matrix(1 0 0 1 2081.51 1965)">32</text></g><g clip-path="url(#clip83)"><text fill="#595959" font-family="DengXian,DengXian_MSFontService,sans-serif" font-weight="400" font-size="41" transform="matrix(1 0 0 1 2123.31 1965)">名选手模型预测</text></g><g clip-path="url(#clip84)"><path d="M2478 1955 2566 1955" stroke="#A5A5A5" stroke-width="10.3125" stroke-linecap="round" stroke-linejoin="round" stroke-miterlimit="10" fill="none" fill-rule="evenodd"/></g><g clip-path="url(#clip85)"><text fill="#595959" font-family="DengXian,DengXian_MSFontService,sans-serif" font-weight="400" font-size="41" transform="matrix(1 0 0 1 2575.57 1965)">冠军模型预测</text></g><g clip-path="url(#clip86)"><path d="M2889 1955 2977 1955" stroke="#FFC000" stroke-width="10.3125" stroke-linecap="round" stroke-linejoin="round" stroke-miterlimit="10" fill="none" fill-rule="evenodd"/></g><g clip-path="url(#clip87)"><text fill="#595959" font-family="DengXian,DengXian_MSFontService,sans-serif" font-weight="400" font-size="41" transform="matrix(1 0 0 1 2986.57 1965)">亚军模型预测</text></g><rect x="8.5001" y="143.5" width="4950" height="1878" stroke="#D9D9D9" stroke-width="3.4375" stroke-linejoin="round" stroke-miterlimit="10" fill="none"/></g></svg>