<svg width="4087" height="1188" xmlns="http://www.w3.org/2000/svg" xmlns:xlink="http://www.w3.org/1999/xlink" overflow="hidden"><defs><clipPath id="clip0"><rect x="164" y="607" width="4087" height="1188"/></clipPath><clipPath id="clip1"><rect x="165" y="607" width="4083" height="1186"/></clipPath><clipPath id="clip2"><rect x="165" y="607" width="4083" height="1186"/></clipPath><clipPath id="clip3"><rect x="297" y="658" width="3904" height="983"/></clipPath><clipPath id="clip4"><rect x="297" y="658" width="3904" height="983"/></clipPath><clipPath id="clip5"><rect x="165" y="607" width="4083" height="1186"/></clipPath><clipPath id="clip6"><rect x="165" y="607" width="4083" height="1186"/></clipPath><clipPath id="clip7"><rect x="165" y="607" width="4083" height="1186"/></clipPath><clipPath id="clip8"><rect x="165" y="607" width="4083" height="1186"/></clipPath><clipPath id="clip9"><rect x="165" y="607" width="4083" height="1186"/></clipPath><clipPath id="clip10"><rect x="165" y="607" width="4083" height="1186"/></clipPath><clipPath id="clip11"><rect x="165" y="607" width="4083" height="1186"/></clipPath><clipPath id="clip12"><rect x="165" y="607" width="4083" height="1186"/></clipPath><clipPath id="clip13"><rect x="165" y="607" width="4083" height="1186"/></clipPath><clipPath id="clip14"><rect x="165" y="607" width="4083" height="1186"/></clipPath><clipPath id="clip15"><rect x="165" y="607" width="4083" height="1186"/></clipPath><clipPath id="clip16"><rect x="165" y="607" width="4083" height="1186"/></clipPath><clipPath id="clip17"><rect x="165" y="607" width="4083" height="1186"/></clipPath><clipPath id="clip18"><rect x="165" y="607" width="4083" height="1186"/></clipPath><clipPath id="clip19"><rect x="165" y="607" width="4083" height="1186"/></clipPath><clipPath id="clip20"><rect x="165" y="607" width="4083" height="1186"/></clipPath><clipPath id="clip21"><rect x="165" y="607" width="4083" height="1186"/></clipPath><clipPath id="clip22"><rect x="165" y="607" width="4083" height="1186"/></clipPath><clipPath id="clip23"><rect x="165" y="607" width="4083" height="1186"/></clipPath><clipPath id="clip24"><rect x="165" y="607" width="4083" height="1186"/></clipPath><clipPath id="clip25"><rect x="165" y="607" width="4083" height="1186"/></clipPath><clipPath id="clip26"><rect x="165" y="607" width="4083" height="1186"/></clipPath><clipPath id="clip27"><rect x="165" y="607" width="4083" height="1186"/></clipPath><clipPath id="clip28"><rect x="165" y="607" width="4083" height="1186"/></clipPath><clipPath id="clip29"><rect x="165" y="607" width="4083" height="1186"/></clipPath><clipPath id="clip30"><rect x="165" y="607" width="4083" height="1186"/></clipPath><clipPath id="clip31"><rect x="165" y="607" width="4083" height="1186"/></clipPath><clipPath id="clip32"><rect x="165" y="607" width="4083" height="1186"/></clipPath><clipPath id="clip33"><rect x="165" y="607" width="4083" height="1186"/></clipPath><clipPath id="clip34"><rect x="165" y="607" width="4083" height="1186"/></clipPath><clipPath id="clip35"><rect x="165" y="607" width="4083" height="1186"/></clipPath><clipPath id="clip36"><rect x="165" y="607" width="4083" height="1186"/></clipPath><clipPath id="clip37"><rect x="165" y="607" width="4083" height="1186"/></clipPath><clipPath id="clip38"><rect x="165" y="607" width="4083" height="1186"/></clipPath><clipPath id="clip39"><rect x="165" y="607" width="4083" height="1186"/></clipPath><clipPath id="clip40"><rect x="165" y="607" width="4083" height="1186"/></clipPath><clipPath id="clip41"><rect x="165" y="607" width="4083" height="1186"/></clipPath><clipPath id="clip42"><rect x="165" y="607" width="4083" height="1186"/></clipPath><clipPath id="clip43"><rect x="165" y="607" width="4083" height="1186"/></clipPath><clipPath id="clip44"><rect x="165" y="607" width="4083" height="1186"/></clipPath><clipPath id="clip45"><rect x="165" y="607" width="4083" height="1186"/></clipPath><clipPath id="clip46"><rect x="165" y="607" width="4083" height="1186"/></clipPath><clipPath id="clip47"><rect x="165" y="607" width="4083" height="1186"/></clipPath><clipPath id="clip48"><rect x="165" y="607" width="4083" height="1186"/></clipPath><clipPath id="clip49"><rect x="165" y="607" width="4083" height="1186"/></clipPath><clipPath id="clip50"><rect x="165" y="607" width="4083" height="1186"/></clipPath><clipPath id="clip51"><rect x="165" y="607" width="4083" height="1186"/></clipPath><clipPath id="clip52"><rect x="165" y="607" width="4083" height="1186"/></clipPath><clipPath id="clip53"><rect x="165" y="607" width="4083" height="1186"/></clipPath><clipPath id="clip54"><rect x="165" y="607" width="4083" height="1186"/></clipPath><clipPath id="clip55"><rect x="165" y="607" width="4083" height="1186"/></clipPath><clipPath id="clip56"><rect x="165" y="607" width="4083" height="1186"/></clipPath><clipPath id="clip57"><rect x="165" y="607" width="4083" height="1186"/></clipPath><clipPath id="clip58"><rect x="165" y="607" width="4083" height="1186"/></clipPath><clipPath id="clip59"><rect x="165" y="607" width="4083" height="1186"/></clipPath><clipPath id="clip60"><rect x="165" y="607" width="4083" height="1186"/></clipPath><clipPath id="clip61"><rect x="165" y="607" width="4083" height="1186"/></clipPath><clipPath id="clip62"><rect x="165" y="607" width="4083" height="1186"/></clipPath><clipPath id="clip63"><rect x="165" y="607" width="4083" height="1186"/></clipPath><clipPath id="clip64"><rect x="165" y="607" width="4083" height="1186"/></clipPath><clipPath id="clip65"><rect x="165" y="607" width="4083" height="1186"/></clipPath><clipPath id="clip66"><rect x="165" y="607" width="4083" height="1186"/></clipPath><clipPath id="clip67"><rect x="165" y="607" width="4083" height="1186"/></clipPath><clipPath id="clip68"><rect x="165" y="607" width="4083" height="1186"/></clipPath><clipPath id="clip69"><rect x="165" y="607" width="4083" height="1186"/></clipPath><clipPath id="clip70"><rect x="165" y="607" width="4083" height="1186"/></clipPath><clipPath id="clip71"><rect x="165" y="607" width="4083" height="1186"/></clipPath><clipPath id="clip72"><rect x="165" y="607" width="4083" height="1186"/></clipPath><clipPath id="clip73"><rect x="165" y="607" width="4083" height="1186"/></clipPath><clipPath id="clip74"><rect x="165" y="607" width="4083" height="1186"/></clipPath><clipPath id="clip75"><rect x="165" y="607" width="4083" height="1186"/></clipPath><clipPath id="clip76"><rect x="165" y="607" width="4083" height="1186"/></clipPath><clipPath id="clip77"><rect x="165" y="607" width="4083" height="1186"/></clipPath><clipPath id="clip78"><rect x="165" y="607" width="4083" height="1186"/></clipPath><clipPath id="clip79"><rect x="165" y="607" width="4083" height="1186"/></clipPath><clipPath id="clip80"><rect x="165" y="607" width="4083" height="1186"/></clipPath><clipPath id="clip81"><rect x="165" y="607" width="4083" height="1186"/></clipPath><clipPath id="clip82"><rect x="165" y="607" width="4083" height="1186"/></clipPath></defs><g clip-path="url(#clip0)" transform="translate(-164 -607)"><rect x="165" y="608" width="4084" height="1185" fill="#FFFFFF"/><g clip-path="url(#clip1)"><path d="M297.5 1637.5 4198.5 1637.5M297.5 1539.55 4198.5 1539.55M297.5 1441.55 4198.5 1441.55M297.5 1343.54 4198.5 1343.54M297.5 1147.54 4198.5 1147.54M297.5 1049.53 4198.5 1049.53M297.5 952.531 4198.5 952.531M297.5 854.528 4198.5 854.528M297.5 756.525 4198.5 756.525M297.5 658.5 4198.5 658.5" stroke="#D9D9D9" stroke-width="3.4375" stroke-linejoin="round" stroke-miterlimit="10" fill="none"/></g><g clip-path="url(#clip2)"><path d="M297.5 1245.5 4198.5 1245.5" stroke="#D9D9D9" stroke-width="3.4375" stroke-linejoin="round" stroke-miterlimit="10" fill="none" fill-rule="evenodd"/></g><g clip-path="url(#clip3)"><path d="M308 1207.04 329.011 1197.04 349.011 1099.04 370.012 1158.04 391.013 1050 411.013 1089.04 432.014 1099.04 453.015 1197.04 473.016 1138.04 494.016 1246 515.017 1207.04 535.018 1158.04 556.018 1050 576.019 1089.04 597.02 1138.04 618.02 1207.04 638.021 1158.04 659.022 1050 680.022 1089.04 700.023 1138.04 721.024 1246 742.024 1207.04 762.025 1197.04 783.026 1138.04 803.026 1246 824.027 1207.04 845.028 1197.04 865.028 1099.04 886.029 1158.04 907.03 1050 927.03 1050 948.031 1050 969.032 1089.04 989.032 1138.04 1010.03 1246 1030.03 1246 1051.03 1246 1072.04 1207.04 1092.04 1158.04 1113.04 1050 1134.04 1050 1154.04 1089.04 1175.04 1138.04 1196.04 1246 1216.04 1207.04 1237.04 1158.04 1257.04 1089.04 1278.04 1138.04 1299.04 1246 1319.04 1207.04 1340.04 1158.04 1361.04 1050 1381.05 1050 1402.05 1089.04 1423.05 1138.04 1443.05 1246 1464.05 1207.04 1484.05 1158.04 1505.05 1050 1526.05 1089.04 1546.05 1138.04 1567.05 1246 1588.05 1246 1608.05 1207.04 1629.05 1158.04 1650.05 1050 1670.05 1050 1691.06 1089.04 1711.06 1099.04 1732.06 1158.04 1753.06 1089.04 1773.06 1138.04 1794.06 1246 1815.06 1207.04 1835.06 1197.04 1856.06 1099.04 1877.06 1197.04 1897.06 1099.04 1918.06 1197.04 1938.06 1099.04 1959.06 1158.04 1980.06 1050 2000.07 1050 2021.07 1050 2042.07 1089.04 2062.07 1138.04 2083.07 1246 2104.07 1246 2124.07 1207.04 2145.07 1158.04 2165.07 1050 2186.07 1050 2207.07 1089.04 2227.07 1138.04 2248.07 1246 2269.07 1207.04 2289.08 1197.04 2310.08 1099.04 2331.08 1197.04 2351.08 1099.04 2372.08 1158.04 2392.08 1089.04 2413.08 1138.04 2434.08 1207.04 2454.08 1158.04 2475.08 1089.04 2496.08 1138.04 2516.08 1246 2537.08 1246 2558.08 1207.04 2578.08 1158.04 2599.09 1050 2619.09 1050 2640.09 1089.04 2661.09 1138.04 2681.09 1246 2702.09 1246 2723.09 1207.04 2743.09 1158.04 2764.09 1050 2785.09 1089.04 2805.09 1099.04 2826.09 1158.04 2846.09 1089.04 2867.09 1099.04 2888.09 1197.04 2908.1 1099.04 2929.1 1158.04 2950.1 1050 2970.1 1050 2991.1 1050 3012.1 1089.04 3032.1 1099.04 3053.1 1197.04 3074.1 1138.04 3094.1 1246 3115.1 1246 3135.1 1207.04 3156.1 1158.04 3177.1 1050 3197.1 1050 3218.11 1050 3239.11 1089.04 3259.11 1099.04 3280.11 1197.04 3301.11 1138.04 3321.11 1246 3342.11 1207.04 3362.11 1158.04 3383.11 1050 3404.11 1050 3424.11 1050 3445.11 1050 3466.11 1089.04 3486.11 1099.04 3507.11 1158.04 3528.12 1089.04 3548.12 1099.04 3569.12 1158.04 3589.12 1050 3610.12 1050 3631.12 1089.04 3651.12 1099.04 3672.12 1197.04 3693.12 1099.04 3713.12 1197.04 3734.12 1138.04 3755.12 1207.04 3775.12 1197.04 3796.12 1099.04 3816.13 1158.04 3837.13 1050 3858.13 1089.04 3878.13 1099.04 3899.13 1158.04 3920.13 1089.04 3940.13 1099.04 3961.13 1197.04 3982.13 1138.04 4002.13 1246 4023.13 1207.04 4043.13 1158.04 4064.13 1050 4085.13 1089.04 4105.13 1138.04 4126.14 1207.04 4147.14 1246 4167.14 1246 4188 1246" stroke="#4472C4" stroke-width="10.3125" stroke-linecap="round" stroke-linejoin="round" stroke-miterlimit="10" fill="none"/></g><g clip-path="url(#clip4)"><path d="M308 1148.04 329.011 1085.04 349.011 1040.03 370.012 1047.03 391.013 945.031 411.013 954.031 432.014 970.032 453.015 1022.03 473.016 973.032 494.016 1025.03 515.017 1009.03 535.018 1008.03 556.018 1002.03 576.019 1122.04 597.02 1264.04 618.02 1395.05 638.021 1356.04 659.022 1310.04 680.022 1337.04 700.023 1414.05 721.024 1449.05 742.024 1383.05 762.025 1295.04 783.026 1166.04 803.026 1153.04 824.027 1018.03 845.028 847.028 865.028 733.024 886.029 753.025 907.03 714.023 927.03 798.026 948.031 926.03 969.032 1097.04 989.032 1289.04 1010.03 1469.05 1030.03 1512 1051.03 1487.05 1072.04 1451.05 1092.04 1390.05 1113.04 1298.04 1134.04 1269.04 1154.04 1208.04 1175.04 1160.04 1196.04 1170.04 1216.04 1080.04 1237.04 1020.03 1257.04 920.03 1278.04 950.031 1299.04 999.033 1319.04 956.031 1340.04 928.03 1361.04 852.028 1381.05 928.03 1402.05 1077.04 1423.05 1233.04 1443.05 1379.05 1464.05 1430.05 1484.05 1389.05 1505.05 1311.04 1526.05 1344.04 1546.05 1353.04 1567.05 1333.04 1588.05 1202.04 1608.05 1006.03 1629.05 849.028 1650.05 713 1670.05 714.023 1691.06 757.025 1711.06 837.027 1732.06 953.031 1753.06 972.032 1773.06 1165.04 1794.06 1367.04 1815.06 1409.05 1835.06 1414.05 1856.06 1361.04 1877.06 1365.04 1897.06 1213.04 1918.06 1161.04 1938.06 963.032 1959.06 909.03 1980.06 788.026 2000.07 850.028 2021.07 970.032 2042.07 1122.04 2062.07 1282.04 2083.07 1363.04 2104.07 1267.04 2124.07 1191.04 2145.07 1087.04 2165.07 965.032 2186.07 932.031 2207.07 955.031 2227.07 1039.03 2248.07 1153.04 2269.07 1117.04 2289.08 1091.04 2310.08 1033.03 2331.08 1078.04 2351.08 990.032 2372.08 1005.03 2392.08 947.031 2413.08 1030.03 2434.08 1179.04 2454.08 1237.04 2475.08 1225.04 2496.08 1288.04 2516.08 1352.04 2537.08 1319.04 2558.08 1254.04 2578.08 1172.04 2599.09 1017.03 2619.09 970.032 2640.09 973.032 2661.09 1029.03 2681.09 1102.04 2702.09 1065.03 2723.09 1084.04 2743.09 1085.04 2764.09 1035.03 2785.09 1090.04 2805.09 1155.04 2826.09 1218.04 2846.09 1159.04 2867.09 1218.04 2888.09 1292.04 2908.1 1240.04 2929.1 1314.04 2950.1 1265.04 2970.1 1342.04 2991.1 1423.05 3012.1 1486.05 3032.1 1511.05 3053.1 1502.05 3074.1 1409.05 3094.1 1445.05 3115.1 1424.05 3135.1 1291.04 3156.1 1129.04 3177.1 968.032 3197.1 917.03 3218.11 908.03 3239.11 926.03 3259.11 1034.03 3280.11 1155.04 3301.11 1181.04 3321.11 1318.04 3342.11 1267.04 3362.11 1183.04 3383.11 1081.04 3404.11 1055.03 3424.11 1054.03 3445.11 1081.04 3466.11 1180.04 3486.11 1319.04 3507.11 1449.05 3528.12 1401.05 3548.12 1421.05 3569.12 1413.05 3589.12 1349.04 3610.12 1357.04 3631.12 1326.04 3651.12 1300.04 3672.12 1304.04 3693.12 1207.04 3713.12 1240.04 3734.12 1159.04 3755.12 1216.04 3775.12 1174.04 3796.12 1098.04 3816.13 1091.04 3837.13 1039.03 3858.13 1097.04 3878.13 1164.04 3899.13 1272.04 3920.13 1232.04 3940.13 1281.04 3961.13 1337.04 3982.13 1276.04 4002.13 1340.04 4023.13 1251.04 4043.13 1156.04 4064.13 1026.03 4085.13 1018.03 4105.13 1089.04 4126.14 1207.04 4147.14 1187.04 4167.14 1135.04 4188 1199.04" stroke="#ED7D31" stroke-width="10.3125" stroke-linecap="round" stroke-linejoin="round" stroke-miterlimit="10" fill="none"/></g><g clip-path="url(#clip5)"><text fill="#595959" font-family="Calibri,Calibri_MSFontService,sans-serif" font-weight="400" font-size="41" transform="matrix(1 0 0 1 226.096 1649)">-2</text></g><g clip-path="url(#clip6)"><text fill="#595959" font-family="Calibri,Calibri_MSFontService,sans-serif" font-weight="400" font-size="41" transform="matrix(1 0 0 1 194.792 1551)">-1.5</text></g><g clip-path="url(#clip7)"><text fill="#595959" font-family="Calibri,Calibri_MSFontService,sans-serif" font-weight="400" font-size="41" transform="matrix(1 0 0 1 226.096 1453)">-1</text></g><g clip-path="url(#clip8)"><text fill="#595959" font-family="Calibri,Calibri_MSFontService,sans-serif" font-weight="400" font-size="41" transform="matrix(1 0 0 1 194.792 1355)">-0.5</text></g><g clip-path="url(#clip9)"><text fill="#595959" font-family="Calibri,Calibri_MSFontService,sans-serif" font-weight="400" font-size="41" transform="matrix(1 0 0 1 238.723 1257)">0</text></g><g clip-path="url(#clip10)"><text fill="#595959" font-family="Calibri,Calibri_MSFontService,sans-serif" font-weight="400" font-size="41" transform="matrix(1 0 0 1 207.419 1160)">0.5</text></g><g clip-path="url(#clip11)"><text fill="#595959" font-family="Calibri,Calibri_MSFontService,sans-serif" font-weight="400" font-size="41" transform="matrix(1 0 0 1 238.723 1062)">1</text></g><g clip-path="url(#clip12)"><text fill="#595959" font-family="Calibri,Calibri_MSFontService,sans-serif" font-weight="400" font-size="41" transform="matrix(1 0 0 1 207.419 964)">1.5</text></g><g clip-path="url(#clip13)"><text fill="#595959" font-family="Calibri,Calibri_MSFontService,sans-serif" font-weight="400" font-size="41" transform="matrix(1 0 0 1 238.723 866)">2</text></g><g clip-path="url(#clip14)"><text fill="#595959" font-family="Calibri,Calibri_MSFontService,sans-serif" font-weight="400" font-size="41" transform="matrix(1 0 0 1 207.419 768)">2.5</text></g><g clip-path="url(#clip15)"><text fill="#595959" font-family="Calibri,Calibri_MSFontService,sans-serif" font-weight="400" font-size="41" transform="matrix(1 0 0 1 238.723 670)">3</text></g><g clip-path="url(#clip16)"><text fill="#595959" font-family="Calibri,Calibri_MSFontService,sans-serif" font-weight="400" font-size="41" transform="matrix(6.12323e-17 -1 1 6.12323e-17 322.035 1293)">1</text></g><g clip-path="url(#clip17)"><text fill="#595959" font-family="Calibri,Calibri_MSFontService,sans-serif" font-weight="400" font-size="41" transform="matrix(6.12323e-17 -1 1 6.12323e-17 383.947 1293)">4</text></g><g clip-path="url(#clip18)"><text fill="#595959" font-family="Calibri,Calibri_MSFontService,sans-serif" font-weight="400" font-size="41" transform="matrix(6.12323e-17 -1 1 6.12323e-17 445.858 1293)">7</text></g><g clip-path="url(#clip19)"><text fill="#595959" font-family="Calibri,Calibri_MSFontService,sans-serif" font-weight="400" font-size="41" transform="matrix(6.12323e-17 -1 1 6.12323e-17 507.77 1314)">10</text></g><g clip-path="url(#clip20)"><text fill="#595959" font-family="Calibri,Calibri_MSFontService,sans-serif" font-weight="400" font-size="41" transform="matrix(6.12323e-17 -1 1 6.12323e-17 569.682 1314)">13</text></g><g clip-path="url(#clip21)"><text fill="#595959" font-family="Calibri,Calibri_MSFontService,sans-serif" font-weight="400" font-size="41" transform="matrix(6.12323e-17 -1 1 6.12323e-17 631.594 1314)">16</text></g><g clip-path="url(#clip22)"><text fill="#595959" font-family="Calibri,Calibri_MSFontService,sans-serif" font-weight="400" font-size="41" transform="matrix(6.12323e-17 -1 1 6.12323e-17 693.506 1314)">19</text></g><g clip-path="url(#clip23)"><text fill="#595959" font-family="Calibri,Calibri_MSFontService,sans-serif" font-weight="400" font-size="41" transform="matrix(6.12323e-17 -1 1 6.12323e-17 755.417 1314)">22</text></g><g clip-path="url(#clip24)"><text fill="#595959" font-family="Calibri,Calibri_MSFontService,sans-serif" font-weight="400" font-size="41" transform="matrix(6.12323e-17 -1 1 6.12323e-17 817.329 1314)">25</text></g><g clip-path="url(#clip25)"><text fill="#595959" font-family="Calibri,Calibri_MSFontService,sans-serif" font-weight="400" font-size="41" transform="matrix(6.12323e-17 -1 1 6.12323e-17 879.241 1314)">28</text></g><g clip-path="url(#clip26)"><text fill="#595959" font-family="Calibri,Calibri_MSFontService,sans-serif" font-weight="400" font-size="41" transform="matrix(6.12323e-17 -1 1 6.12323e-17 941.153 1314)">31</text></g><g clip-path="url(#clip27)"><text fill="#595959" font-family="Calibri,Calibri_MSFontService,sans-serif" font-weight="400" font-size="41" transform="matrix(6.12323e-17 -1 1 6.12323e-17 1003.06 1314)">34</text></g><g clip-path="url(#clip28)"><text fill="#595959" font-family="Calibri,Calibri_MSFontService,sans-serif" font-weight="400" font-size="41" transform="matrix(6.12323e-17 -1 1 6.12323e-17 1064.98 1314)">37</text></g><g clip-path="url(#clip29)"><text fill="#595959" font-family="Calibri,Calibri_MSFontService,sans-serif" font-weight="400" font-size="41" transform="matrix(6.12323e-17 -1 1 6.12323e-17 1126.89 1314)">40</text></g><g clip-path="url(#clip30)"><text fill="#595959" font-family="Calibri,Calibri_MSFontService,sans-serif" font-weight="400" font-size="41" transform="matrix(6.12323e-17 -1 1 6.12323e-17 1188.8 1314)">43</text></g><g clip-path="url(#clip31)"><text fill="#595959" font-family="Calibri,Calibri_MSFontService,sans-serif" font-weight="400" font-size="41" transform="matrix(6.12323e-17 -1 1 6.12323e-17 1250.71 1314)">46</text></g><g clip-path="url(#clip32)"><text fill="#595959" font-family="Calibri,Calibri_MSFontService,sans-serif" font-weight="400" font-size="41" transform="matrix(6.12323e-17 -1 1 6.12323e-17 1312.62 1314)">49</text></g><g clip-path="url(#clip33)"><text fill="#595959" font-family="Calibri,Calibri_MSFontService,sans-serif" font-weight="400" font-size="41" transform="matrix(6.12323e-17 -1 1 6.12323e-17 1374.54 1314)">52</text></g><g clip-path="url(#clip34)"><text fill="#595959" font-family="Calibri,Calibri_MSFontService,sans-serif" font-weight="400" font-size="41" transform="matrix(6.12323e-17 -1 1 6.12323e-17 1436.45 1314)">55</text></g><g clip-path="url(#clip35)"><text fill="#595959" font-family="Calibri,Calibri_MSFontService,sans-serif" font-weight="400" font-size="41" transform="matrix(6.12323e-17 -1 1 6.12323e-17 1498.36 1314)">58</text></g><g clip-path="url(#clip36)"><text fill="#595959" font-family="Calibri,Calibri_MSFontService,sans-serif" font-weight="400" font-size="41" transform="matrix(6.12323e-17 -1 1 6.12323e-17 1560.27 1314)">61</text></g><g clip-path="url(#clip37)"><text fill="#595959" font-family="Calibri,Calibri_MSFontService,sans-serif" font-weight="400" font-size="41" transform="matrix(6.12323e-17 -1 1 6.12323e-17 1622.18 1314)">64</text></g><g clip-path="url(#clip38)"><text fill="#595959" font-family="Calibri,Calibri_MSFontService,sans-serif" font-weight="400" font-size="41" transform="matrix(6.12323e-17 -1 1 6.12323e-17 1684.09 1314)">67</text></g><g clip-path="url(#clip39)"><text fill="#595959" font-family="Calibri,Calibri_MSFontService,sans-serif" font-weight="400" font-size="41" transform="matrix(6.12323e-17 -1 1 6.12323e-17 1746.01 1314)">70</text></g><g clip-path="url(#clip40)"><text fill="#595959" font-family="Calibri,Calibri_MSFontService,sans-serif" font-weight="400" font-size="41" transform="matrix(6.12323e-17 -1 1 6.12323e-17 1807.92 1314)">73</text></g><g clip-path="url(#clip41)"><text fill="#595959" font-family="Calibri,Calibri_MSFontService,sans-serif" font-weight="400" font-size="41" transform="matrix(6.12323e-17 -1 1 6.12323e-17 1869.83 1314)">76</text></g><g clip-path="url(#clip42)"><text fill="#595959" font-family="Calibri,Calibri_MSFontService,sans-serif" font-weight="400" font-size="41" transform="matrix(6.12323e-17 -1 1 6.12323e-17 1931.74 1314)">79</text></g><g clip-path="url(#clip43)"><text fill="#595959" font-family="Calibri,Calibri_MSFontService,sans-serif" font-weight="400" font-size="41" transform="matrix(6.12323e-17 -1 1 6.12323e-17 1993.65 1314)">82</text></g><g clip-path="url(#clip44)"><text fill="#595959" font-family="Calibri,Calibri_MSFontService,sans-serif" font-weight="400" font-size="41" transform="matrix(6.12323e-17 -1 1 6.12323e-17 2055.56 1314)">85</text></g><g clip-path="url(#clip45)"><text fill="#595959" font-family="Calibri,Calibri_MSFontService,sans-serif" font-weight="400" font-size="41" transform="matrix(6.12323e-17 -1 1 6.12323e-17 2117.48 1314)">88</text></g><g clip-path="url(#clip46)"><text fill="#595959" font-family="Calibri,Calibri_MSFontService,sans-serif" font-weight="400" font-size="41" transform="matrix(6.12323e-17 -1 1 6.12323e-17 2179.39 1314)">91</text></g><g clip-path="url(#clip47)"><text fill="#595959" font-family="Calibri,Calibri_MSFontService,sans-serif" font-weight="400" font-size="41" transform="matrix(6.12323e-17 -1 1 6.12323e-17 2241.3 1314)">94</text></g><g clip-path="url(#clip48)"><text fill="#595959" font-family="Calibri,Calibri_MSFontService,sans-serif" font-weight="400" font-size="41" transform="matrix(6.12323e-17 -1 1 6.12323e-17 2303.21 1314)">97</text></g><g clip-path="url(#clip49)"><text fill="#595959" font-family="Calibri,Calibri_MSFontService,sans-serif" font-weight="400" font-size="41" transform="matrix(6.12323e-17 -1 1 6.12323e-17 2365.12 1335)">100</text></g><g clip-path="url(#clip50)"><text fill="#595959" font-family="Calibri,Calibri_MSFontService,sans-serif" font-weight="400" font-size="41" transform="matrix(6.12323e-17 -1 1 6.12323e-17 2427.04 1335)">103</text></g><g clip-path="url(#clip51)"><text fill="#595959" font-family="Calibri,Calibri_MSFontService,sans-serif" font-weight="400" font-size="41" transform="matrix(6.12323e-17 -1 1 6.12323e-17 2488.95 1335)">106</text></g><g clip-path="url(#clip52)"><text fill="#595959" font-family="Calibri,Calibri_MSFontService,sans-serif" font-weight="400" font-size="41" transform="matrix(6.12323e-17 -1 1 6.12323e-17 2550.86 1335)">109</text></g><g clip-path="url(#clip53)"><text fill="#595959" font-family="Calibri,Calibri_MSFontService,sans-serif" font-weight="400" font-size="41" transform="matrix(6.12323e-17 -1 1 6.12323e-17 2612.77 1335)">112</text></g><g clip-path="url(#clip54)"><text fill="#595959" font-family="Calibri,Calibri_MSFontService,sans-serif" font-weight="400" font-size="41" transform="matrix(6.12323e-17 -1 1 6.12323e-17 2674.68 1335)">115</text></g><g clip-path="url(#clip55)"><text fill="#595959" font-family="Calibri,Calibri_MSFontService,sans-serif" font-weight="400" font-size="41" transform="matrix(6.12323e-17 -1 1 6.12323e-17 2736.59 1335)">118</text></g><g clip-path="url(#clip56)"><text fill="#595959" font-family="Calibri,Calibri_MSFontService,sans-serif" font-weight="400" font-size="41" transform="matrix(6.12323e-17 -1 1 6.12323e-17 2798.51 1335)">121</text></g><g clip-path="url(#clip57)"><text fill="#595959" font-family="Calibri,Calibri_MSFontService,sans-serif" font-weight="400" font-size="41" transform="matrix(6.12323e-17 -1 1 6.12323e-17 2860.42 1335)">124</text></g><g clip-path="url(#clip58)"><text fill="#595959" font-family="Calibri,Calibri_MSFontService,sans-serif" font-weight="400" font-size="41" transform="matrix(6.12323e-17 -1 1 6.12323e-17 2922.33 1335)">127</text></g><g clip-path="url(#clip59)"><text fill="#595959" font-family="Calibri,Calibri_MSFontService,sans-serif" font-weight="400" font-size="41" transform="matrix(6.12323e-17 -1 1 6.12323e-17 2984.24 1335)">130</text></g><g clip-path="url(#clip60)"><text fill="#595959" font-family="Calibri,Calibri_MSFontService,sans-serif" font-weight="400" font-size="41" transform="matrix(6.12323e-17 -1 1 6.12323e-17 3046.15 1335)">133</text></g><g clip-path="url(#clip61)"><text fill="#595959" font-family="Calibri,Calibri_MSFontService,sans-serif" font-weight="400" font-size="41" transform="matrix(6.12323e-17 -1 1 6.12323e-17 3108.07 1335)">136</text></g><g clip-path="url(#clip62)"><text fill="#595959" font-family="Calibri,Calibri_MSFontService,sans-serif" font-weight="400" font-size="41" transform="matrix(6.12323e-17 -1 1 6.12323e-17 3169.98 1335)">139</text></g><g clip-path="url(#clip63)"><text fill="#595959" font-family="Calibri,Calibri_MSFontService,sans-serif" font-weight="400" font-size="41" transform="matrix(6.12323e-17 -1 1 6.12323e-17 3231.89 1335)">142</text></g><g clip-path="url(#clip64)"><text fill="#595959" font-family="Calibri,Calibri_MSFontService,sans-serif" font-weight="400" font-size="41" transform="matrix(6.12323e-17 -1 1 6.12323e-17 3293.8 1335)">145</text></g><g clip-path="url(#clip65)"><text fill="#595959" font-family="Calibri,Calibri_MSFontService,sans-serif" font-weight="400" font-size="41" transform="matrix(6.12323e-17 -1 1 6.12323e-17 3355.71 1335)">148</text></g><g clip-path="url(#clip66)"><text fill="#595959" font-family="Calibri,Calibri_MSFontService,sans-serif" font-weight="400" font-size="41" transform="matrix(6.12323e-17 -1 1 6.12323e-17 3417.62 1335)">151</text></g><g clip-path="url(#clip67)"><text fill="#595959" font-family="Calibri,Calibri_MSFontService,sans-serif" font-weight="400" font-size="41" transform="matrix(6.12323e-17 -1 1 6.12323e-17 3479.54 1335)">154</text></g><g clip-path="url(#clip68)"><text fill="#595959" font-family="Calibri,Calibri_MSFontService,sans-serif" font-weight="400" font-size="41" transform="matrix(6.12323e-17 -1 1 6.12323e-17 3541.45 1335)">157</text></g><g clip-path="url(#clip69)"><text fill="#595959" font-family="Calibri,Calibri_MSFontService,sans-serif" font-weight="400" font-size="41" transform="matrix(6.12323e-17 -1 1 6.12323e-17 3603.36 1335)">160</text></g><g clip-path="url(#clip70)"><text fill="#595959" font-family="Calibri,Calibri_MSFontService,sans-serif" font-weight="400" font-size="41" transform="matrix(6.12323e-17 -1 1 6.12323e-17 3665.27 1335)">163</text></g><g clip-path="url(#clip71)"><text fill="#595959" font-family="Calibri,Calibri_MSFontService,sans-serif" font-weight="400" font-size="41" transform="matrix(6.12323e-17 -1 1 6.12323e-17 3727.18 1335)">166</text></g><g clip-path="url(#clip72)"><text fill="#595959" font-family="Calibri,Calibri_MSFontService,sans-serif" font-weight="400" font-size="41" transform="matrix(6.12323e-17 -1 1 6.12323e-17 3789.1 1335)">169</text></g><g clip-path="url(#clip73)"><text fill="#595959" font-family="Calibri,Calibri_MSFontService,sans-serif" font-weight="400" font-size="41" transform="matrix(6.12323e-17 -1 1 6.12323e-17 3851.01 1335)">172</text></g><g clip-path="url(#clip74)"><text fill="#595959" font-family="Calibri,Calibri_MSFontService,sans-serif" font-weight="400" font-size="41" transform="matrix(6.12323e-17 -1 1 6.12323e-17 3912.92 1335)">175</text></g><g clip-path="url(#clip75)"><text fill="#595959" font-family="Calibri,Calibri_MSFontService,sans-serif" font-weight="400" font-size="41" transform="matrix(6.12323e-17 -1 1 6.12323e-17 3974.83 1335)">178</text></g><g clip-path="url(#clip76)"><text fill="#595959" font-family="Calibri,Calibri_MSFontService,sans-serif" font-weight="400" font-size="41" transform="matrix(6.12323e-17 -1 1 6.12323e-17 4036.74 1335)">181</text></g><g clip-path="url(#clip77)"><text fill="#595959" font-family="Calibri,Calibri_MSFontService,sans-serif" font-weight="400" font-size="41" transform="matrix(6.12323e-17 -1 1 6.12323e-17 4098.65 1335)">184</text></g><g clip-path="url(#clip78)"><text fill="#595959" font-family="Calibri,Calibri_MSFontService,sans-serif" font-weight="400" font-size="41" transform="matrix(6.12323e-17 -1 1 6.12323e-17 4160.57 1335)">187</text></g><g clip-path="url(#clip79)"><path d="M1974 1727 2062 1727" stroke="#4472C4" stroke-width="10.3125" stroke-linecap="round" stroke-linejoin="round" stroke-miterlimit="10" fill="none" fill-rule="evenodd"/></g><g clip-path="url(#clip80)"><text fill="#595959" font-family="Calibri,Calibri_MSFontService,sans-serif" font-weight="400" font-size="41" transform="matrix(1 0 0 1 2071.3 1738)">Real</text></g><g clip-path="url(#clip81)"><path d="M2187 1727 2275 1727" stroke="#ED7D31" stroke-width="10.3125" stroke-linecap="round" stroke-linejoin="round" stroke-miterlimit="10" fill="none" fill-rule="evenodd"/></g><g clip-path="url(#clip82)"><text fill="#595959" font-family="Calibri,Calibri_MSFontService,sans-serif" font-weight="400" font-size="41" transform="matrix(1 0 0 1 2284.35 1738)">Prediction</text></g><rect x="165.5" y="608.5" width="4084" height="1185" stroke="#D9D9D9" stroke-width="3.4375" stroke-linejoin="round" stroke-miterlimit="10" fill="none"/></g></svg>