<svg width="4153" height="1490" xmlns="http://www.w3.org/2000/svg" xmlns:xlink="http://www.w3.org/1999/xlink" overflow="hidden"><defs><clipPath id="clip0"><rect x="428" y="497" width="4153" height="1490"/></clipPath><clipPath id="clip1"><rect x="429" y="497" width="4149" height="1488"/></clipPath><clipPath id="clip2"><rect x="429" y="497" width="4149" height="1488"/></clipPath><clipPath id="clip3"><rect x="530" y="548" width="4001" height="1285"/></clipPath><clipPath id="clip4"><rect x="530" y="548" width="4001" height="1285"/></clipPath><clipPath id="clip5"><rect x="530" y="548" width="4001" height="1285"/></clipPath><clipPath id="clip6"><rect x="429" y="497" width="4149" height="1488"/></clipPath><clipPath id="clip7"><rect x="429" y="497" width="4149" height="1488"/></clipPath><clipPath id="clip8"><rect x="429" y="497" width="4149" height="1488"/></clipPath><clipPath id="clip9"><rect x="429" y="497" width="4149" height="1488"/></clipPath><clipPath id="clip10"><rect x="429" y="497" width="4149" height="1488"/></clipPath><clipPath id="clip11"><rect x="429" y="497" width="4149" height="1488"/></clipPath><clipPath id="clip12"><rect x="429" y="497" width="4149" height="1488"/></clipPath><clipPath id="clip13"><rect x="429" y="497" width="4149" height="1488"/></clipPath><clipPath id="clip14"><rect x="429" y="497" width="4149" height="1488"/></clipPath><clipPath id="clip15"><rect x="429" y="497" width="4149" height="1488"/></clipPath><clipPath id="clip16"><rect x="429" y="497" width="4149" height="1488"/></clipPath><clipPath id="clip17"><rect x="429" y="497" width="4149" height="1488"/></clipPath><clipPath id="clip18"><rect x="429" y="497" width="4149" height="1488"/></clipPath><clipPath id="clip19"><rect x="429" y="497" width="4149" height="1488"/></clipPath><clipPath id="clip20"><rect x="429" y="497" width="4149" height="1488"/></clipPath><clipPath id="clip21"><rect x="429" y="497" width="4149" height="1488"/></clipPath><clipPath id="clip22"><rect x="429" y="497" width="4149" height="1488"/></clipPath><clipPath id="clip23"><rect x="429" y="497" width="4149" height="1488"/></clipPath><clipPath id="clip24"><rect x="429" y="497" width="4149" height="1488"/></clipPath><clipPath id="clip25"><rect x="429" y="497" width="4149" height="1488"/></clipPath><clipPath id="clip26"><rect x="429" y="497" width="4149" height="1488"/></clipPath><clipPath id="clip27"><rect x="429" y="497" width="4149" height="1488"/></clipPath><clipPath id="clip28"><rect x="429" y="497" width="4149" height="1488"/></clipPath><clipPath id="clip29"><rect x="429" y="497" width="4149" height="1488"/></clipPath><clipPath id="clip30"><rect x="429" y="497" width="4149" height="1488"/></clipPath><clipPath id="clip31"><rect x="429" y="497" width="4149" height="1488"/></clipPath><clipPath id="clip32"><rect x="429" y="497" width="4149" height="1488"/></clipPath><clipPath id="clip33"><rect x="429" y="497" width="4149" height="1488"/></clipPath><clipPath id="clip34"><rect x="429" y="497" width="4149" height="1488"/></clipPath><clipPath id="clip35"><rect x="429" y="497" width="4149" height="1488"/></clipPath><clipPath id="clip36"><rect x="429" y="497" width="4149" height="1488"/></clipPath><clipPath id="clip37"><rect x="429" y="497" width="4149" height="1488"/></clipPath><clipPath id="clip38"><rect x="429" y="497" width="4149" height="1488"/></clipPath><clipPath id="clip39"><rect x="429" y="497" width="4149" height="1488"/></clipPath><clipPath id="clip40"><rect x="429" y="497" width="4149" height="1488"/></clipPath><clipPath id="clip41"><rect x="429" y="497" width="4149" height="1488"/></clipPath><clipPath id="clip42"><rect x="429" y="497" width="4149" height="1488"/></clipPath><clipPath id="clip43"><rect x="429" y="497" width="4149" height="1488"/></clipPath><clipPath id="clip44"><rect x="429" y="497" width="4149" height="1488"/></clipPath><clipPath id="clip45"><rect x="429" y="497" width="4149" height="1488"/></clipPath><clipPath id="clip46"><rect x="429" y="497" width="4149" height="1488"/></clipPath><clipPath id="clip47"><rect x="429" y="497" width="4149" height="1488"/></clipPath><clipPath id="clip48"><rect x="429" y="497" width="4149" height="1488"/></clipPath><clipPath id="clip49"><rect x="429" y="497" width="4149" height="1488"/></clipPath><clipPath id="clip50"><rect x="429" y="497" width="4149" height="1488"/></clipPath><clipPath id="clip51"><rect x="429" y="497" width="4149" height="1488"/></clipPath><clipPath id="clip52"><rect x="429" y="497" width="4149" height="1488"/></clipPath><clipPath id="clip53"><rect x="429" y="497" width="4149" height="1488"/></clipPath><clipPath id="clip54"><rect x="429" y="497" width="4149" height="1488"/></clipPath><clipPath id="clip55"><rect x="429" y="497" width="4149" height="1488"/></clipPath><clipPath id="clip56"><rect x="429" y="497" width="4149" height="1488"/></clipPath><clipPath id="clip57"><rect x="429" y="497" width="4149" height="1488"/></clipPath><clipPath id="clip58"><rect x="429" y="497" width="4149" height="1488"/></clipPath><clipPath id="clip59"><rect x="429" y="497" width="4149" height="1488"/></clipPath><clipPath id="clip60"><rect x="429" y="497" width="4149" height="1488"/></clipPath><clipPath id="clip61"><rect x="429" y="497" width="4149" height="1488"/></clipPath><clipPath id="clip62"><rect x="429" y="497" width="4149" height="1488"/></clipPath><clipPath id="clip63"><rect x="429" y="497" width="4149" height="1488"/></clipPath><clipPath id="clip64"><rect x="429" y="497" width="4149" height="1488"/></clipPath><clipPath id="clip65"><rect x="429" y="497" width="4149" height="1488"/></clipPath><clipPath id="clip66"><rect x="429" y="497" width="4149" height="1488"/></clipPath><clipPath id="clip67"><rect x="429" y="497" width="4149" height="1488"/></clipPath><clipPath id="clip68"><rect x="429" y="497" width="4149" height="1488"/></clipPath><clipPath id="clip69"><rect x="429" y="497" width="4149" height="1488"/></clipPath><clipPath id="clip70"><rect x="429" y="497" width="4149" height="1488"/></clipPath><clipPath id="clip71"><rect x="429" y="497" width="4149" height="1488"/></clipPath><clipPath id="clip72"><rect x="429" y="497" width="4149" height="1488"/></clipPath><clipPath id="clip73"><rect x="429" y="497" width="4149" height="1488"/></clipPath><clipPath id="clip74"><rect x="429" y="497" width="4149" height="1488"/></clipPath><clipPath id="clip75"><rect x="429" y="497" width="4149" height="1488"/></clipPath><clipPath id="clip76"><rect x="429" y="497" width="4149" height="1488"/></clipPath><clipPath id="clip77"><rect x="429" y="497" width="4149" height="1488"/></clipPath><clipPath id="clip78"><rect x="429" y="497" width="4149" height="1488"/></clipPath><clipPath id="clip79"><rect x="429" y="497" width="4149" height="1488"/></clipPath><clipPath id="clip80"><rect x="429" y="497" width="4149" height="1488"/></clipPath><clipPath id="clip81"><rect x="429" y="497" width="4149" height="1488"/></clipPath><clipPath id="clip82"><rect x="429" y="497" width="4149" height="1488"/></clipPath><clipPath id="clip83"><rect x="429" y="497" width="4149" height="1488"/></clipPath></defs><g clip-path="url(#clip0)" transform="translate(-428 -497)"><rect x="429" y="498" width="4150" height="1487" fill="#FFFFFF"/><g clip-path="url(#clip1)"><path d="M530.5 1830.5 4528.5 1830.5M530.5 1616.55 4528.5 1616.55M530.5 1402.55 4528.5 1402.55M530.5 975.532 4528.5 975.532M530.5 761.525 4528.5 761.525M530.5 548.5 4528.5 548.5" stroke="#D9D9D9" stroke-width="3.4375" stroke-linejoin="round" stroke-miterlimit="10" fill="none"/></g><g clip-path="url(#clip2)"><path d="M530.5 1189.5 4528.5 1189.5" stroke="#D9D9D9" stroke-width="3.4375" stroke-linejoin="round" stroke-miterlimit="10" fill="none" fill-rule="evenodd"/></g><g clip-path="url(#clip3)"><path d="M541 1189 562.018 1146.04 582.019 1093.04 603.02 1018.03 624.02 1072.04 644.021 1146.04 665.022 1093.04 686.023 1018.03 707.023 1072.04 727.024 1189 748.025 1189 769.025 1146.04 789.026 1093.04 810.027 976 831.027 1018.03 852.028 1029.03 872.029 1093.04 893.029 1018.03 914.03 1072.04 934.031 1146.04 955.031 1093.04 976.032 1018.03 997.033 1029.03 1017.03 1136.04 1038.03 1072.04 1059.03 1189 1079.04 1146.04 1100.04 1093.04 1121.04 1018.03 1142.04 1029.03 1162.04 1093.04 1183.04 976 1204.04 1018.03 1224.04 1072.04 1245.04 1189 1266.04 1189 1287.04 1146.04 1307.04 1093.04 1328.04 976 1349.04 976 1369.04 976 1390.05 976 1411.05 976 1432.05 1018.03 1452.05 1029.03 1473.05 1093.04 1494.05 976 1514.05 976 1535.05 976 1556.05 1018.03 1577.05 1029.03 1597.05 1136.04 1618.05 1072.04 1639.05 1146.04 1659.05 1136.04 1680.06 1072.04 1701.06 1189 1722.06 1146.04 1742.06 1093.04 1763.06 976 1784.06 976 1804.06 976 1825.06 976 1846.06 976 1867.06 976 1887.06 976 1908.06 976 1929.06 976 1949.06 976 1970.06 1018.03 1991.07 1029.03 2012.07 1136.04 2032.07 1072.04 2053.07 1189 2074.07 1189 2094.07 1189 2115.07 1189 2136.07 1146.04 2157.07 1093.04 2177.07 1018.03 2198.07 1072.04 2219.07 1146.04 2239.07 1136.04 2260.07 1072.04 2281.07 1189 2302.08 1189 2322.08 1146.04 2343.08 1136.04 2364.08 1072.04 2384.08 1189 2405.08 1189 2426.08 1189 2447.08 1189 2467.08 1189 2488.08 1146.04 2509.08 1136.04 2529.08 1029.03 2550.08 1093.04 2571.08 1018.03 2592.08 1029.03 2612.09 1093.04 2633.09 1018.03 2654.09 1029.03 2674.09 1136.04 2695.09 1029.03 2716.09 1136.04 2737.09 1072.04 2757.09 1189 2778.09 1146.04 2799.09 1093.04 2819.09 976 2840.09 976 2861.09 976 2881.09 1018.03 2902.1 1029.03 2923.1 1093.04 2944.1 1018.03 2964.1 1072.04 2985.1 1189 3006.1 1189 3026.1 1146.04 3047.1 1093.04 3068.1 976 3089.1 976 3109.1 1018.03 3130.1 1072.04 3151.1 1146.04 3171.1 1093.04 3192.1 976 3213.11 976 3234.11 976 3254.11 976 3275.11 976 3296.11 976 3316.11 1018.03 3337.11 1072.04 3358.11 1146.04 3379.11 1136.04 3399.11 1029.03 3420.11 1093.04 3441.11 976 3461.11 976 3482.11 976 3503.11 1018.03 3524.12 1029.03 3544.12 1136.04 3565.12 1072.04 3586.12 1146.04 3606.12 1093.04 3627.12 1018.03 3648.12 1029.03 3669.12 1093.04 3689.12 1018.03 3710.12 1029.03 3731.12 1093.04 3751.12 1018.03 3772.12 1072.04 3793.12 1189 3814.12 1146.04 3834.13 1136.04 3855.13 1029.03 3876.13 1093.04 3896.13 976 3917.13 976 3938.13 1018.03 3959.13 1072.04 3979.13 1189 4000.13 1189 4021.13 1146.04 4041.13 1136.04 4062.13 1029.03 4083.13 1093.04 4104.13 976 4124.14 976 4145.14 1018.03 4166.14 1029.03 4186.14 1136.04 4207.14 1029.03 4228.14 1093.04 4249.14 976 4269.14 976 4290.14 1018.03 4311.14 1029.03 4331.14 1093.04 4352.14 976 4373.14 976 4394.14 1018.03 4414.15 1072.04 4435.15 1146.04 4456.15 1093.04 4476.15 1189 4497.15 1189 4518 1189" stroke="#4472C4" stroke-width="10.3125" stroke-linecap="round" stroke-linejoin="round" stroke-miterlimit="10" fill="none"/></g><g clip-path="url(#clip4)"><path d="M541 1082.04 562.018 1125.04 582.019 1127.04 603.02 1053.03 624.02 1090.04 644.021 1170.04 665.022 1147.04 686.023 1112.04 707.023 1190.04 727.024 1270.04 748.025 1286.04 769.025 1244.04 789.026 1202.04 810.027 1139.04 831.027 1174.04 852.028 1229.04 872.029 1220.04 893.029 1076.04 914.03 1115.04 934.031 1195.04 955.031 1164.04 976.032 1114.04 997.033 1191.04 1017.03 1323.04 1038.03 1276.04 1059.03 1360.04 1079.04 1256.04 1100.04 1103.04 1121.04 866.028 1142.04 768.025 1162.04 755.025 1183.04 649 1204.04 702.023 1224.04 802.026 1245.04 891.029 1266.04 871.029 1287.04 856.028 1307.04 825.027 1328.04 731.024 1349.04 779.026 1369.04 856.028 1390.05 941.031 1411.05 1056.03 1432.05 1137.04 1452.05 1276.04 1473.05 1347.04 1494.05 1248.04 1514.05 1323.04 1535.05 1333.04 1556.05 1265.04 1577.05 1214.04 1597.05 1222.04 1618.05 1200.04 1639.05 1286.04 1659.05 1231.04 1680.06 1158.04 1701.06 1263.04 1722.06 1250.04 1742.06 1234.04 1763.06 1183.04 1784.06 1215.04 1804.06 1260.04 1825.06 1295.04 1846.06 1387.05 1867.06 1444.05 1887.06 1370.04 1908.06 1297.04 1929.06 1240.04 1949.06 1203.04 1970.06 1147.04 1991.07 1100.04 2012.07 1097.04 2032.07 1013.03 2053.07 1092.04 2074.07 1044.03 2094.07 1025.03 2115.07 974.032 2136.07 903.03 2157.07 821.027 2177.07 750.025 2198.07 827.027 2219.07 940.031 2239.07 959.031 2260.07 970.032 2281.07 1138.04 2302.08 1105.04 2322.08 1092.04 2343.08 1013.03 2364.08 921.03 2384.08 961.031 2405.08 893.029 2426.08 866.028 2447.08 794.026 2467.08 794.026 2488.08 797.026 2509.08 823.027 2529.08 769.025 2550.08 907.03 2571.08 875.029 2592.08 978.032 2612.09 1117.04 2633.09 1159.04 2654.09 1338.04 2674.09 1521.05 2695.09 1543.05 2716.09 1661.05 2737.09 1623.05 2757.09 1676 2778.09 1548.05 2799.09 1437.05 2819.09 1314.04 2840.09 1255.04 2861.09 1157.04 2881.09 1075.04 2902.1 1037.03 2923.1 1023.03 2944.1 925.03 2964.1 966.032 2985.1 1068.04 3006.1 1057.03 3026.1 1021.03 3047.1 957.031 3068.1 892.029 3089.1 995.033 3109.1 1138.04 3130.1 1264.04 3151.1 1351.04 3171.1 1350.04 3192.1 1237.04 3213.11 1237.04 3234.11 1231.04 3254.11 1179.04 3275.11 1053.03 3296.11 965.032 3316.11 872.029 3337.11 859.028 3358.11 934.031 3379.11 893.029 3399.11 889.029 3420.11 1015.03 3441.11 999.033 3461.11 1107.04 3482.11 1240.04 3503.11 1364.04 3524.12 1366.04 3544.12 1362.04 3565.12 1202.04 3586.12 1226.04 3606.12 1079.04 3627.12 899.029 3648.12 885.029 3669.12 912.03 3689.12 827.027 3710.12 880.029 3731.12 985.032 3751.12 922.03 3772.12 987.032 3793.12 1080.04 3814.12 1019.03 3834.13 960.031 3855.13 883.029 3876.13 909.03 3896.13 802.026 3917.13 829.027 3938.13 892.029 3959.13 991.032 3979.13 1120.04 4000.13 1125.04 4021.13 1095.04 4041.13 1033.03 4062.13 900.03 4083.13 854.028 4104.13 741.024 4124.14 798.026 4145.14 894.029 4166.14 1016.03 4186.14 1129.04 4207.14 1101.04 4228.14 1179.04 4249.14 1099.04 4269.14 1134.04 4290.14 1143.04 4311.14 1158.04 4331.14 1168.04 4352.14 991.032 4373.14 955.031 4394.14 994.033 4414.15 1049.03 4435.15 1152.04 4456.15 1139.04 4476.15 1123.04 4497.15 1244.04 4518 1303.04" stroke="#ED7D31" stroke-width="10.3125" stroke-linecap="round" stroke-linejoin="round" stroke-miterlimit="10" fill="none"/></g><g clip-path="url(#clip5)"><path d="M541 993.033 562.018 957.031 582.019 983.032 603.02 952.031 624.02 1091.04 644.021 1173.04 665.022 1136.04 686.023 1091.04 707.023 1186.04 727.024 1288.04 748.025 1238.04 769.025 1163.04 789.026 1074.04 810.027 961.031 831.027 1022.03 852.028 1069.04 872.029 1122.04 893.029 977.032 914.03 1027.03 934.031 1056.03 955.031 1023.03 976.032 1064.03 997.033 1201.04 1017.03 1336.04 1038.03 1325.04 1059.03 1391 1079.04 1280.04 1100.04 1091.04 1121.04 946.031 1142.04 958.031 1162.04 1028.03 1183.04 930.031 1204.04 939.031 1224.04 968.032 1245.04 1028.03 1266.04 1031.03 1287.04 992.033 1307.04 947.031 1328.04 895.029 1349.04 977.032 1369.04 1048.03 1390.05 1133.04 1411.05 1189.04 1432.05 1230.04 1452.05 1260.04 1473.05 1238.04 1494.05 1043.03 1514.05 915.03 1535.05 984.032 1556.05 1013.03 1577.05 1126.04 1597.05 1251.04 1618.05 1279.04 1639.05 1379.05 1659.05 1257.04 1680.06 1182.04 1701.06 1122.04 1722.06 982.032 1742.06 861.028 1763.06 847.028 1784.06 942.031 1804.06 1030.03 1825.06 1055.03 1846.06 1083.04 1867.06 1082.04 1887.06 1082.04 1908.06 1184.04 1929.06 1153.04 1949.06 1141.04 1970.06 1161.04 1991.07 1246.04 2012.07 1272.04 2032.07 1232.04 2053.07 1362.04 2074.07 1260.04 2094.07 1264.04 2115.07 1133.04 2136.07 974.032 2157.07 804.026 2177.07 699 2198.07 798.026 2219.07 881.029 2239.07 854.028 2260.07 928.03 2281.07 1013.03 2302.08 939.031 2322.08 866.028 2343.08 847.028 2364.08 876.029 2384.08 986.032 2405.08 959.031 2426.08 921.03 2447.08 906.03 2467.08 960.031 2488.08 926.03 2509.08 870.029 2529.08 851.028 2550.08 1127.04 2571.08 1112.04 2592.08 1201.04 2612.09 1255.04 2633.09 1193.04 2654.09 1229.04 2674.09 1165.04 2695.09 1024.03 2716.09 1103.04 2737.09 973.032 2757.09 1107.04 2778.09 1053.03 2799.09 1054.03 2819.09 1021.03 2840.09 1091.04 2861.09 1122.04 2881.09 1103.04 2902.1 1116.04 2923.1 1113.04 2944.1 1025.03 2964.1 1100.04 2985.1 1153.04 3006.1 1119.04 3026.1 1030.03 3047.1 961.031 3068.1 959.031 3089.1 1091.04 3109.1 1023.03 3130.1 1035.03 3151.1 1058.03 3171.1 913.03 3192.1 874.029 3213.11 986.032 3234.11 1096.04 3254.11 1140.04 3275.11 1172.04 3296.11 1144.04 3316.11 1165.04 3337.11 1200.04 3358.11 1264.04 3379.11 1097.04 3399.11 980.032 3420.11 1012.03 3441.11 921.03 3461.11 1018.03 3482.11 1124.04 3503.11 1250.04 3524.12 1340.04 3544.12 1180.04 3565.12 1062.03 3586.12 1107.04 3606.12 968.032 3627.12 894.029 3648.12 864.028 3669.12 900.03 3689.12 879.029 3710.12 976.032 3731.12 1101.04 3751.12 1096.04 3772.12 1186.04 3793.12 1221.04 3814.12 1090.04 3834.13 995.033 3855.13 925.03 3876.13 977.032 3896.13 894.029 3917.13 971.032 3938.13 1020.03 3959.13 1077.04 3979.13 1167.04 4000.13 1056.03 4021.13 1006.03 4041.13 932.031 4062.13 850.028 4083.13 925.03 4104.13 886.029 4124.14 965.032 4145.14 1001.03 4166.14 1076.04 4186.14 1143.04 4207.14 1145.04 4228.14 1202.04 4249.14 1125.04 4269.14 1158.04 4290.14 1101.04 4311.14 1013.03 4331.14 1049.03 4352.14 968.032 4373.14 1047.03 4394.14 1110.04 4414.15 1151.04 4435.15 1207.04 4456.15 1196.04 4476.15 1158.04 4497.15 1179.04 4518 1247.04" stroke="#A5A5A5" stroke-width="10.3125" stroke-linecap="round" stroke-linejoin="round" stroke-miterlimit="10" fill="none"/></g><g clip-path="url(#clip6)"><text fill="#595959" font-family="Calibri,Calibri_MSFontService,sans-serif" font-weight="400" font-size="41" transform="matrix(1 0 0 1 458.792 1842)">-3</text></g><g clip-path="url(#clip7)"><text fill="#595959" font-family="Calibri,Calibri_MSFontService,sans-serif" font-weight="400" font-size="41" transform="matrix(1 0 0 1 458.792 1628)">-2</text></g><g clip-path="url(#clip8)"><text fill="#595959" font-family="Calibri,Calibri_MSFontService,sans-serif" font-weight="400" font-size="41" transform="matrix(1 0 0 1 458.792 1414)">-1</text></g><g clip-path="url(#clip9)"><text fill="#595959" font-family="Calibri,Calibri_MSFontService,sans-serif" font-weight="400" font-size="41" transform="matrix(1 0 0 1 471.419 1201)">0</text></g><g clip-path="url(#clip10)"><text fill="#595959" font-family="Calibri,Calibri_MSFontService,sans-serif" font-weight="400" font-size="41" transform="matrix(1 0 0 1 471.419 987)">1</text></g><g clip-path="url(#clip11)"><text fill="#595959" font-family="Calibri,Calibri_MSFontService,sans-serif" font-weight="400" font-size="41" transform="matrix(1 0 0 1 471.419 773)">2</text></g><g clip-path="url(#clip12)"><text fill="#595959" font-family="Calibri,Calibri_MSFontService,sans-serif" font-weight="400" font-size="41" transform="matrix(1 0 0 1 471.419 560)">3</text></g><g clip-path="url(#clip13)"><text fill="#595959" font-family="Calibri,Calibri_MSFontService,sans-serif" font-weight="400" font-size="41" transform="matrix(6.12323e-17 -1 1 6.12323e-17 554.769 1236)">1</text></g><g clip-path="url(#clip14)"><text fill="#595959" font-family="Calibri,Calibri_MSFontService,sans-serif" font-weight="400" font-size="41" transform="matrix(6.12323e-17 -1 1 6.12323e-17 616.91 1236)">4</text></g><g clip-path="url(#clip15)"><text fill="#595959" font-family="Calibri,Calibri_MSFontService,sans-serif" font-weight="400" font-size="41" transform="matrix(6.12323e-17 -1 1 6.12323e-17 679.051 1236)">7</text></g><g clip-path="url(#clip16)"><text fill="#595959" font-family="Calibri,Calibri_MSFontService,sans-serif" font-weight="400" font-size="41" transform="matrix(6.12323e-17 -1 1 6.12323e-17 741.192 1257)">10</text></g><g clip-path="url(#clip17)"><text fill="#595959" font-family="Calibri,Calibri_MSFontService,sans-serif" font-weight="400" font-size="41" transform="matrix(6.12323e-17 -1 1 6.12323e-17 803.333 1257)">13</text></g><g clip-path="url(#clip18)"><text fill="#595959" font-family="Calibri,Calibri_MSFontService,sans-serif" font-weight="400" font-size="41" transform="matrix(6.12323e-17 -1 1 6.12323e-17 865.474 1257)">16</text></g><g clip-path="url(#clip19)"><text fill="#595959" font-family="Calibri,Calibri_MSFontService,sans-serif" font-weight="400" font-size="41" transform="matrix(6.12323e-17 -1 1 6.12323e-17 927.616 1257)">19</text></g><g clip-path="url(#clip20)"><text fill="#595959" font-family="Calibri,Calibri_MSFontService,sans-serif" font-weight="400" font-size="41" transform="matrix(6.12323e-17 -1 1 6.12323e-17 989.757 1257)">22</text></g><g clip-path="url(#clip21)"><text fill="#595959" font-family="Calibri,Calibri_MSFontService,sans-serif" font-weight="400" font-size="41" transform="matrix(6.12323e-17 -1 1 6.12323e-17 1051.9 1257)">25</text></g><g clip-path="url(#clip22)"><text fill="#595959" font-family="Calibri,Calibri_MSFontService,sans-serif" font-weight="400" font-size="41" transform="matrix(6.12323e-17 -1 1 6.12323e-17 1114.04 1257)">28</text></g><g clip-path="url(#clip23)"><text fill="#595959" font-family="Calibri,Calibri_MSFontService,sans-serif" font-weight="400" font-size="41" transform="matrix(6.12323e-17 -1 1 6.12323e-17 1176.18 1257)">31</text></g><g clip-path="url(#clip24)"><text fill="#595959" font-family="Calibri,Calibri_MSFontService,sans-serif" font-weight="400" font-size="41" transform="matrix(6.12323e-17 -1 1 6.12323e-17 1238.32 1257)">34</text></g><g clip-path="url(#clip25)"><text fill="#595959" font-family="Calibri,Calibri_MSFontService,sans-serif" font-weight="400" font-size="41" transform="matrix(6.12323e-17 -1 1 6.12323e-17 1300.46 1257)">37</text></g><g clip-path="url(#clip26)"><text fill="#595959" font-family="Calibri,Calibri_MSFontService,sans-serif" font-weight="400" font-size="41" transform="matrix(6.12323e-17 -1 1 6.12323e-17 1362.6 1257)">40</text></g><g clip-path="url(#clip27)"><text fill="#595959" font-family="Calibri,Calibri_MSFontService,sans-serif" font-weight="400" font-size="41" transform="matrix(6.12323e-17 -1 1 6.12323e-17 1424.74 1257)">43</text></g><g clip-path="url(#clip28)"><text fill="#595959" font-family="Calibri,Calibri_MSFontService,sans-serif" font-weight="400" font-size="41" transform="matrix(6.12323e-17 -1 1 6.12323e-17 1486.89 1257)">46</text></g><g clip-path="url(#clip29)"><text fill="#595959" font-family="Calibri,Calibri_MSFontService,sans-serif" font-weight="400" font-size="41" transform="matrix(6.12323e-17 -1 1 6.12323e-17 1549.03 1257)">49</text></g><g clip-path="url(#clip30)"><text fill="#595959" font-family="Calibri,Calibri_MSFontService,sans-serif" font-weight="400" font-size="41" transform="matrix(6.12323e-17 -1 1 6.12323e-17 1611.17 1257)">52</text></g><g clip-path="url(#clip31)"><text fill="#595959" font-family="Calibri,Calibri_MSFontService,sans-serif" font-weight="400" font-size="41" transform="matrix(6.12323e-17 -1 1 6.12323e-17 1673.31 1257)">55</text></g><g clip-path="url(#clip32)"><text fill="#595959" font-family="Calibri,Calibri_MSFontService,sans-serif" font-weight="400" font-size="41" transform="matrix(6.12323e-17 -1 1 6.12323e-17 1735.45 1257)">58</text></g><g clip-path="url(#clip33)"><text fill="#595959" font-family="Calibri,Calibri_MSFontService,sans-serif" font-weight="400" font-size="41" transform="matrix(6.12323e-17 -1 1 6.12323e-17 1797.59 1257)">61</text></g><g clip-path="url(#clip34)"><text fill="#595959" font-family="Calibri,Calibri_MSFontService,sans-serif" font-weight="400" font-size="41" transform="matrix(6.12323e-17 -1 1 6.12323e-17 1859.73 1257)">64</text></g><g clip-path="url(#clip35)"><text fill="#595959" font-family="Calibri,Calibri_MSFontService,sans-serif" font-weight="400" font-size="41" transform="matrix(6.12323e-17 -1 1 6.12323e-17 1921.87 1257)">67</text></g><g clip-path="url(#clip36)"><text fill="#595959" font-family="Calibri,Calibri_MSFontService,sans-serif" font-weight="400" font-size="41" transform="matrix(6.12323e-17 -1 1 6.12323e-17 1984.02 1257)">70</text></g><g clip-path="url(#clip37)"><text fill="#595959" font-family="Calibri,Calibri_MSFontService,sans-serif" font-weight="400" font-size="41" transform="matrix(6.12323e-17 -1 1 6.12323e-17 2046.16 1257)">73</text></g><g clip-path="url(#clip38)"><text fill="#595959" font-family="Calibri,Calibri_MSFontService,sans-serif" font-weight="400" font-size="41" transform="matrix(6.12323e-17 -1 1 6.12323e-17 2108.3 1257)">76</text></g><g clip-path="url(#clip39)"><text fill="#595959" font-family="Calibri,Calibri_MSFontService,sans-serif" font-weight="400" font-size="41" transform="matrix(6.12323e-17 -1 1 6.12323e-17 2170.44 1257)">79</text></g><g clip-path="url(#clip40)"><text fill="#595959" font-family="Calibri,Calibri_MSFontService,sans-serif" font-weight="400" font-size="41" transform="matrix(6.12323e-17 -1 1 6.12323e-17 2232.58 1257)">82</text></g><g clip-path="url(#clip41)"><text fill="#595959" font-family="Calibri,Calibri_MSFontService,sans-serif" font-weight="400" font-size="41" transform="matrix(6.12323e-17 -1 1 6.12323e-17 2294.72 1257)">85</text></g><g clip-path="url(#clip42)"><text fill="#595959" font-family="Calibri,Calibri_MSFontService,sans-serif" font-weight="400" font-size="41" transform="matrix(6.12323e-17 -1 1 6.12323e-17 2356.86 1257)">88</text></g><g clip-path="url(#clip43)"><text fill="#595959" font-family="Calibri,Calibri_MSFontService,sans-serif" font-weight="400" font-size="41" transform="matrix(6.12323e-17 -1 1 6.12323e-17 2419 1257)">91</text></g><g clip-path="url(#clip44)"><text fill="#595959" font-family="Calibri,Calibri_MSFontService,sans-serif" font-weight="400" font-size="41" transform="matrix(6.12323e-17 -1 1 6.12323e-17 2481.14 1257)">94</text></g><g clip-path="url(#clip45)"><text fill="#595959" font-family="Calibri,Calibri_MSFontService,sans-serif" font-weight="400" font-size="41" transform="matrix(6.12323e-17 -1 1 6.12323e-17 2543.29 1257)">97</text></g><g clip-path="url(#clip46)"><text fill="#595959" font-family="Calibri,Calibri_MSFontService,sans-serif" font-weight="400" font-size="41" transform="matrix(6.12323e-17 -1 1 6.12323e-17 2605.43 1278)">100</text></g><g clip-path="url(#clip47)"><text fill="#595959" font-family="Calibri,Calibri_MSFontService,sans-serif" font-weight="400" font-size="41" transform="matrix(6.12323e-17 -1 1 6.12323e-17 2667.57 1278)">103</text></g><g clip-path="url(#clip48)"><text fill="#595959" font-family="Calibri,Calibri_MSFontService,sans-serif" font-weight="400" font-size="41" transform="matrix(6.12323e-17 -1 1 6.12323e-17 2729.71 1278)">106</text></g><g clip-path="url(#clip49)"><text fill="#595959" font-family="Calibri,Calibri_MSFontService,sans-serif" font-weight="400" font-size="41" transform="matrix(6.12323e-17 -1 1 6.12323e-17 2791.85 1278)">109</text></g><g clip-path="url(#clip50)"><text fill="#595959" font-family="Calibri,Calibri_MSFontService,sans-serif" font-weight="400" font-size="41" transform="matrix(6.12323e-17 -1 1 6.12323e-17 2853.99 1278)">112</text></g><g clip-path="url(#clip51)"><text fill="#595959" font-family="Calibri,Calibri_MSFontService,sans-serif" font-weight="400" font-size="41" transform="matrix(6.12323e-17 -1 1 6.12323e-17 2916.13 1278)">115</text></g><g clip-path="url(#clip52)"><text fill="#595959" font-family="Calibri,Calibri_MSFontService,sans-serif" font-weight="400" font-size="41" transform="matrix(6.12323e-17 -1 1 6.12323e-17 2978.27 1278)">118</text></g><g clip-path="url(#clip53)"><text fill="#595959" font-family="Calibri,Calibri_MSFontService,sans-serif" font-weight="400" font-size="41" transform="matrix(6.12323e-17 -1 1 6.12323e-17 3040.41 1278)">121</text></g><g clip-path="url(#clip54)"><text fill="#595959" font-family="Calibri,Calibri_MSFontService,sans-serif" font-weight="400" font-size="41" transform="matrix(6.12323e-17 -1 1 6.12323e-17 3102.56 1278)">124</text></g><g clip-path="url(#clip55)"><text fill="#595959" font-family="Calibri,Calibri_MSFontService,sans-serif" font-weight="400" font-size="41" transform="matrix(6.12323e-17 -1 1 6.12323e-17 3164.7 1278)">127</text></g><g clip-path="url(#clip56)"><text fill="#595959" font-family="Calibri,Calibri_MSFontService,sans-serif" font-weight="400" font-size="41" transform="matrix(6.12323e-17 -1 1 6.12323e-17 3226.84 1278)">130</text></g><g clip-path="url(#clip57)"><text fill="#595959" font-family="Calibri,Calibri_MSFontService,sans-serif" font-weight="400" font-size="41" transform="matrix(6.12323e-17 -1 1 6.12323e-17 3288.98 1278)">133</text></g><g clip-path="url(#clip58)"><text fill="#595959" font-family="Calibri,Calibri_MSFontService,sans-serif" font-weight="400" font-size="41" transform="matrix(6.12323e-17 -1 1 6.12323e-17 3351.12 1278)">136</text></g><g clip-path="url(#clip59)"><text fill="#595959" font-family="Calibri,Calibri_MSFontService,sans-serif" font-weight="400" font-size="41" transform="matrix(6.12323e-17 -1 1 6.12323e-17 3413.26 1278)">139</text></g><g clip-path="url(#clip60)"><text fill="#595959" font-family="Calibri,Calibri_MSFontService,sans-serif" font-weight="400" font-size="41" transform="matrix(6.12323e-17 -1 1 6.12323e-17 3475.4 1278)">142</text></g><g clip-path="url(#clip61)"><text fill="#595959" font-family="Calibri,Calibri_MSFontService,sans-serif" font-weight="400" font-size="41" transform="matrix(6.12323e-17 -1 1 6.12323e-17 3537.54 1278)">145</text></g><g clip-path="url(#clip62)"><text fill="#595959" font-family="Calibri,Calibri_MSFontService,sans-serif" font-weight="400" font-size="41" transform="matrix(6.12323e-17 -1 1 6.12323e-17 3599.69 1278)">148</text></g><g clip-path="url(#clip63)"><text fill="#595959" font-family="Calibri,Calibri_MSFontService,sans-serif" font-weight="400" font-size="41" transform="matrix(6.12323e-17 -1 1 6.12323e-17 3661.83 1278)">151</text></g><g clip-path="url(#clip64)"><text fill="#595959" font-family="Calibri,Calibri_MSFontService,sans-serif" font-weight="400" font-size="41" transform="matrix(6.12323e-17 -1 1 6.12323e-17 3723.97 1278)">154</text></g><g clip-path="url(#clip65)"><text fill="#595959" font-family="Calibri,Calibri_MSFontService,sans-serif" font-weight="400" font-size="41" transform="matrix(6.12323e-17 -1 1 6.12323e-17 3786.11 1278)">157</text></g><g clip-path="url(#clip66)"><text fill="#595959" font-family="Calibri,Calibri_MSFontService,sans-serif" font-weight="400" font-size="41" transform="matrix(6.12323e-17 -1 1 6.12323e-17 3848.25 1278)">160</text></g><g clip-path="url(#clip67)"><text fill="#595959" font-family="Calibri,Calibri_MSFontService,sans-serif" font-weight="400" font-size="41" transform="matrix(6.12323e-17 -1 1 6.12323e-17 3910.39 1278)">163</text></g><g clip-path="url(#clip68)"><text fill="#595959" font-family="Calibri,Calibri_MSFontService,sans-serif" font-weight="400" font-size="41" transform="matrix(6.12323e-17 -1 1 6.12323e-17 3972.53 1278)">166</text></g><g clip-path="url(#clip69)"><text fill="#595959" font-family="Calibri,Calibri_MSFontService,sans-serif" font-weight="400" font-size="41" transform="matrix(6.12323e-17 -1 1 6.12323e-17 4034.67 1278)">169</text></g><g clip-path="url(#clip70)"><text fill="#595959" font-family="Calibri,Calibri_MSFontService,sans-serif" font-weight="400" font-size="41" transform="matrix(6.12323e-17 -1 1 6.12323e-17 4096.81 1278)">172</text></g><g clip-path="url(#clip71)"><text fill="#595959" font-family="Calibri,Calibri_MSFontService,sans-serif" font-weight="400" font-size="41" transform="matrix(6.12323e-17 -1 1 6.12323e-17 4158.96 1278)">175</text></g><g clip-path="url(#clip72)"><text fill="#595959" font-family="Calibri,Calibri_MSFontService,sans-serif" font-weight="400" font-size="41" transform="matrix(6.12323e-17 -1 1 6.12323e-17 4221.1 1278)">178</text></g><g clip-path="url(#clip73)"><text fill="#595959" font-family="Calibri,Calibri_MSFontService,sans-serif" font-weight="400" font-size="41" transform="matrix(6.12323e-17 -1 1 6.12323e-17 4283.24 1278)">181</text></g><g clip-path="url(#clip74)"><text fill="#595959" font-family="Calibri,Calibri_MSFontService,sans-serif" font-weight="400" font-size="41" transform="matrix(6.12323e-17 -1 1 6.12323e-17 4345.38 1278)">184</text></g><g clip-path="url(#clip75)"><text fill="#595959" font-family="Calibri,Calibri_MSFontService,sans-serif" font-weight="400" font-size="41" transform="matrix(6.12323e-17 -1 1 6.12323e-17 4407.52 1278)">187</text></g><g clip-path="url(#clip76)"><text fill="#595959" font-family="Calibri,Calibri_MSFontService,sans-serif" font-weight="400" font-size="41" transform="matrix(6.12323e-17 -1 1 6.12323e-17 4469.66 1278)">190</text></g><g clip-path="url(#clip77)"><text fill="#595959" font-family="Calibri,Calibri_MSFontService,sans-serif" font-weight="400" font-size="41" transform="matrix(6.12323e-17 -1 1 6.12323e-17 4531.8 1278)">193</text></g><g clip-path="url(#clip78)"><path d="M2029 1919 2117 1919" stroke="#4472C4" stroke-width="10.3125" stroke-linecap="round" stroke-linejoin="round" stroke-miterlimit="10" fill="none" fill-rule="evenodd"/></g><g clip-path="url(#clip79)"><text fill="#595959" font-family="Calibri,Calibri_MSFontService,sans-serif" font-weight="400" font-size="41" transform="matrix(1 0 0 1 2126.44 1931)">Real</text></g><g clip-path="url(#clip80)"><path d="M2256 1919 2344 1919" stroke="#ED7D31" stroke-width="10.3125" stroke-linecap="round" stroke-linejoin="round" stroke-miterlimit="10" fill="none" fill-rule="evenodd"/></g><g clip-path="url(#clip81)"><text fill="#595959" font-family="Calibri,Calibri_MSFontService,sans-serif" font-weight="400" font-size="41" transform="matrix(1 0 0 1 2353.05 1931)">Pre_everyone</text></g><g clip-path="url(#clip82)"><path d="M2644 1919 2732 1919" stroke="#A5A5A5" stroke-width="10.3125" stroke-linecap="round" stroke-linejoin="round" stroke-miterlimit="10" fill="none" fill-rule="evenodd"/></g><g clip-path="url(#clip83)"><text fill="#595959" font-family="Calibri,Calibri_MSFontService,sans-serif" font-weight="400" font-size="41" transform="matrix(1 0 0 1 2741.01 1931)">Pre_onlyone_2</text></g><rect x="429.5" y="498.5" width="4150" height="1487" stroke="#D9D9D9" stroke-width="3.4375" stroke-linejoin="round" stroke-miterlimit="10" fill="none"/></g></svg>