<svg width="4878" height="1433" xmlns="http://www.w3.org/2000/svg" xmlns:xlink="http://www.w3.org/1999/xlink" overflow="hidden"><defs><clipPath id="clip0"><rect x="90" y="607" width="4878" height="1433"/></clipPath><clipPath id="clip1"><rect x="90" y="607" width="4876" height="1430"/></clipPath><clipPath id="clip2"><rect x="90" y="607" width="4876" height="1430"/></clipPath><clipPath id="clip3"><rect x="223" y="658" width="4696" height="1227"/></clipPath><clipPath id="clip4"><rect x="223" y="658" width="4696" height="1227"/></clipPath><clipPath id="clip5"><rect x="90" y="607" width="4876" height="1430"/></clipPath><clipPath id="clip6"><rect x="90" y="607" width="4876" height="1430"/></clipPath><clipPath id="clip7"><rect x="90" y="607" width="4876" height="1430"/></clipPath><clipPath id="clip8"><rect x="90" y="607" width="4876" height="1430"/></clipPath><clipPath id="clip9"><rect x="90" y="607" width="4876" height="1430"/></clipPath><clipPath id="clip10"><rect x="90" y="607" width="4876" height="1430"/></clipPath><clipPath id="clip11"><rect x="90" y="607" width="4876" height="1430"/></clipPath><clipPath id="clip12"><rect x="90" y="607" width="4876" height="1430"/></clipPath><clipPath id="clip13"><rect x="90" y="607" width="4876" height="1430"/></clipPath><clipPath id="clip14"><rect x="90" y="607" width="4876" height="1430"/></clipPath><clipPath id="clip15"><rect x="90" y="607" width="4876" height="1430"/></clipPath><clipPath id="clip16"><rect x="90" y="607" width="4876" height="1430"/></clipPath><clipPath id="clip17"><rect x="90" y="607" width="4876" height="1430"/></clipPath><clipPath id="clip18"><rect x="90" y="607" width="4876" height="1430"/></clipPath><clipPath id="clip19"><rect x="90" y="607" width="4876" height="1430"/></clipPath><clipPath id="clip20"><rect x="90" y="607" width="4876" height="1430"/></clipPath><clipPath id="clip21"><rect x="90" y="607" width="4876" height="1430"/></clipPath><clipPath id="clip22"><rect x="90" y="607" width="4876" height="1430"/></clipPath><clipPath id="clip23"><rect x="90" y="607" width="4876" height="1430"/></clipPath><clipPath id="clip24"><rect x="90" y="607" width="4876" height="1430"/></clipPath><clipPath id="clip25"><rect x="90" y="607" width="4876" height="1430"/></clipPath><clipPath id="clip26"><rect x="90" y="607" width="4876" height="1430"/></clipPath><clipPath id="clip27"><rect x="90" y="607" width="4876" height="1430"/></clipPath><clipPath id="clip28"><rect x="90" y="607" width="4876" height="1430"/></clipPath><clipPath id="clip29"><rect x="90" y="607" width="4876" height="1430"/></clipPath><clipPath id="clip30"><rect x="90" y="607" width="4876" height="1430"/></clipPath><clipPath id="clip31"><rect x="90" y="607" width="4876" height="1430"/></clipPath><clipPath id="clip32"><rect x="90" y="607" width="4876" height="1430"/></clipPath><clipPath id="clip33"><rect x="90" y="607" width="4876" height="1430"/></clipPath><clipPath id="clip34"><rect x="90" y="607" width="4876" height="1430"/></clipPath><clipPath id="clip35"><rect x="90" y="607" width="4876" height="1430"/></clipPath><clipPath id="clip36"><rect x="90" y="607" width="4876" height="1430"/></clipPath><clipPath id="clip37"><rect x="90" y="607" width="4876" height="1430"/></clipPath><clipPath id="clip38"><rect x="90" y="607" width="4876" height="1430"/></clipPath><clipPath id="clip39"><rect x="90" y="607" width="4876" height="1430"/></clipPath><clipPath id="clip40"><rect x="90" y="607" width="4876" height="1430"/></clipPath><clipPath id="clip41"><rect x="90" y="607" width="4876" height="1430"/></clipPath><clipPath id="clip42"><rect x="90" y="607" width="4876" height="1430"/></clipPath><clipPath id="clip43"><rect x="90" y="607" width="4876" height="1430"/></clipPath><clipPath id="clip44"><rect x="90" y="607" width="4876" height="1430"/></clipPath><clipPath id="clip45"><rect x="90" y="607" width="4876" height="1430"/></clipPath><clipPath id="clip46"><rect x="90" y="607" width="4876" height="1430"/></clipPath><clipPath id="clip47"><rect x="90" y="607" width="4876" height="1430"/></clipPath><clipPath id="clip48"><rect x="90" y="607" width="4876" height="1430"/></clipPath><clipPath id="clip49"><rect x="90" y="607" width="4876" height="1430"/></clipPath><clipPath id="clip50"><rect x="90" y="607" width="4876" height="1430"/></clipPath><clipPath id="clip51"><rect x="90" y="607" width="4876" height="1430"/></clipPath><clipPath id="clip52"><rect x="90" y="607" width="4876" height="1430"/></clipPath><clipPath id="clip53"><rect x="90" y="607" width="4876" height="1430"/></clipPath><clipPath id="clip54"><rect x="90" y="607" width="4876" height="1430"/></clipPath><clipPath id="clip55"><rect x="90" y="607" width="4876" height="1430"/></clipPath><clipPath id="clip56"><rect x="90" y="607" width="4876" height="1430"/></clipPath><clipPath id="clip57"><rect x="90" y="607" width="4876" height="1430"/></clipPath><clipPath id="clip58"><rect x="90" y="607" width="4876" height="1430"/></clipPath><clipPath id="clip59"><rect x="90" y="607" width="4876" height="1430"/></clipPath><clipPath id="clip60"><rect x="90" y="607" width="4876" height="1430"/></clipPath><clipPath id="clip61"><rect x="90" y="607" width="4876" height="1430"/></clipPath><clipPath id="clip62"><rect x="90" y="607" width="4876" height="1430"/></clipPath><clipPath id="clip63"><rect x="90" y="607" width="4876" height="1430"/></clipPath><clipPath id="clip64"><rect x="90" y="607" width="4876" height="1430"/></clipPath><clipPath id="clip65"><rect x="90" y="607" width="4876" height="1430"/></clipPath><clipPath id="clip66"><rect x="90" y="607" width="4876" height="1430"/></clipPath><clipPath id="clip67"><rect x="90" y="607" width="4876" height="1430"/></clipPath><clipPath id="clip68"><rect x="90" y="607" width="4876" height="1430"/></clipPath><clipPath id="clip69"><rect x="90" y="607" width="4876" height="1430"/></clipPath><clipPath id="clip70"><rect x="90" y="607" width="4876" height="1430"/></clipPath><clipPath id="clip71"><rect x="90" y="607" width="4876" height="1430"/></clipPath><clipPath id="clip72"><rect x="90" y="607" width="4876" height="1430"/></clipPath><clipPath id="clip73"><rect x="90" y="607" width="4876" height="1430"/></clipPath><clipPath id="clip74"><rect x="90" y="607" width="4876" height="1430"/></clipPath><clipPath id="clip75"><rect x="90" y="607" width="4876" height="1430"/></clipPath><clipPath id="clip76"><rect x="90" y="607" width="4876" height="1430"/></clipPath><clipPath id="clip77"><rect x="90" y="607" width="4876" height="1430"/></clipPath><clipPath id="clip78"><rect x="90" y="607" width="4876" height="1430"/></clipPath><clipPath id="clip79"><rect x="90" y="607" width="4876" height="1430"/></clipPath><clipPath id="clip80"><rect x="90" y="607" width="4876" height="1430"/></clipPath><clipPath id="clip81"><rect x="90" y="607" width="4876" height="1430"/></clipPath><clipPath id="clip82"><rect x="90" y="607" width="4876" height="1430"/></clipPath><clipPath id="clip83"><rect x="90" y="607" width="4876" height="1430"/></clipPath><clipPath id="clip84"><rect x="90" y="607" width="4876" height="1430"/></clipPath><clipPath id="clip85"><rect x="90" y="607" width="4876" height="1430"/></clipPath><clipPath id="clip86"><rect x="90" y="607" width="4876" height="1430"/></clipPath><clipPath id="clip87"><rect x="90" y="607" width="4876" height="1430"/></clipPath><clipPath id="clip88"><rect x="90" y="607" width="4876" height="1430"/></clipPath><clipPath id="clip89"><rect x="90" y="607" width="4876" height="1430"/></clipPath><clipPath id="clip90"><rect x="90" y="607" width="4876" height="1430"/></clipPath><clipPath id="clip91"><rect x="90" y="607" width="4876" height="1430"/></clipPath><clipPath id="clip92"><rect x="90" y="607" width="4876" height="1430"/></clipPath><clipPath id="clip93"><rect x="90" y="607" width="4876" height="1430"/></clipPath><clipPath id="clip94"><rect x="90" y="607" width="4876" height="1430"/></clipPath><clipPath id="clip95"><rect x="90" y="607" width="4876" height="1430"/></clipPath><clipPath id="clip96"><rect x="90" y="607" width="4876" height="1430"/></clipPath><clipPath id="clip97"><rect x="90" y="607" width="4876" height="1430"/></clipPath><clipPath id="clip98"><rect x="90" y="607" width="4876" height="1430"/></clipPath><clipPath id="clip99"><rect x="90" y="607" width="4876" height="1430"/></clipPath><clipPath id="clip100"><rect x="90" y="607" width="4876" height="1430"/></clipPath><clipPath id="clip101"><rect x="90" y="607" width="4876" height="1430"/></clipPath></defs><g clip-path="url(#clip0)" transform="translate(-90 -607)"><rect x="91.0001" y="608" width="4875" height="1430" fill="#FFFFFF"/><g clip-path="url(#clip1)"><path d="M223.5 1882.5 4916.5 1882.5M223.5 1729.56 4916.5 1729.56M223.5 1576.55 4916.5 1576.55M223.5 1423.55 4916.5 1423.55M223.5 1117.54 4916.5 1117.54M223.5 964.532 4916.5 964.532M223.5 811.527 4916.5 811.527M223.5 658.5 4916.5 658.5" stroke="#D9D9D9" stroke-width="3.4375" stroke-linejoin="round" stroke-miterlimit="10" fill="none"/></g><g clip-path="url(#clip2)"><path d="M223.5 1270.5 4916.5 1270.5" stroke="#D9D9D9" stroke-width="3.4375" stroke-linejoin="round" stroke-miterlimit="10" fill="none" fill-rule="evenodd"/></g><g clip-path="url(#clip3)"><path d="M231 1270 245.008 1025.03 259.008 1041.03 273.009 1194.04 287.009 1102.04 301.01 1209.04 315.01 1194.04 329.011 1102.04 343.011 1270 357.012 1270 371.012 1270 385.013 1209.04 399.013 1133.04 413.014 1025.03 427.014 1102.04 441.014 1209.04 455.015 1133.04 469.015 1025.03 483.016 1102.04 497.016 1270 511.017 1270 525.017 1209.04 539.018 1194.04 553.018 1102.04 567.019 1209.04 581.019 1133.04 595.02 1025.03 609.02 1102.04 623.02 1270 637.021 1270 651.021 1209.04 665.022 1194.04 679.022 1102.04 693.023 1209.04 707.023 1133.04 721.024 1025.03 735.024 1102.04 749.025 1209.04 763.025 1133.04 777.026 1025.03 791.026 1102.04 805.026 1270 819.027 1270 833.027 1209.04 847.028 1194.04 861.028 1041.03 875.029 1133.04 889.029 964 903.03 964 917.03 964 931.031 1025.03 945.031 1102.04 959.031 1270 973.032 1209.04 987.032 1133.04 1001.03 1025.03 1015.03 1041.03 1029.03 1133.04 1043.03 1025.03 1057.03 1041.03 1071.04 1133.04 1085.04 1025.03 1099.04 1041.03 1113.04 1194.04 1127.04 1102.04 1141.04 1270 1155.04 1209.04 1169.04 1133.04 1183.04 1025.03 1197.04 1102.04 1211.04 1209.04 1225.04 1194.04 1239.04 1102.04 1253.04 1270 1267.04 1270 1281.04 1209.04 1295.04 1133.04 1309.04 964 1323.04 1025.03 1337.04 1102.04 1351.04 1209.04 1365.04 1194.04 1379.05 1041.03 1393.05 1133.04 1407.05 964 1421.05 964 1435.05 1025.03 1449.05 1102.04 1463.05 1270 1477.05 1270 1491.05 1209.04 1505.05 1133.04 1519.05 964 1533.05 964 1547.05 1025.03 1561.05 1041.03 1575.05 1194.04 1589.05 1102.04 1603.05 1270 1617.05 1270 1631.05 1209.04 1645.05 1133.04 1659.05 964 1673.05 964 1687.06 964 1701.06 1025.03 1715.06 1102.04 1729.06 1209.04 1743.06 1194.04 1757.06 1041.03 1771.06 1194.04 1785.06 1102.04 1799.06 1270 1813.06 1209.04 1827.06 1133.04 1841.06 964 1855.06 964 1869.06 1025.03 1883.06 1041.03 1897.06 1194.04 1911.06 1041.03 1925.06 1194.04 1939.06 1102.04 1953.06 1270 1967.06 1270 1981.06 1270 1995.07 1209.04 2010.07 1133.04 2024.07 964 2038.07 1025.03 2052.07 1041.03 2066.07 1133.04 2080.07 1025.03 2094.07 1102.04 2108.07 1209.04 2122.07 1133.04 2136.07 964 2150.07 964 2164.07 1025.03 2178.07 1102.04 2192.07 1209.04 2206.07 1133.04 2220.07 1025.03 2234.07 1041.03 2248.07 1133.04 2262.07 1025.03 2276.07 1041.03 2290.08 1133.04 2304.08 964 2318.08 1025.03 2332.08 1041.03 2346.08 1194.04 2360.08 1041.03 2374.08 1133.04 2388.08 1025.03 2402.08 1102.04 2416.08 1270 2430.08 1209.04 2444.08 1194.04 2458.08 1102.04 2472.08 1270 2486.08 1209.04 2500.08 1133.04 2514.08 964 2528.08 964 2542.08 964 2556.08 1025.03 2570.08 1102.04 2584.08 1270 2598.09 1209.04 2612.09 1133.04 2626.09 1025.03 2640.09 1041.03 2654.09 1194.04 2668.09 1041.03 2682.09 1133.04 2696.09 1025.03 2710.09 1102.04 2724.09 1209.04 2738.09 1133.04 2752.09 1025.03 2766.09 1102.04 2780.09 1209.04 2794.09 1133.04 2808.09 1025.03 2822.09 1102.04 2836.09 1209.04 2850.09 1133.04 2864.09 1025.03 2878.09 1041.03 2892.09 1194.04 2906.1 1041.03 2920.1 1194.04 2934.1 1102.04 2948.1 1209.04 2962.1 1133.04 2976.1 964 2990.1 964 3004.1 964 3018.1 964 3032.1 1025.03 3046.1 1041.03 3060.1 1133.04 3074.1 964 3088.1 964 3102.1 1025.03 3116.1 1041.03 3130.1 1194.04 3144.1 1102.04 3158.1 1209.04 3172.1 1133.04 3186.1 964 3200.1 964 3214.11 964 3228.11 964 3242.11 1025.03 3256.11 1041.03 3270.11 1194.04 3284.11 1102.04 3298.11 1270 3312.11 1270 3326.11 1209.04 3340.11 1194.04 3354.11 1041.03 3368.11 1133.04 3382.11 1025.03 3396.11 1102.04 3410.11 1209.04 3424.11 1194.04 3438.11 1041.03 3452.11 1194.04 3466.11 1041.03 3480.11 1133.04 3494.11 1025.03 3508.11 1102.04 3522.12 1209.04 3536.12 1133.04 3550.12 1025.03 3564.12 1041.03 3578.12 1194.04 3592.12 1102.04 3606.12 1209.04 3620.12 1194.04 3634.12 1041.03 3648.12 1194.04 3662.12 1102.04 3676.12 1209.04 3690.12 1194.04 3704.12 1041.03 3718.12 1194.04 3732.12 1102.04 3746.12 1270 3760.12 1209.04 3774.12 1194.04 3788.12 1102.04 3802.12 1209.04 3816.13 1194.04 3830.13 1041.03 3844.13 1194.04 3858.13 1041.03 3872.13 1133.04 3886.13 964 3900.13 1025.03 3914.13 1102.04 3928.13 1270 3942.13 1270 3956.13 1270 3970.13 1270 3984.13 1270 3998.13 1209.04 4012.13 1194.04 4026.13 1102.04 4040.13 1270 4055.13 1209.04 4069.13 1133.04 4083.13 964 4097.13 1025.03 4111.13 1102.04 4125.14 1209.04 4139.14 1194.04 4153.14 1102.04 4167.14 1270 4181.14 1209.04 4195.14 1194.04 4209.14 1041.03 4223.14 1194.04 4237.14 1041.03 4251.14 1133.04 4265.14 964 4279.14 964 4293.14 1025.03 4307.14 1041.03 4321.14 1194.04 4335.14 1041.03 4349.14 1133.04 4363.14 964 4377.14 964 4391.14 964 4405.14 964 4419.15 1025.03 4433.15 1102.04 4447.15 1270 4461.15 1209.04 4475.15 1194.04 4489.15 1102.04 4503.15 1209.04 4517.15 1194.04 4531.15 1041.03 4545.15 1133.04 4559.15 964 4573.15 1025.03 4587.15 1041.03 4601.15 1194.04 4615.15 1041.03 4629.15 1194.04 4643.15 1102.04 4657.15 1270 4671.15 1209.04 4685.15 1133.04 4699.15 964 4713.15 964 4727.16 1025.03 4741.16 1102.04 4755.16 1270 4769.16 1209.04 4783.16 1194.04 4797.16 1102.04 4811.16 1209.04 4825.16 1133.04 4839.16 1025.03 4853.16 1041.03 4867.16 1133.04 4881.16 1270 4895.16 1270 4909 1270" stroke="#4472C4" stroke-width="10.3125" stroke-linecap="round" stroke-linejoin="round" stroke-miterlimit="10" fill="none"/></g><g clip-path="url(#clip4)"><path d="M245 1111.04 259.008 1126.04 273.009 1193.04 287.009 1101.04 301.01 1210.04 315.01 1188.04 329.011 1111.04 343.011 1271.04 357.012 1269.04 371.012 1261.04 385.013 1208.04 399.013 1129.04 413.014 1021.03 427.014 1097.04 441.014 1206.04 455.015 1128.04 469.015 1019.03 483.016 1120.04 497.016 1268.04 511.017 1261.04 525.017 1219.04 539.018 1172.04 553.018 1109.04 567.019 1188.04 581.019 1129.04 595.02 1021.03 609.02 1096.04 623.02 1267.04 637.021 1253.04 651.021 1207.04 665.022 1187.04 679.022 1098.04 693.023 1202.04 707.023 1129.04 721.024 1020.03 735.024 1096.04 749.025 1206.04 763.025 1125.04 777.026 1020.03 791.026 1092.04 805.026 1276.04 819.027 1262.04 833.027 1208.04 847.028 1127.04 861.028 1040.03 875.029 1125.04 889.029 963.032 903.03 948.031 917.03 965.032 931.031 1022.03 945.031 1101.04 959.031 1265.04 973.032 1218.04 987.032 1131.04 1001.03 1027.03 1015.03 1040.03 1029.03 1132.04 1043.03 1022.03 1057.03 1039.03 1071.04 1132.04 1085.04 1021.03 1099.04 1059.03 1113.04 1162.04 1127.04 1107.04 1141.04 1270.04 1155.04 1221.04 1169.04 1138.04 1183.04 1032.03 1197.04 1106.04 1211.04 1218.04 1225.04 1170.04 1239.04 1127.04 1253.04 1272.04 1267.04 1272.04 1281.04 1213.04 1295.04 1128.04 1309.04 987.032 1323.04 1024.03 1337.04 1100.04 1351.04 1219.04 1365.04 1158.04 1379.05 1084.04 1393.05 1138.04 1407.05 971.032 1421.05 972.032 1435.05 1024.03 1449.05 1107.04 1463.05 1274.04 1477.05 1269.04 1491.05 1210.04 1505.05 1103.04 1519.05 973.032 1533.05 963.032 1547.05 1008.03 1561.05 1065.03 1575.05 1190.04 1589.05 1104.04 1603.05 1275.04 1617.05 1266.04 1631.05 1214.04 1645.05 1132.04 1659.05 963.032 1673.05 961.032 1687.06 966.032 1701.06 1016.03 1715.06 1106.04 1729.06 1211.04 1743.06 1154.04 1757.06 1065.03 1771.06 1179.04 1785.06 1141.04 1799.06 1271.04 1813.06 1222.04 1827.06 1133.04 1841.06 962.032 1855.06 967.032 1869.06 1026.03 1883.06 1085.04 1897.06 1161.04 1911.06 1046.03 1925.06 1146.04 1939.06 1105.04 1953.06 1299.04 1967.06 1280.04 1981.07 1261.04 1995.07 1198.04 2010.07 1133.04 2024.07 966.032 2038.07 1022.03 2052.07 1038.03 2066.07 1135.04 2080.07 1018.03 2094.07 1102.04 2108.07 1207.04 2122.07 1129.04 2136.07 963.032 2150.07 969.032 2164.07 1021.03 2178.07 1101.04 2192.07 1227.04 2206.07 1134.04 2220.07 1013.03 2234.07 1042.03 2248.07 1131.04 2262.07 1024.03 2276.07 1038.03 2290.08 1131.04 2304.08 961.032 2318.08 1019.03 2332.08 1087.04 2346.08 1152.04 2360.08 1041.03 2374.08 1134.04 2388.08 1019.03 2402.08 1104.04 2416.08 1274.04 2430.08 1216.04 2444.08 1156.04 2458.08 1107.04 2472.08 1267.04 2486.08 1214.04 2500.08 1104.04 2514.08 961.032 2528.08 961.032 2542.08 970.032 2556.08 1000.03 2570.08 1107.04 2584.08 1268.04 2598.09 1215.04 2612.09 1131.04 2626.09 1024.03 2640.09 1071.04 2654.09 1181.04 2668.09 1060.03 2682.09 1125.04 2696.09 1020.03 2710.09 1097.04 2724.09 1213.04 2738.09 1135.04 2752.09 1019.03 2766.09 1102.04 2780.09 1211.04 2794.09 1132.04 2808.09 1029.03 2822.09 1111.04 2836.09 1213.04 2850.09 1134.04 2864.09 1017.03 2878.09 1087.04 2892.09 1163.04 2906.1 1077.04 2920.1 1188.04 2934.1 1116.04 2948.1 1213.04 2962.1 1115.04 2976.1 968.032 2990.1 968.032 3004.1 969.032 3018.1 967.032 3032.1 1029.03 3046.1 1106.04 3060.1 1132.04 3074.1 966.032 3088.1 1006.03 3102.1 1025.03 3116.1 1092.04 3130.1 1194.04 3144.1 1106.04 3158.1 1213.04 3172.1 1135.04 3186.1 967.032 3200.1 964.032 3214.11 965.032 3228.11 967.032 3242.11 1010.03 3256.11 1045.03 3270.11 1171.04 3284.11 1104.04 3298.11 1268.04 3312.11 1264.04 3326.11 1211.04 3340.11 1194.04 3354.11 1191.04 3368.11 1375.05 3382.11 1293.04 3396.11 1343.04 3410.11 1430.05 3424.11 1267.04 3438.11 1146.04 3452.11 1229.04 3466.11 1116.04 3480.11 1282.04 3494.11 1157.04 3508.11 1287.04 3522.12 1455.05 3536.12 1379.05 3550.12 1278.04 3564.12 1354.04 3578.12 1458.05 3592.12 1338.04 3606.12 1378.05 3620.12 1268.04 3634.12 1169.04 3648.12 1285.04 3662.12 1205.04 3676.12 1255.04 3690.12 1130.04 3704.12 1023.03 3718.12 1084.04 3732.12 1020.03 3746.12 1122.04 3760.12 1082.04 3774.12 1065.03 3788.12 1075.04 3802.12 1287.04 3816.12 1285.04 3830.13 1249.04 3844.13 1379.05 3858.13 1353.04 3872.13 1522.05 3886.13 1432.05 3900.13 1459.05 3914.13 1522.05 3928.13 1667.05 3942.13 1482.05 3956.13 1375.05 3970.13 1278.04 3984.13 1187.04 3998.13 1159.04 4012.13 1017.03 4026.13 950.031 4040.13 1016.03 4055.13 998.033 4069.13 961.032 4083.13 896.029 4097.13 1046.03 4111.13 1256.04 4125.14 1458.05 4139.14 1375.05 4153.14 1201.04 4167.14 1234.04 4181.14 1119.04 4195.14 951.031 4209.14 798.026 4223.14 825.027 4237.14 727 4251.14 835.027 4265.14 832.027 4279.14 1021.03 4293.14 1284.04 4307.14 1556.05 4321.14 1763 4335.14 1667.05 4349.14 1627.05 4363.14 1406.05 4377.14 1311.04 4391.14 1224.04 4405.14 1115.04 4419.15 1115.04 4433.15 1103.04 4447.15 1156.04 4461.15 961.032 4475.15 903.03 4489.15 894.029 4503.15 1094.04 4517.15 1140.04 4531.15 1182.04 4545.15 1349.04 4559.15 1267.04 4573.15 1330.04 4587.15 1394.05 4601.15 1494.05 4615.15 1335.04 4629.15 1389.05 4643.15 1271.04 4657.15 1277.04 4671.15 1124.04 4685.15 953.031 4699.15 792.026 4713.15 799.026 4727.15 828.027 4741.16 880.029 4755.16 1019.03 4769.16 960.031 4783.16 979.032 4797.16 1004.03 4811.16 1212.04 4825.16 1237.04 4839.16 1222.04 4853.16 1305.04 4867.16 1370.04 4881.16 1186.04 4895.16 1166.04 4909 1176.04" stroke="#ED7D31" stroke-width="10.3125" stroke-linecap="round" stroke-linejoin="round" stroke-miterlimit="10" fill="none"/></g><g clip-path="url(#clip5)"><text fill="#595959" font-family="Calibri,Calibri_MSFontService,sans-serif" font-weight="400" font-size="41" transform="matrix(1 0 0 1 151.846 1894)">-2</text></g><g clip-path="url(#clip6)"><text fill="#595959" font-family="Calibri,Calibri_MSFontService,sans-serif" font-weight="400" font-size="41" transform="matrix(1 0 0 1 120.542 1741)">-1.5</text></g><g clip-path="url(#clip7)"><text fill="#595959" font-family="Calibri,Calibri_MSFontService,sans-serif" font-weight="400" font-size="41" transform="matrix(1 0 0 1 151.846 1588)">-1</text></g><g clip-path="url(#clip8)"><text fill="#595959" font-family="Calibri,Calibri_MSFontService,sans-serif" font-weight="400" font-size="41" transform="matrix(1 0 0 1 120.542 1435)">-0.5</text></g><g clip-path="url(#clip9)"><text fill="#595959" font-family="Calibri,Calibri_MSFontService,sans-serif" font-weight="400" font-size="41" transform="matrix(1 0 0 1 164.473 1282)">0</text></g><g clip-path="url(#clip10)"><text fill="#595959" font-family="Calibri,Calibri_MSFontService,sans-serif" font-weight="400" font-size="41" transform="matrix(1 0 0 1 133.169 1129)">0.5</text></g><g clip-path="url(#clip11)"><text fill="#595959" font-family="Calibri,Calibri_MSFontService,sans-serif" font-weight="400" font-size="41" transform="matrix(1 0 0 1 164.473 976)">1</text></g><g clip-path="url(#clip12)"><text fill="#595959" font-family="Calibri,Calibri_MSFontService,sans-serif" font-weight="400" font-size="41" transform="matrix(1 0 0 1 133.169 823)">1.5</text></g><g clip-path="url(#clip13)"><text fill="#595959" font-family="Calibri,Calibri_MSFontService,sans-serif" font-weight="400" font-size="41" transform="matrix(1 0 0 1 164.473 670)">2</text></g><g clip-path="url(#clip14)"><text fill="#595959" font-family="Calibri,Calibri_MSFontService,sans-serif" font-weight="400" font-size="41" transform="matrix(6.12323e-17 -1 1 6.12323e-17 244.47 1317)">1</text></g><g clip-path="url(#clip15)"><text fill="#595959" font-family="Calibri,Calibri_MSFontService,sans-serif" font-weight="400" font-size="41" transform="matrix(6.12323e-17 -1 1 6.12323e-17 300.499 1317)">5</text></g><g clip-path="url(#clip16)"><text fill="#595959" font-family="Calibri,Calibri_MSFontService,sans-serif" font-weight="400" font-size="41" transform="matrix(6.12323e-17 -1 1 6.12323e-17 356.528 1317)">9</text></g><g clip-path="url(#clip17)"><text fill="#595959" font-family="Calibri,Calibri_MSFontService,sans-serif" font-weight="400" font-size="41" transform="matrix(6.12323e-17 -1 1 6.12323e-17 412.557 1338)">13</text></g><g clip-path="url(#clip18)"><text fill="#595959" font-family="Calibri,Calibri_MSFontService,sans-serif" font-weight="400" font-size="41" transform="matrix(6.12323e-17 -1 1 6.12323e-17 468.586 1338)">17</text></g><g clip-path="url(#clip19)"><text fill="#595959" font-family="Calibri,Calibri_MSFontService,sans-serif" font-weight="400" font-size="41" transform="matrix(6.12323e-17 -1 1 6.12323e-17 524.616 1338)">21</text></g><g clip-path="url(#clip20)"><text fill="#595959" font-family="Calibri,Calibri_MSFontService,sans-serif" font-weight="400" font-size="41" transform="matrix(6.12323e-17 -1 1 6.12323e-17 580.645 1338)">25</text></g><g clip-path="url(#clip21)"><text fill="#595959" font-family="Calibri,Calibri_MSFontService,sans-serif" font-weight="400" font-size="41" transform="matrix(6.12323e-17 -1 1 6.12323e-17 636.674 1338)">29</text></g><g clip-path="url(#clip22)"><text fill="#595959" font-family="Calibri,Calibri_MSFontService,sans-serif" font-weight="400" font-size="41" transform="matrix(6.12323e-17 -1 1 6.12323e-17 692.703 1338)">33</text></g><g clip-path="url(#clip23)"><text fill="#595959" font-family="Calibri,Calibri_MSFontService,sans-serif" font-weight="400" font-size="41" transform="matrix(6.12323e-17 -1 1 6.12323e-17 748.732 1338)">37</text></g><g clip-path="url(#clip24)"><text fill="#595959" font-family="Calibri,Calibri_MSFontService,sans-serif" font-weight="400" font-size="41" transform="matrix(6.12323e-17 -1 1 6.12323e-17 804.761 1338)">41</text></g><g clip-path="url(#clip25)"><text fill="#595959" font-family="Calibri,Calibri_MSFontService,sans-serif" font-weight="400" font-size="41" transform="matrix(6.12323e-17 -1 1 6.12323e-17 860.791 1338)">45</text></g><g clip-path="url(#clip26)"><text fill="#595959" font-family="Calibri,Calibri_MSFontService,sans-serif" font-weight="400" font-size="41" transform="matrix(6.12323e-17 -1 1 6.12323e-17 916.82 1338)">49</text></g><g clip-path="url(#clip27)"><text fill="#595959" font-family="Calibri,Calibri_MSFontService,sans-serif" font-weight="400" font-size="41" transform="matrix(6.12323e-17 -1 1 6.12323e-17 972.849 1338)">53</text></g><g clip-path="url(#clip28)"><text fill="#595959" font-family="Calibri,Calibri_MSFontService,sans-serif" font-weight="400" font-size="41" transform="matrix(6.12323e-17 -1 1 6.12323e-17 1028.88 1338)">57</text></g><g clip-path="url(#clip29)"><text fill="#595959" font-family="Calibri,Calibri_MSFontService,sans-serif" font-weight="400" font-size="41" transform="matrix(6.12323e-17 -1 1 6.12323e-17 1084.91 1338)">61</text></g><g clip-path="url(#clip30)"><text fill="#595959" font-family="Calibri,Calibri_MSFontService,sans-serif" font-weight="400" font-size="41" transform="matrix(6.12323e-17 -1 1 6.12323e-17 1140.94 1338)">65</text></g><g clip-path="url(#clip31)"><text fill="#595959" font-family="Calibri,Calibri_MSFontService,sans-serif" font-weight="400" font-size="41" transform="matrix(6.12323e-17 -1 1 6.12323e-17 1196.97 1338)">69</text></g><g clip-path="url(#clip32)"><text fill="#595959" font-family="Calibri,Calibri_MSFontService,sans-serif" font-weight="400" font-size="41" transform="matrix(6.12323e-17 -1 1 6.12323e-17 1252.99 1338)">73</text></g><g clip-path="url(#clip33)"><text fill="#595959" font-family="Calibri,Calibri_MSFontService,sans-serif" font-weight="400" font-size="41" transform="matrix(6.12323e-17 -1 1 6.12323e-17 1309.02 1338)">77</text></g><g clip-path="url(#clip34)"><text fill="#595959" font-family="Calibri,Calibri_MSFontService,sans-serif" font-weight="400" font-size="41" transform="matrix(6.12323e-17 -1 1 6.12323e-17 1365.05 1338)">81</text></g><g clip-path="url(#clip35)"><text fill="#595959" font-family="Calibri,Calibri_MSFontService,sans-serif" font-weight="400" font-size="41" transform="matrix(6.12323e-17 -1 1 6.12323e-17 1421.08 1338)">85</text></g><g clip-path="url(#clip36)"><text fill="#595959" font-family="Calibri,Calibri_MSFontService,sans-serif" font-weight="400" font-size="41" transform="matrix(6.12323e-17 -1 1 6.12323e-17 1477.11 1338)">89</text></g><g clip-path="url(#clip37)"><text fill="#595959" font-family="Calibri,Calibri_MSFontService,sans-serif" font-weight="400" font-size="41" transform="matrix(6.12323e-17 -1 1 6.12323e-17 1533.14 1338)">93</text></g><g clip-path="url(#clip38)"><text fill="#595959" font-family="Calibri,Calibri_MSFontService,sans-serif" font-weight="400" font-size="41" transform="matrix(6.12323e-17 -1 1 6.12323e-17 1589.17 1338)">97</text></g><g clip-path="url(#clip39)"><text fill="#595959" font-family="Calibri,Calibri_MSFontService,sans-serif" font-weight="400" font-size="41" transform="matrix(6.12323e-17 -1 1 6.12323e-17 1645.2 1359)">101</text></g><g clip-path="url(#clip40)"><text fill="#595959" font-family="Calibri,Calibri_MSFontService,sans-serif" font-weight="400" font-size="41" transform="matrix(6.12323e-17 -1 1 6.12323e-17 1701.23 1359)">105</text></g><g clip-path="url(#clip41)"><text fill="#595959" font-family="Calibri,Calibri_MSFontService,sans-serif" font-weight="400" font-size="41" transform="matrix(6.12323e-17 -1 1 6.12323e-17 1757.26 1359)">109</text></g><g clip-path="url(#clip42)"><text fill="#595959" font-family="Calibri,Calibri_MSFontService,sans-serif" font-weight="400" font-size="41" transform="matrix(6.12323e-17 -1 1 6.12323e-17 1813.29 1359)">113</text></g><g clip-path="url(#clip43)"><text fill="#595959" font-family="Calibri,Calibri_MSFontService,sans-serif" font-weight="400" font-size="41" transform="matrix(6.12323e-17 -1 1 6.12323e-17 1869.32 1359)">117</text></g><g clip-path="url(#clip44)"><text fill="#595959" font-family="Calibri,Calibri_MSFontService,sans-serif" font-weight="400" font-size="41" transform="matrix(6.12323e-17 -1 1 6.12323e-17 1925.34 1359)">121</text></g><g clip-path="url(#clip45)"><text fill="#595959" font-family="Calibri,Calibri_MSFontService,sans-serif" font-weight="400" font-size="41" transform="matrix(6.12323e-17 -1 1 6.12323e-17 1981.37 1359)">125</text></g><g clip-path="url(#clip46)"><text fill="#595959" font-family="Calibri,Calibri_MSFontService,sans-serif" font-weight="400" font-size="41" transform="matrix(6.12323e-17 -1 1 6.12323e-17 2037.4 1359)">129</text></g><g clip-path="url(#clip47)"><text fill="#595959" font-family="Calibri,Calibri_MSFontService,sans-serif" font-weight="400" font-size="41" transform="matrix(6.12323e-17 -1 1 6.12323e-17 2093.43 1359)">133</text></g><g clip-path="url(#clip48)"><text fill="#595959" font-family="Calibri,Calibri_MSFontService,sans-serif" font-weight="400" font-size="41" transform="matrix(6.12323e-17 -1 1 6.12323e-17 2149.46 1359)">137</text></g><g clip-path="url(#clip49)"><text fill="#595959" font-family="Calibri,Calibri_MSFontService,sans-serif" font-weight="400" font-size="41" transform="matrix(6.12323e-17 -1 1 6.12323e-17 2205.49 1359)">141</text></g><g clip-path="url(#clip50)"><text fill="#595959" font-family="Calibri,Calibri_MSFontService,sans-serif" font-weight="400" font-size="41" transform="matrix(6.12323e-17 -1 1 6.12323e-17 2261.52 1359)">145</text></g><g clip-path="url(#clip51)"><text fill="#595959" font-family="Calibri,Calibri_MSFontService,sans-serif" font-weight="400" font-size="41" transform="matrix(6.12323e-17 -1 1 6.12323e-17 2317.55 1359)">149</text></g><g clip-path="url(#clip52)"><text fill="#595959" font-family="Calibri,Calibri_MSFontService,sans-serif" font-weight="400" font-size="41" transform="matrix(6.12323e-17 -1 1 6.12323e-17 2373.58 1359)">153</text></g><g clip-path="url(#clip53)"><text fill="#595959" font-family="Calibri,Calibri_MSFontService,sans-serif" font-weight="400" font-size="41" transform="matrix(6.12323e-17 -1 1 6.12323e-17 2429.61 1359)">157</text></g><g clip-path="url(#clip54)"><text fill="#595959" font-family="Calibri,Calibri_MSFontService,sans-serif" font-weight="400" font-size="41" transform="matrix(6.12323e-17 -1 1 6.12323e-17 2485.64 1359)">161</text></g><g clip-path="url(#clip55)"><text fill="#595959" font-family="Calibri,Calibri_MSFontService,sans-serif" font-weight="400" font-size="41" transform="matrix(6.12323e-17 -1 1 6.12323e-17 2541.67 1359)">165</text></g><g clip-path="url(#clip56)"><text fill="#595959" font-family="Calibri,Calibri_MSFontService,sans-serif" font-weight="400" font-size="41" transform="matrix(6.12323e-17 -1 1 6.12323e-17 2597.7 1359)">169</text></g><g clip-path="url(#clip57)"><text fill="#595959" font-family="Calibri,Calibri_MSFontService,sans-serif" font-weight="400" font-size="41" transform="matrix(6.12323e-17 -1 1 6.12323e-17 2653.72 1359)">173</text></g><g clip-path="url(#clip58)"><text fill="#595959" font-family="Calibri,Calibri_MSFontService,sans-serif" font-weight="400" font-size="41" transform="matrix(6.12323e-17 -1 1 6.12323e-17 2709.75 1359)">177</text></g><g clip-path="url(#clip59)"><text fill="#595959" font-family="Calibri,Calibri_MSFontService,sans-serif" font-weight="400" font-size="41" transform="matrix(6.12323e-17 -1 1 6.12323e-17 2765.78 1359)">181</text></g><g clip-path="url(#clip60)"><text fill="#595959" font-family="Calibri,Calibri_MSFontService,sans-serif" font-weight="400" font-size="41" transform="matrix(6.12323e-17 -1 1 6.12323e-17 2821.81 1359)">185</text></g><g clip-path="url(#clip61)"><text fill="#595959" font-family="Calibri,Calibri_MSFontService,sans-serif" font-weight="400" font-size="41" transform="matrix(6.12323e-17 -1 1 6.12323e-17 2877.84 1359)">189</text></g><g clip-path="url(#clip62)"><text fill="#595959" font-family="Calibri,Calibri_MSFontService,sans-serif" font-weight="400" font-size="41" transform="matrix(6.12323e-17 -1 1 6.12323e-17 2933.87 1359)">193</text></g><g clip-path="url(#clip63)"><text fill="#595959" font-family="Calibri,Calibri_MSFontService,sans-serif" font-weight="400" font-size="41" transform="matrix(6.12323e-17 -1 1 6.12323e-17 2989.9 1359)">197</text></g><g clip-path="url(#clip64)"><text fill="#595959" font-family="Calibri,Calibri_MSFontService,sans-serif" font-weight="400" font-size="41" transform="matrix(6.12323e-17 -1 1 6.12323e-17 3045.93 1359)">201</text></g><g clip-path="url(#clip65)"><text fill="#595959" font-family="Calibri,Calibri_MSFontService,sans-serif" font-weight="400" font-size="41" transform="matrix(6.12323e-17 -1 1 6.12323e-17 3101.96 1359)">205</text></g><g clip-path="url(#clip66)"><text fill="#595959" font-family="Calibri,Calibri_MSFontService,sans-serif" font-weight="400" font-size="41" transform="matrix(6.12323e-17 -1 1 6.12323e-17 3157.99 1359)">209</text></g><g clip-path="url(#clip67)"><text fill="#595959" font-family="Calibri,Calibri_MSFontService,sans-serif" font-weight="400" font-size="41" transform="matrix(6.12323e-17 -1 1 6.12323e-17 3214.02 1359)">213</text></g><g clip-path="url(#clip68)"><text fill="#595959" font-family="Calibri,Calibri_MSFontService,sans-serif" font-weight="400" font-size="41" transform="matrix(6.12323e-17 -1 1 6.12323e-17 3270.04 1359)">217</text></g><g clip-path="url(#clip69)"><text fill="#595959" font-family="Calibri,Calibri_MSFontService,sans-serif" font-weight="400" font-size="41" transform="matrix(6.12323e-17 -1 1 6.12323e-17 3326.07 1359)">221</text></g><g clip-path="url(#clip70)"><text fill="#595959" font-family="Calibri,Calibri_MSFontService,sans-serif" font-weight="400" font-size="41" transform="matrix(6.12323e-17 -1 1 6.12323e-17 3382.1 1359)">225</text></g><g clip-path="url(#clip71)"><text fill="#595959" font-family="Calibri,Calibri_MSFontService,sans-serif" font-weight="400" font-size="41" transform="matrix(6.12323e-17 -1 1 6.12323e-17 3438.13 1359)">229</text></g><g clip-path="url(#clip72)"><text fill="#595959" font-family="Calibri,Calibri_MSFontService,sans-serif" font-weight="400" font-size="41" transform="matrix(6.12323e-17 -1 1 6.12323e-17 3494.16 1359)">233</text></g><g clip-path="url(#clip73)"><text fill="#595959" font-family="Calibri,Calibri_MSFontService,sans-serif" font-weight="400" font-size="41" transform="matrix(6.12323e-17 -1 1 6.12323e-17 3550.19 1359)">237</text></g><g clip-path="url(#clip74)"><text fill="#595959" font-family="Calibri,Calibri_MSFontService,sans-serif" font-weight="400" font-size="41" transform="matrix(6.12323e-17 -1 1 6.12323e-17 3606.22 1359)">241</text></g><g clip-path="url(#clip75)"><text fill="#595959" font-family="Calibri,Calibri_MSFontService,sans-serif" font-weight="400" font-size="41" transform="matrix(6.12323e-17 -1 1 6.12323e-17 3662.25 1359)">245</text></g><g clip-path="url(#clip76)"><text fill="#595959" font-family="Calibri,Calibri_MSFontService,sans-serif" font-weight="400" font-size="41" transform="matrix(6.12323e-17 -1 1 6.12323e-17 3718.28 1359)">249</text></g><g clip-path="url(#clip77)"><text fill="#595959" font-family="Calibri,Calibri_MSFontService,sans-serif" font-weight="400" font-size="41" transform="matrix(6.12323e-17 -1 1 6.12323e-17 3774.31 1359)">253</text></g><g clip-path="url(#clip78)"><text fill="#595959" font-family="Calibri,Calibri_MSFontService,sans-serif" font-weight="400" font-size="41" transform="matrix(6.12323e-17 -1 1 6.12323e-17 3830.34 1359)">257</text></g><g clip-path="url(#clip79)"><text fill="#595959" font-family="Calibri,Calibri_MSFontService,sans-serif" font-weight="400" font-size="41" transform="matrix(6.12323e-17 -1 1 6.12323e-17 3886.37 1359)">261</text></g><g clip-path="url(#clip80)"><text fill="#595959" font-family="Calibri,Calibri_MSFontService,sans-serif" font-weight="400" font-size="41" transform="matrix(6.12323e-17 -1 1 6.12323e-17 3942.4 1359)">265</text></g><g clip-path="url(#clip81)"><text fill="#595959" font-family="Calibri,Calibri_MSFontService,sans-serif" font-weight="400" font-size="41" transform="matrix(6.12323e-17 -1 1 6.12323e-17 3998.42 1359)">269</text></g><g clip-path="url(#clip82)"><text fill="#595959" font-family="Calibri,Calibri_MSFontService,sans-serif" font-weight="400" font-size="41" transform="matrix(6.12323e-17 -1 1 6.12323e-17 4054.45 1359)">273</text></g><g clip-path="url(#clip83)"><text fill="#595959" font-family="Calibri,Calibri_MSFontService,sans-serif" font-weight="400" font-size="41" transform="matrix(6.12323e-17 -1 1 6.12323e-17 4110.48 1359)">277</text></g><g clip-path="url(#clip84)"><text fill="#595959" font-family="Calibri,Calibri_MSFontService,sans-serif" font-weight="400" font-size="41" transform="matrix(6.12323e-17 -1 1 6.12323e-17 4166.51 1359)">281</text></g><g clip-path="url(#clip85)"><text fill="#595959" font-family="Calibri,Calibri_MSFontService,sans-serif" font-weight="400" font-size="41" transform="matrix(6.12323e-17 -1 1 6.12323e-17 4222.54 1359)">285</text></g><g clip-path="url(#clip86)"><text fill="#595959" font-family="Calibri,Calibri_MSFontService,sans-serif" font-weight="400" font-size="41" transform="matrix(6.12323e-17 -1 1 6.12323e-17 4278.57 1359)">289</text></g><g clip-path="url(#clip87)"><text fill="#595959" font-family="Calibri,Calibri_MSFontService,sans-serif" font-weight="400" font-size="41" transform="matrix(6.12323e-17 -1 1 6.12323e-17 4334.6 1359)">293</text></g><g clip-path="url(#clip88)"><text fill="#595959" font-family="Calibri,Calibri_MSFontService,sans-serif" font-weight="400" font-size="41" transform="matrix(6.12323e-17 -1 1 6.12323e-17 4390.63 1359)">297</text></g><g clip-path="url(#clip89)"><text fill="#595959" font-family="Calibri,Calibri_MSFontService,sans-serif" font-weight="400" font-size="41" transform="matrix(6.12323e-17 -1 1 6.12323e-17 4446.66 1359)">301</text></g><g clip-path="url(#clip90)"><text fill="#595959" font-family="Calibri,Calibri_MSFontService,sans-serif" font-weight="400" font-size="41" transform="matrix(6.12323e-17 -1 1 6.12323e-17 4502.69 1359)">305</text></g><g clip-path="url(#clip91)"><text fill="#595959" font-family="Calibri,Calibri_MSFontService,sans-serif" font-weight="400" font-size="41" transform="matrix(6.12323e-17 -1 1 6.12323e-17 4558.72 1359)">309</text></g><g clip-path="url(#clip92)"><text fill="#595959" font-family="Calibri,Calibri_MSFontService,sans-serif" font-weight="400" font-size="41" transform="matrix(6.12323e-17 -1 1 6.12323e-17 4614.75 1359)">313</text></g><g clip-path="url(#clip93)"><text fill="#595959" font-family="Calibri,Calibri_MSFontService,sans-serif" font-weight="400" font-size="41" transform="matrix(6.12323e-17 -1 1 6.12323e-17 4670.77 1359)">317</text></g><g clip-path="url(#clip94)"><text fill="#595959" font-family="Calibri,Calibri_MSFontService,sans-serif" font-weight="400" font-size="41" transform="matrix(6.12323e-17 -1 1 6.12323e-17 4726.8 1359)">321</text></g><g clip-path="url(#clip95)"><text fill="#595959" font-family="Calibri,Calibri_MSFontService,sans-serif" font-weight="400" font-size="41" transform="matrix(6.12323e-17 -1 1 6.12323e-17 4782.83 1359)">325</text></g><g clip-path="url(#clip96)"><text fill="#595959" font-family="Calibri,Calibri_MSFontService,sans-serif" font-weight="400" font-size="41" transform="matrix(6.12323e-17 -1 1 6.12323e-17 4838.86 1359)">329</text></g><g clip-path="url(#clip97)"><text fill="#595959" font-family="Calibri,Calibri_MSFontService,sans-serif" font-weight="400" font-size="41" transform="matrix(6.12323e-17 -1 1 6.12323e-17 4894.89 1359)">333</text></g><g clip-path="url(#clip98)"><path d="M2296 1972 2384 1972" stroke="#4472C4" stroke-width="10.3125" stroke-linecap="round" stroke-linejoin="round" stroke-miterlimit="10" fill="none" fill-rule="evenodd"/></g><g clip-path="url(#clip99)"><text fill="#595959" font-family="Calibri,Calibri_MSFontService,sans-serif" font-weight="400" font-size="41" transform="matrix(1 0 0 1 2393.05 1983)">Real</text></g><g clip-path="url(#clip100)"><path d="M2509 1972 2597 1972" stroke="#ED7D31" stroke-width="10.3125" stroke-linecap="round" stroke-linejoin="round" stroke-miterlimit="10" fill="none" fill-rule="evenodd"/></g><g clip-path="url(#clip101)"><text fill="#595959" font-family="Calibri,Calibri_MSFontService,sans-serif" font-weight="400" font-size="41" transform="matrix(1 0 0 1 2606.1 1983)">Prediction</text></g><rect x="91.4999" y="608.5" width="4875" height="1430" stroke="#D9D9D9" stroke-width="3.4375" stroke-linejoin="round" stroke-miterlimit="10" fill="none"/></g></svg>