<svg width="3685" height="769" xmlns="http://www.w3.org/2000/svg" xmlns:xlink="http://www.w3.org/1999/xlink" overflow="hidden"><defs><clipPath id="clip0"><rect x="648" y="622" width="3685" height="769"/></clipPath><clipPath id="clip1"><rect x="649" y="622" width="3682" height="766"/></clipPath><clipPath id="clip2"><rect x="769" y="673" width="3512" height="612"/></clipPath><clipPath id="clip3"><rect x="649" y="622" width="3682" height="766"/></clipPath><clipPath id="clip4"><rect x="649" y="622" width="3682" height="766"/></clipPath><clipPath id="clip5"><rect x="649" y="622" width="3682" height="766"/></clipPath><clipPath id="clip6"><rect x="649" y="622" width="3682" height="766"/></clipPath><clipPath id="clip7"><rect x="649" y="622" width="3682" height="766"/></clipPath><clipPath id="clip8"><rect x="649" y="622" width="3682" height="766"/></clipPath><clipPath id="clip9"><rect x="649" y="622" width="3682" height="766"/></clipPath><clipPath id="clip10"><rect x="649" y="622" width="3682" height="766"/></clipPath><clipPath id="clip11"><rect x="649" y="622" width="3682" height="766"/></clipPath><clipPath id="clip12"><rect x="649" y="622" width="3682" height="766"/></clipPath><clipPath id="clip13"><rect x="649" y="622" width="3682" height="766"/></clipPath><clipPath id="clip14"><rect x="649" y="622" width="3682" height="766"/></clipPath><clipPath id="clip15"><rect x="649" y="622" width="3682" height="766"/></clipPath><clipPath id="clip16"><rect x="649" y="622" width="3682" height="766"/></clipPath><clipPath id="clip17"><rect x="649" y="622" width="3682" height="766"/></clipPath><clipPath id="clip18"><rect x="649" y="622" width="3682" height="766"/></clipPath><clipPath id="clip19"><rect x="649" y="622" width="3682" height="766"/></clipPath><clipPath id="clip20"><rect x="649" y="622" width="3682" height="766"/></clipPath><clipPath id="clip21"><rect x="649" y="622" width="3682" height="766"/></clipPath><clipPath id="clip22"><rect x="649" y="622" width="3682" height="766"/></clipPath><clipPath id="clip23"><rect x="649" y="622" width="3682" height="766"/></clipPath><clipPath id="clip24"><rect x="649" y="622" width="3682" height="766"/></clipPath><clipPath id="clip25"><rect x="649" y="622" width="3682" height="766"/></clipPath><clipPath id="clip26"><rect x="649" y="622" width="3682" height="766"/></clipPath><clipPath id="clip27"><rect x="649" y="622" width="3682" height="766"/></clipPath><clipPath id="clip28"><rect x="649" y="622" width="3682" height="766"/></clipPath><clipPath id="clip29"><rect x="649" y="622" width="3682" height="766"/></clipPath><clipPath id="clip30"><rect x="649" y="622" width="3682" height="766"/></clipPath><clipPath id="clip31"><rect x="649" y="622" width="3682" height="766"/></clipPath><clipPath id="clip32"><rect x="649" y="622" width="3682" height="766"/></clipPath><clipPath id="clip33"><rect x="649" y="622" width="3682" height="766"/></clipPath><clipPath id="clip34"><rect x="649" y="622" width="3682" height="766"/></clipPath><clipPath id="clip35"><rect x="649" y="622" width="3682" height="766"/></clipPath><clipPath id="clip36"><rect x="649" y="622" width="3682" height="766"/></clipPath><clipPath id="clip37"><rect x="649" y="622" width="3682" height="766"/></clipPath><clipPath id="clip38"><rect x="649" y="622" width="3682" height="766"/></clipPath><clipPath id="clip39"><rect x="649" y="622" width="3682" height="766"/></clipPath><clipPath id="clip40"><rect x="649" y="622" width="3682" height="766"/></clipPath><clipPath id="clip41"><rect x="649" y="622" width="3682" height="766"/></clipPath><clipPath id="clip42"><rect x="649" y="622" width="3682" height="766"/></clipPath><clipPath id="clip43"><rect x="649" y="622" width="3682" height="766"/></clipPath><clipPath id="clip44"><rect x="649" y="622" width="3682" height="766"/></clipPath><clipPath id="clip45"><rect x="649" y="622" width="3682" height="766"/></clipPath><clipPath id="clip46"><rect x="649" y="622" width="3682" height="766"/></clipPath><clipPath id="clip47"><rect x="649" y="622" width="3682" height="766"/></clipPath><clipPath id="clip48"><rect x="649" y="622" width="3682" height="766"/></clipPath><clipPath id="clip49"><rect x="649" y="622" width="3682" height="766"/></clipPath><clipPath id="clip50"><rect x="649" y="622" width="3682" height="766"/></clipPath><clipPath id="clip51"><rect x="649" y="622" width="3682" height="766"/></clipPath><clipPath id="clip52"><rect x="649" y="622" width="3682" height="766"/></clipPath><clipPath id="clip53"><rect x="649" y="622" width="3682" height="766"/></clipPath><clipPath id="clip54"><rect x="649" y="622" width="3682" height="766"/></clipPath><clipPath id="clip55"><rect x="649" y="622" width="3682" height="766"/></clipPath><clipPath id="clip56"><rect x="649" y="622" width="3682" height="766"/></clipPath><clipPath id="clip57"><rect x="649" y="622" width="3682" height="766"/></clipPath><clipPath id="clip58"><rect x="649" y="622" width="3682" height="766"/></clipPath><clipPath id="clip59"><rect x="649" y="622" width="3682" height="766"/></clipPath><clipPath id="clip60"><rect x="649" y="622" width="3682" height="766"/></clipPath></defs><g clip-path="url(#clip0)" transform="translate(-648 -622)"><rect x="649" y="623" width="3682" height="766" fill="#FFFFFF"/><g clip-path="url(#clip1)"><path d="M769.5 1180.54 4278.5 1180.54M769.5 1079.54 4278.5 1079.54M769.5 977.532 4278.5 977.532M769.5 876.529 4278.5 876.529M769.5 774.526 4278.5 774.526M769.5 673.5 4278.5 673.5" stroke="#D9D9D9" stroke-width="3.4375" stroke-linejoin="round" stroke-miterlimit="10" fill="none"/></g><g clip-path="url(#clip2)"><path d="M780.026 876.029 794.026 876.029 794.026 1282 780.026 1282ZM815.027 902.03 829.027 902.03 829.027 1282 815.027 1282ZM851.028 1155.04 865.028 1155.04 865.028 1282 851.028 1282ZM886.029 1003.03 900.029 1003.03 900.029 1282 886.029 1282ZM922.03 1181.04 936.031 1181.04 936.031 1282 922.03 1282ZM957.031 1155.04 971.032 1155.04 971.032 1282 957.031 1282ZM993.033 1003.03 1007.03 1003.03 1007.03 1282 993.033 1282ZM1134.04 1181.04 1148.04 1181.04 1148.04 1282 1134.04 1282ZM1170.04 1054.03 1184.04 1054.03 1184.04 1282 1170.04 1282ZM1205.04 876.029 1219.04 876.029 1219.04 1282 1205.04 1282ZM1241.04 1003.03 1255.04 1003.03 1255.04 1282 1241.04 1282ZM1276.04 1181.04 1290.04 1181.04 1290.04 1282 1276.04 1282ZM1312.04 1054.03 1326.04 1054.03 1326.04 1282 1312.04 1282ZM1347.04 876.029 1361.04 876.029 1361.04 1282 1347.04 1282ZM1382.05 1003.03 1397.05 1003.03 1397.05 1282 1382.05 1282ZM1489.05 1181.04 1503.05 1181.04 1503.05 1282 1489.05 1282ZM1524.05 1155.04 1538.05 1155.04 1538.05 1282 1524.05 1282ZM1560.05 1003.03 1574.05 1003.03 1574.05 1282 1560.05 1282ZM1595.05 1181.04 1609.05 1181.04 1609.05 1282 1595.05 1282ZM1631.05 1054.03 1645.05 1054.03 1645.05 1282 1631.05 1282ZM1666.05 876.029 1680.06 876.029 1680.06 1282 1666.05 1282ZM1701.06 1003.03 1716.06 1003.03 1716.06 1282 1701.06 1282ZM1808.06 1181.04 1822.06 1181.04 1822.06 1282 1808.06 1282ZM1843.06 1155.04 1857.06 1155.04 1857.06 1282 1843.06 1282ZM1879.06 1003.03 1893.06 1003.03 1893.06 1282 1879.06 1282ZM1914.06 1181.04 1928.06 1181.04 1928.06 1282 1914.06 1282ZM1950.06 1054.03 1964.06 1054.03 1964.06 1282 1950.06 1282ZM1985.07 876.029 1999.07 876.029 1999.07 1282 1985.07 1282ZM2020.07 1003.03 2035.07 1003.03 2035.07 1282 2020.07 1282ZM2056.07 1181.04 2070.07 1181.04 2070.07 1282 2056.07 1282ZM2091.07 1054.03 2105.07 1054.03 2105.07 1282 2091.07 1282ZM2127.07 876.029 2141.07 876.029 2141.07 1282 2127.07 1282ZM2162.07 1003.03 2176.07 1003.03 2176.07 1282 2162.07 1282ZM2269.07 1181.04 2283.07 1181.04 2283.07 1282 2269.07 1282ZM2304.08 1155.04 2318.08 1155.04 2318.08 1282 2304.08 1282ZM2339.08 902.03 2354.08 902.03 2354.08 1282 2339.08 1282ZM2375.08 1054.03 2389.08 1054.03 2389.08 1282 2375.08 1282ZM2410.08 775.025 2424.08 775.025 2424.08 1282 2410.08 1282ZM2446.08 775.025 2460.08 775.025 2460.08 1282 2446.08 1282ZM2481.08 775.025 2495.08 775.025 2495.08 1282 2481.08 1282ZM2517.08 876.029 2531.08 876.029 2531.08 1282 2517.08 1282ZM2552.08 1003.03 2566.08 1003.03 2566.08 1282 2552.08 1282ZM2623.09 1181.04 2637.09 1181.04 2637.09 1282 2623.09 1282ZM2658.09 1054.03 2673.09 1054.03 2673.09 1282 2658.09 1282ZM2694.09 876.029 2708.09 876.029 2708.09 1282 2694.09 1282ZM2729.09 902.03 2743.09 902.03 2743.09 1282 2729.09 1282ZM2765.09 1054.03 2779.09 1054.03 2779.09 1282 2765.09 1282ZM2800.09 876.029 2814.09 876.029 2814.09 1282 2800.09 1282ZM2836.09 902.03 2850.09 902.03 2850.09 1282 2836.09 1282ZM2871.09 1054.03 2885.09 1054.03 2885.09 1282 2871.09 1282ZM2906.1 876.029 2921.1 876.029 2921.1 1282 2906.1 1282ZM2942.1 902.03 2956.1 902.03 2956.1 1282 2942.1 1282ZM2977.1 1155.04 2992.1 1155.04 2992.1 1282 2977.1 1282ZM3013.1 1003.03 3027.1 1003.03 3027.1 1282 3013.1 1282ZM3084.1 1181.04 3098.1 1181.04 3098.1 1282 3084.1 1282ZM3119.1 1054.03 3133.1 1054.03 3133.1 1282 3119.1 1282ZM3155.1 876.029 3169.1 876.029 3169.1 1282 3155.1 1282ZM3190.1 1003.03 3204.11 1003.03 3204.11 1282 3190.1 1282ZM3225.11 1181.04 3240.11 1181.04 3240.11 1282 3225.11 1282ZM3261.11 1155.04 3275.11 1155.04 3275.11 1282 3261.11 1282ZM3296.11 1003.03 3311.11 1003.03 3311.11 1282 3296.11 1282ZM3403.11 1181.04 3417.11 1181.04 3417.11 1282 3403.11 1282ZM3438.11 1054.03 3452.11 1054.03 3452.11 1282 3438.11 1282ZM3474.11 775.025 3488.11 775.025 3488.11 1282 3474.11 1282ZM3509.12 876.029 3523.12 876.029 3523.12 1282 3509.12 1282ZM3544.12 1003.03 3559.12 1003.03 3559.12 1282 3544.12 1282ZM3580.12 1181.04 3594.12 1181.04 3594.12 1282 3580.12 1282ZM3615.12 1155.04 3630.12 1155.04 3630.12 1282 3615.12 1282ZM3651.12 902.03 3665.12 902.03 3665.12 1282 3651.12 1282ZM3686.12 1054.03 3700.12 1054.03 3700.12 1282 3686.12 1282ZM3722.12 775.025 3736.12 775.025 3736.12 1282 3722.12 1282ZM3757.12 775.025 3771.12 775.025 3771.12 1282 3757.12 1282ZM3793.12 876.029 3807.12 876.029 3807.12 1282 3793.12 1282ZM3828.13 1003.03 3842.13 1003.03 3842.13 1282 3828.13 1282ZM3934.13 1181.04 3949.13 1181.04 3949.13 1282 3934.13 1282ZM3970.13 1054.03 3984.13 1054.03 3984.13 1282 3970.13 1282ZM4005.13 775.025 4019.13 775.025 4019.13 1282 4005.13 1282ZM4041.13 775.025 4055.13 775.025 4055.13 1282 4041.13 1282ZM4076.13 876.029 4090.13 876.029 4090.13 1282 4076.13 1282ZM4112.13 902.03 4126.14 902.03 4126.14 1282 4112.13 1282ZM4147.14 1155.04 4161.14 1155.04 4161.14 1282 4147.14 1282ZM4182.14 1003.03 4197.14 1003.03 4197.14 1282 4182.14 1282Z" fill="#4472C4"/></g><g clip-path="url(#clip3)"><path d="M769.5 1282.5 4278.5 1282.5" stroke="#D9D9D9" stroke-width="3.4375" stroke-linejoin="round" stroke-miterlimit="10" fill="none" fill-rule="evenodd"/></g><g clip-path="url(#clip4)"><text fill="#595959" font-family="Calibri,Calibri_MSFontService,sans-serif" font-weight="400" font-size="41" transform="matrix(1 0 0 1 710.096 1294)">0</text></g><g clip-path="url(#clip5)"><text fill="#595959" font-family="Calibri,Calibri_MSFontService,sans-serif" font-weight="400" font-size="41" transform="matrix(1 0 0 1 678.792 1192)">0.2</text></g><g clip-path="url(#clip6)"><text fill="#595959" font-family="Calibri,Calibri_MSFontService,sans-serif" font-weight="400" font-size="41" transform="matrix(1 0 0 1 678.792 1091)">0.4</text></g><g clip-path="url(#clip7)"><text fill="#595959" font-family="Calibri,Calibri_MSFontService,sans-serif" font-weight="400" font-size="41" transform="matrix(1 0 0 1 678.792 989)">0.6</text></g><g clip-path="url(#clip8)"><text fill="#595959" font-family="Calibri,Calibri_MSFontService,sans-serif" font-weight="400" font-size="41" transform="matrix(1 0 0 1 678.792 888)">0.8</text></g><g clip-path="url(#clip9)"><text fill="#595959" font-family="Calibri,Calibri_MSFontService,sans-serif" font-weight="400" font-size="41" transform="matrix(1 0 0 1 710.096 786)">1</text></g><g clip-path="url(#clip10)"><text fill="#595959" font-family="Calibri,Calibri_MSFontService,sans-serif" font-weight="400" font-size="41" transform="matrix(1 0 0 1 678.792 685)">1.2</text></g><g clip-path="url(#clip11)"><text fill="#595959" font-family="Calibri,Calibri_MSFontService,sans-serif" font-weight="400" font-size="41" transform="matrix(1 0 0 1 776.535 1348)">1</text></g><g clip-path="url(#clip12)"><text fill="#595959" font-family="Calibri,Calibri_MSFontService,sans-serif" font-weight="400" font-size="41" transform="matrix(1 0 0 1 847.425 1348)">3</text></g><g clip-path="url(#clip13)"><text fill="#595959" font-family="Calibri,Calibri_MSFontService,sans-serif" font-weight="400" font-size="41" transform="matrix(1 0 0 1 918.314 1348)">5</text></g><g clip-path="url(#clip14)"><text fill="#595959" font-family="Calibri,Calibri_MSFontService,sans-serif" font-weight="400" font-size="41" transform="matrix(1 0 0 1 989.204 1348)">7</text></g><g clip-path="url(#clip15)"><text fill="#595959" font-family="Calibri,Calibri_MSFontService,sans-serif" font-weight="400" font-size="41" transform="matrix(1 0 0 1 1060.09 1348)">9</text></g><g clip-path="url(#clip16)"><text fill="#595959" font-family="Calibri,Calibri_MSFontService,sans-serif" font-weight="400" font-size="41" transform="matrix(1 0 0 1 1120.53 1348)">11</text></g><g clip-path="url(#clip17)"><text fill="#595959" font-family="Calibri,Calibri_MSFontService,sans-serif" font-weight="400" font-size="41" transform="matrix(1 0 0 1 1191.42 1348)">13</text></g><g clip-path="url(#clip18)"><text fill="#595959" font-family="Calibri,Calibri_MSFontService,sans-serif" font-weight="400" font-size="41" transform="matrix(1 0 0 1 1262.31 1348)">15</text></g><g clip-path="url(#clip19)"><text fill="#595959" font-family="Calibri,Calibri_MSFontService,sans-serif" font-weight="400" font-size="41" transform="matrix(1 0 0 1 1333.2 1348)">17</text></g><g clip-path="url(#clip20)"><text fill="#595959" font-family="Calibri,Calibri_MSFontService,sans-serif" font-weight="400" font-size="41" transform="matrix(1 0 0 1 1404.09 1348)">19</text></g><g clip-path="url(#clip21)"><text fill="#595959" font-family="Calibri,Calibri_MSFontService,sans-serif" font-weight="400" font-size="41" transform="matrix(1 0 0 1 1474.98 1348)">21</text></g><g clip-path="url(#clip22)"><text fill="#595959" font-family="Calibri,Calibri_MSFontService,sans-serif" font-weight="400" font-size="41" transform="matrix(1 0 0 1 1545.87 1348)">23</text></g><g clip-path="url(#clip23)"><text fill="#595959" font-family="Calibri,Calibri_MSFontService,sans-serif" font-weight="400" font-size="41" transform="matrix(1 0 0 1 1616.76 1348)">25</text></g><g clip-path="url(#clip24)"><text fill="#595959" font-family="Calibri,Calibri_MSFontService,sans-serif" font-weight="400" font-size="41" transform="matrix(1 0 0 1 1687.65 1348)">27</text></g><g clip-path="url(#clip25)"><text fill="#595959" font-family="Calibri,Calibri_MSFontService,sans-serif" font-weight="400" font-size="41" transform="matrix(1 0 0 1 1758.54 1348)">29</text></g><g clip-path="url(#clip26)"><text fill="#595959" font-family="Calibri,Calibri_MSFontService,sans-serif" font-weight="400" font-size="41" transform="matrix(1 0 0 1 1829.43 1348)">31</text></g><g clip-path="url(#clip27)"><text fill="#595959" font-family="Calibri,Calibri_MSFontService,sans-serif" font-weight="400" font-size="41" transform="matrix(1 0 0 1 1900.32 1348)">33</text></g><g clip-path="url(#clip28)"><text fill="#595959" font-family="Calibri,Calibri_MSFontService,sans-serif" font-weight="400" font-size="41" transform="matrix(1 0 0 1 1971.21 1348)">35</text></g><g clip-path="url(#clip29)"><text fill="#595959" font-family="Calibri,Calibri_MSFontService,sans-serif" font-weight="400" font-size="41" transform="matrix(1 0 0 1 2042.1 1348)">37</text></g><g clip-path="url(#clip30)"><text fill="#595959" font-family="Calibri,Calibri_MSFontService,sans-serif" font-weight="400" font-size="41" transform="matrix(1 0 0 1 2112.99 1348)">39</text></g><g clip-path="url(#clip31)"><text fill="#595959" font-family="Calibri,Calibri_MSFontService,sans-serif" font-weight="400" font-size="41" transform="matrix(1 0 0 1 2183.88 1348)">41</text></g><g clip-path="url(#clip32)"><text fill="#595959" font-family="Calibri,Calibri_MSFontService,sans-serif" font-weight="400" font-size="41" transform="matrix(1 0 0 1 2254.77 1348)">43</text></g><g clip-path="url(#clip33)"><text fill="#595959" font-family="Calibri,Calibri_MSFontService,sans-serif" font-weight="400" font-size="41" transform="matrix(1 0 0 1 2325.66 1348)">45</text></g><g clip-path="url(#clip34)"><text fill="#595959" font-family="Calibri,Calibri_MSFontService,sans-serif" font-weight="400" font-size="41" transform="matrix(1 0 0 1 2396.55 1348)">47</text></g><g clip-path="url(#clip35)"><text fill="#595959" font-family="Calibri,Calibri_MSFontService,sans-serif" font-weight="400" font-size="41" transform="matrix(1 0 0 1 2467.44 1348)">49</text></g><g clip-path="url(#clip36)"><text fill="#595959" font-family="Calibri,Calibri_MSFontService,sans-serif" font-weight="400" font-size="41" transform="matrix(1 0 0 1 2538.33 1348)">51</text></g><g clip-path="url(#clip37)"><text fill="#595959" font-family="Calibri,Calibri_MSFontService,sans-serif" font-weight="400" font-size="41" transform="matrix(1 0 0 1 2609.22 1348)">53</text></g><g clip-path="url(#clip38)"><text fill="#595959" font-family="Calibri,Calibri_MSFontService,sans-serif" font-weight="400" font-size="41" transform="matrix(1 0 0 1 2680.1 1348)">55</text></g><g clip-path="url(#clip39)"><text fill="#595959" font-family="Calibri,Calibri_MSFontService,sans-serif" font-weight="400" font-size="41" transform="matrix(1 0 0 1 2750.99 1348)">57</text></g><g clip-path="url(#clip40)"><text fill="#595959" font-family="Calibri,Calibri_MSFontService,sans-serif" font-weight="400" font-size="41" transform="matrix(1 0 0 1 2821.88 1348)">59</text></g><g clip-path="url(#clip41)"><text fill="#595959" font-family="Calibri,Calibri_MSFontService,sans-serif" font-weight="400" font-size="41" transform="matrix(1 0 0 1 2892.77 1348)">61</text></g><g clip-path="url(#clip42)"><text fill="#595959" font-family="Calibri,Calibri_MSFontService,sans-serif" font-weight="400" font-size="41" transform="matrix(1 0 0 1 2963.66 1348)">63</text></g><g clip-path="url(#clip43)"><text fill="#595959" font-family="Calibri,Calibri_MSFontService,sans-serif" font-weight="400" font-size="41" transform="matrix(1 0 0 1 3034.55 1348)">65</text></g><g clip-path="url(#clip44)"><text fill="#595959" font-family="Calibri,Calibri_MSFontService,sans-serif" font-weight="400" font-size="41" transform="matrix(1 0 0 1 3105.44 1348)">67</text></g><g clip-path="url(#clip45)"><text fill="#595959" font-family="Calibri,Calibri_MSFontService,sans-serif" font-weight="400" font-size="41" transform="matrix(1 0 0 1 3176.33 1348)">69</text></g><g clip-path="url(#clip46)"><text fill="#595959" font-family="Calibri,Calibri_MSFontService,sans-serif" font-weight="400" font-size="41" transform="matrix(1 0 0 1 3247.22 1348)">71</text></g><g clip-path="url(#clip47)"><text fill="#595959" font-family="Calibri,Calibri_MSFontService,sans-serif" font-weight="400" font-size="41" transform="matrix(1 0 0 1 3318.11 1348)">73</text></g><g clip-path="url(#clip48)"><text fill="#595959" font-family="Calibri,Calibri_MSFontService,sans-serif" font-weight="400" font-size="41" transform="matrix(1 0 0 1 3389 1348)">75</text></g><g clip-path="url(#clip49)"><text fill="#595959" font-family="Calibri,Calibri_MSFontService,sans-serif" font-weight="400" font-size="41" transform="matrix(1 0 0 1 3459.89 1348)">77</text></g><g clip-path="url(#clip50)"><text fill="#595959" font-family="Calibri,Calibri_MSFontService,sans-serif" font-weight="400" font-size="41" transform="matrix(1 0 0 1 3530.78 1348)">79</text></g><g clip-path="url(#clip51)"><text fill="#595959" font-family="Calibri,Calibri_MSFontService,sans-serif" font-weight="400" font-size="41" transform="matrix(1 0 0 1 3601.67 1348)">81</text></g><g clip-path="url(#clip52)"><text fill="#595959" font-family="Calibri,Calibri_MSFontService,sans-serif" font-weight="400" font-size="41" transform="matrix(1 0 0 1 3672.56 1348)">83</text></g><g clip-path="url(#clip53)"><text fill="#595959" font-family="Calibri,Calibri_MSFontService,sans-serif" font-weight="400" font-size="41" transform="matrix(1 0 0 1 3743.45 1348)">85</text></g><g clip-path="url(#clip54)"><text fill="#595959" font-family="Calibri,Calibri_MSFontService,sans-serif" font-weight="400" font-size="41" transform="matrix(1 0 0 1 3814.34 1348)">87</text></g><g clip-path="url(#clip55)"><text fill="#595959" font-family="Calibri,Calibri_MSFontService,sans-serif" font-weight="400" font-size="41" transform="matrix(1 0 0 1 3885.23 1348)">89</text></g><g clip-path="url(#clip56)"><text fill="#595959" font-family="Calibri,Calibri_MSFontService,sans-serif" font-weight="400" font-size="41" transform="matrix(1 0 0 1 3956.12 1348)">91</text></g><g clip-path="url(#clip57)"><text fill="#595959" font-family="Calibri,Calibri_MSFontService,sans-serif" font-weight="400" font-size="41" transform="matrix(1 0 0 1 4027.01 1348)">93</text></g><g clip-path="url(#clip58)"><text fill="#595959" font-family="Calibri,Calibri_MSFontService,sans-serif" font-weight="400" font-size="41" transform="matrix(1 0 0 1 4097.9 1348)">95</text></g><g clip-path="url(#clip59)"><text fill="#595959" font-family="Calibri,Calibri_MSFontService,sans-serif" font-weight="400" font-size="41" transform="matrix(1 0 0 1 4168.79 1348)">97</text></g><g clip-path="url(#clip60)"><text fill="#595959" font-family="Calibri,Calibri_MSFontService,sans-serif" font-weight="400" font-size="41" transform="matrix(1 0 0 1 4239.68 1348)">99</text></g><rect x="649.5" y="623.5" width="3682" height="766" stroke="#D9D9D9" stroke-width="3.4375" stroke-linejoin="round" stroke-miterlimit="10" fill="none"/></g></svg>