<?xml version="1.0" encoding="utf-8" standalone="no"?>
<!DOCTYPE svg PUBLIC "-//W3C//DTD SVG 1.1//EN"
  "http://www.w3.org/Graphics/SVG/1.1/DTD/svg11.dtd">
<svg xmlns:xlink="http://www.w3.org/1999/xlink" width="576pt" height="467.712pt" viewBox="0 0 576 467.712" xmlns="http://www.w3.org/2000/svg" version="1.1">
 <metadata>
  <rdf:RDF xmlns:dc="http://purl.org/dc/elements/1.1/" xmlns:cc="http://creativecommons.org/ns#" xmlns:rdf="http://www.w3.org/1999/02/22-rdf-syntax-ns#">
   <cc:Work>
    <dc:type rdf:resource="http://purl.org/dc/dcmitype/StillImage"/>
    <dc:date>2024-05-04T03:30:04.325866</dc:date>
    <dc:format>image/svg+xml</dc:format>
    <dc:creator>
     <cc:Agent>
      <dc:title>Matplotlib v3.8.4, https://matplotlib.org/</dc:title>
     </cc:Agent>
    </dc:creator>
   </cc:Work>
  </rdf:RDF>
 </metadata>
 <defs>
  <style type="text/css">*{stroke-linejoin: round; stroke-linecap: butt}</style>
 </defs>
 <g id="figure_1">
  <g id="patch_1">
   <path d="M 0 467.712 
L 576 467.712 
L 576 0 
L 0 0 
z
" style="fill: #ffffff"/>
  </g>
  <g id="axes_1">
   <g id="patch_2">
    <path d="M 72 416.26368 
L 518.4 416.26368 
L 518.4 56.12544 
L 72 56.12544 
z
" style="fill: #ffffff"/>
   </g>
   <g id="line2d_1">
    <path d="M 72 388.080416 
L 518.4 388.080416 
" clip-path="url(#p650c5ac45f)" style="fill: none; stroke-dasharray: 0.5,2.5; stroke-dashoffset: 0; stroke: #888888; stroke-width: 0.5"/>
   </g>
   <g id="line2d_2">
    <path d="M 72 354.328003 
L 518.4 354.328003 
" clip-path="url(#p650c5ac45f)" style="fill: none; stroke-dasharray: 0.5,2.5; stroke-dashoffset: 0; stroke: #888888; stroke-width: 0.5"/>
   </g>
   <g id="line2d_3">
    <path d="M 72 320.575591 
L 518.4 320.575591 
" clip-path="url(#p650c5ac45f)" style="fill: none; stroke-dasharray: 0.5,2.5; stroke-dashoffset: 0; stroke: #888888; stroke-width: 0.5"/>
   </g>
   <g id="line2d_4">
    <path d="M 72 286.823179 
L 518.4 286.823179 
" clip-path="url(#p650c5ac45f)" style="fill: none; stroke-dasharray: 0.5,2.5; stroke-dashoffset: 0; stroke: #888888; stroke-width: 0.5"/>
   </g>
   <g id="line2d_5">
    <path d="M 72 253.070766 
L 518.4 253.070766 
" clip-path="url(#p650c5ac45f)" style="fill: none; stroke-dasharray: 0.5,2.5; stroke-dashoffset: 0; stroke: #888888; stroke-width: 0.5"/>
   </g>
   <g id="line2d_6">
    <path d="M 72 219.318354 
L 518.4 219.318354 
" clip-path="url(#p650c5ac45f)" style="fill: none; stroke-dasharray: 0.5,2.5; stroke-dashoffset: 0; stroke: #888888; stroke-width: 0.5"/>
   </g>
   <g id="line2d_7">
    <path d="M 72 185.565941 
L 518.4 185.565941 
" clip-path="url(#p650c5ac45f)" style="fill: none; stroke-dasharray: 0.5,2.5; stroke-dashoffset: 0; stroke: #888888; stroke-width: 0.5"/>
   </g>
   <g id="line2d_8">
    <path d="M 72 151.813529 
L 518.4 151.813529 
" clip-path="url(#p650c5ac45f)" style="fill: none; stroke-dasharray: 0.5,2.5; stroke-dashoffset: 0; stroke: #888888; stroke-width: 0.5"/>
   </g>
   <g id="line2d_9">
    <path d="M 72 118.061117 
L 518.4 118.061117 
" clip-path="url(#p650c5ac45f)" style="fill: none; stroke-dasharray: 0.5,2.5; stroke-dashoffset: 0; stroke: #888888; stroke-width: 0.5"/>
   </g>
   <g id="line2d_10">
    <path d="M 72 84.308704 
L 518.4 84.308704 
" clip-path="url(#p650c5ac45f)" style="fill: none; stroke-dasharray: 0.5,2.5; stroke-dashoffset: 0; stroke: #888888; stroke-width: 0.5"/>
   </g>
   <g id="patch_3">
    <path d="M 72 96.122049 
L 104.040755 96.122049 
L 104.040755 72.49536 
L 72 72.49536 
z
" clip-path="url(#p650c5ac45f)" style="fill: #ff0051; stroke: #ffffff; stroke-opacity: 0.8; stroke-linejoin: miter"/>
   </g>
   <g id="patch_4">
    <path d="M 72 129.874461 
L 101.212257 129.874461 
L 101.212257 106.247772 
L 72 106.247772 
z
" clip-path="url(#p650c5ac45f)" style="fill: #ff0051; stroke: #ffffff; stroke-opacity: 0.8; stroke-linejoin: miter"/>
   </g>
   <g id="patch_5">
    <path d="M 72 163.626873 
L 100.574087 163.626873 
L 100.574087 140.000185 
L 72 140.000185 
z
" clip-path="url(#p650c5ac45f)" style="fill: #ff0051; stroke: #ffffff; stroke-opacity: 0.8; stroke-linejoin: miter"/>
   </g>
   <g id="patch_6">
    <path d="M 72 197.379286 
L 90.122945 197.379286 
L 90.122945 173.752597 
L 72 173.752597 
z
" clip-path="url(#p650c5ac45f)" style="fill: #ff0051; stroke: #ffffff; stroke-opacity: 0.8; stroke-linejoin: miter"/>
   </g>
   <g id="patch_7">
    <path d="M 72 231.131698 
L 88.293929 231.131698 
L 88.293929 207.505009 
L 72 207.505009 
z
" clip-path="url(#p650c5ac45f)" style="fill: #ff0051; stroke: #ffffff; stroke-opacity: 0.8; stroke-linejoin: miter"/>
   </g>
   <g id="patch_8">
    <path d="M 72 264.884111 
L 87.054172 264.884111 
L 87.054172 241.257422 
L 72 241.257422 
z
" clip-path="url(#p650c5ac45f)" style="fill: #ff0051; stroke: #ffffff; stroke-opacity: 0.8; stroke-linejoin: miter"/>
   </g>
   <g id="patch_9">
    <path d="M 72 298.636523 
L 81.972931 298.636523 
L 81.972931 275.009834 
L 72 275.009834 
z
" clip-path="url(#p650c5ac45f)" style="fill: #ff0051; stroke: #ffffff; stroke-opacity: 0.8; stroke-linejoin: miter"/>
   </g>
   <g id="patch_10">
    <path d="M 72 332.388935 
L 81.413012 332.388935 
L 81.413012 308.762247 
L 72 308.762247 
z
" clip-path="url(#p650c5ac45f)" style="fill: #ff0051; stroke: #ffffff; stroke-opacity: 0.8; stroke-linejoin: miter"/>
   </g>
   <g id="patch_11">
    <path d="M 72 366.141348 
L 81.100024 366.141348 
L 81.100024 342.514659 
L 72 342.514659 
z
" clip-path="url(#p650c5ac45f)" style="fill: #ff0051; stroke: #ffffff; stroke-opacity: 0.8; stroke-linejoin: miter"/>
   </g>
   <g id="patch_12">
    <path d="M 72 399.89376 
L 476.897959 399.89376 
L 476.897959 376.267071 
L 72 376.267071 
z
" clip-path="url(#p650c5ac45f)" style="fill: #ff0051; stroke: #ffffff; stroke-opacity: 0.8; stroke-linejoin: miter"/>
   </g>
   <g id="matplotlib.axis_1">
    <g id="xtick_1">
     <g id="line2d_11">
      <defs>
       <path id="m65c754dc8f" d="M 0 0 
L 0 3.5 
" style="stroke: #000000; stroke-width: 0.8"/>
      </defs>
      <g>
       <use xlink:href="#m65c754dc8f" x="72" y="416.26368" style="stroke: #000000; stroke-width: 0.8"/>
      </g>
     </g>
     <g id="text_1">
      <!-- 0.0 -->
      <g transform="translate(63.253281 431.621961) scale(0.11 -0.11)">
       <defs>
        <path id="DejaVuSans-30" d="M 2034 4250 
Q 1547 4250 1301 3770 
Q 1056 3291 1056 2328 
Q 1056 1369 1301 889 
Q 1547 409 2034 409 
Q 2525 409 2770 889 
Q 3016 1369 3016 2328 
Q 3016 3291 2770 3770 
Q 2525 4250 2034 4250 
z
M 2034 4750 
Q 2819 4750 3233 4129 
Q 3647 3509 3647 2328 
Q 3647 1150 3233 529 
Q 2819 -91 2034 -91 
Q 1250 -91 836 529 
Q 422 1150 422 2328 
Q 422 3509 836 4129 
Q 1250 4750 2034 4750 
z
" transform="scale(0.015625)"/>
        <path id="DejaVuSans-2e" d="M 684 794 
L 1344 794 
L 1344 0 
L 684 0 
L 684 794 
z
" transform="scale(0.015625)"/>
       </defs>
       <use xlink:href="#DejaVuSans-30"/>
       <use xlink:href="#DejaVuSans-2e" x="63.623047"/>
       <use xlink:href="#DejaVuSans-30" x="95.410156"/>
      </g>
     </g>
    </g>
    <g id="xtick_2">
     <g id="line2d_12">
      <g>
       <use xlink:href="#m65c754dc8f" x="141.303402" y="416.26368" style="stroke: #000000; stroke-width: 0.8"/>
      </g>
     </g>
     <g id="text_2">
      <!-- 0.1 -->
      <g transform="translate(132.556684 431.621961) scale(0.11 -0.11)">
       <defs>
        <path id="DejaVuSans-31" d="M 794 531 
L 1825 531 
L 1825 4091 
L 703 3866 
L 703 4441 
L 1819 4666 
L 2450 4666 
L 2450 531 
L 3481 531 
L 3481 0 
L 794 0 
L 794 531 
z
" transform="scale(0.015625)"/>
       </defs>
       <use xlink:href="#DejaVuSans-30"/>
       <use xlink:href="#DejaVuSans-2e" x="63.623047"/>
       <use xlink:href="#DejaVuSans-31" x="95.410156"/>
      </g>
     </g>
    </g>
    <g id="xtick_3">
     <g id="line2d_13">
      <g>
       <use xlink:href="#m65c754dc8f" x="210.606805" y="416.26368" style="stroke: #000000; stroke-width: 0.8"/>
      </g>
     </g>
     <g id="text_3">
      <!-- 0.2 -->
      <g transform="translate(201.860086 431.621961) scale(0.11 -0.11)">
       <defs>
        <path id="DejaVuSans-32" d="M 1228 531 
L 3431 531 
L 3431 0 
L 469 0 
L 469 531 
Q 828 903 1448 1529 
Q 2069 2156 2228 2338 
Q 2531 2678 2651 2914 
Q 2772 3150 2772 3378 
Q 2772 3750 2511 3984 
Q 2250 4219 1831 4219 
Q 1534 4219 1204 4116 
Q 875 4013 500 3803 
L 500 4441 
Q 881 4594 1212 4672 
Q 1544 4750 1819 4750 
Q 2544 4750 2975 4387 
Q 3406 4025 3406 3419 
Q 3406 3131 3298 2873 
Q 3191 2616 2906 2266 
Q 2828 2175 2409 1742 
Q 1991 1309 1228 531 
z
" transform="scale(0.015625)"/>
       </defs>
       <use xlink:href="#DejaVuSans-30"/>
       <use xlink:href="#DejaVuSans-2e" x="63.623047"/>
       <use xlink:href="#DejaVuSans-32" x="95.410156"/>
      </g>
     </g>
    </g>
    <g id="xtick_4">
     <g id="line2d_14">
      <g>
       <use xlink:href="#m65c754dc8f" x="279.910207" y="416.26368" style="stroke: #000000; stroke-width: 0.8"/>
      </g>
     </g>
     <g id="text_4">
      <!-- 0.3 -->
      <g transform="translate(271.163488 431.621961) scale(0.11 -0.11)">
       <defs>
        <path id="DejaVuSans-33" d="M 2597 2516 
Q 3050 2419 3304 2112 
Q 3559 1806 3559 1356 
Q 3559 666 3084 287 
Q 2609 -91 1734 -91 
Q 1441 -91 1130 -33 
Q 819 25 488 141 
L 488 750 
Q 750 597 1062 519 
Q 1375 441 1716 441 
Q 2309 441 2620 675 
Q 2931 909 2931 1356 
Q 2931 1769 2642 2001 
Q 2353 2234 1838 2234 
L 1294 2234 
L 1294 2753 
L 1863 2753 
Q 2328 2753 2575 2939 
Q 2822 3125 2822 3475 
Q 2822 3834 2567 4026 
Q 2313 4219 1838 4219 
Q 1578 4219 1281 4162 
Q 984 4106 628 3988 
L 628 4550 
Q 988 4650 1302 4700 
Q 1616 4750 1894 4750 
Q 2613 4750 3031 4423 
Q 3450 4097 3450 3541 
Q 3450 3153 3228 2886 
Q 3006 2619 2597 2516 
z
" transform="scale(0.015625)"/>
       </defs>
       <use xlink:href="#DejaVuSans-30"/>
       <use xlink:href="#DejaVuSans-2e" x="63.623047"/>
       <use xlink:href="#DejaVuSans-33" x="95.410156"/>
      </g>
     </g>
    </g>
    <g id="xtick_5">
     <g id="line2d_15">
      <g>
       <use xlink:href="#m65c754dc8f" x="349.21361" y="416.26368" style="stroke: #000000; stroke-width: 0.8"/>
      </g>
     </g>
     <g id="text_5">
      <!-- 0.4 -->
      <g transform="translate(340.466891 431.621961) scale(0.11 -0.11)">
       <defs>
        <path id="DejaVuSans-34" d="M 2419 4116 
L 825 1625 
L 2419 1625 
L 2419 4116 
z
M 2253 4666 
L 3047 4666 
L 3047 1625 
L 3713 1625 
L 3713 1100 
L 3047 1100 
L 3047 0 
L 2419 0 
L 2419 1100 
L 313 1100 
L 313 1709 
L 2253 4666 
z
" transform="scale(0.015625)"/>
       </defs>
       <use xlink:href="#DejaVuSans-30"/>
       <use xlink:href="#DejaVuSans-2e" x="63.623047"/>
       <use xlink:href="#DejaVuSans-34" x="95.410156"/>
      </g>
     </g>
    </g>
    <g id="xtick_6">
     <g id="line2d_16">
      <g>
       <use xlink:href="#m65c754dc8f" x="418.517012" y="416.26368" style="stroke: #000000; stroke-width: 0.8"/>
      </g>
     </g>
     <g id="text_6">
      <!-- 0.5 -->
      <g transform="translate(409.770293 431.621961) scale(0.11 -0.11)">
       <defs>
        <path id="DejaVuSans-35" d="M 691 4666 
L 3169 4666 
L 3169 4134 
L 1269 4134 
L 1269 2991 
Q 1406 3038 1543 3061 
Q 1681 3084 1819 3084 
Q 2600 3084 3056 2656 
Q 3513 2228 3513 1497 
Q 3513 744 3044 326 
Q 2575 -91 1722 -91 
Q 1428 -91 1123 -41 
Q 819 9 494 109 
L 494 744 
Q 775 591 1075 516 
Q 1375 441 1709 441 
Q 2250 441 2565 725 
Q 2881 1009 2881 1497 
Q 2881 1984 2565 2268 
Q 2250 2553 1709 2553 
Q 1456 2553 1204 2497 
Q 953 2441 691 2322 
L 691 4666 
z
" transform="scale(0.015625)"/>
       </defs>
       <use xlink:href="#DejaVuSans-30"/>
       <use xlink:href="#DejaVuSans-2e" x="63.623047"/>
       <use xlink:href="#DejaVuSans-35" x="95.410156"/>
      </g>
     </g>
    </g>
    <g id="xtick_7">
     <g id="line2d_17">
      <g>
       <use xlink:href="#m65c754dc8f" x="487.820414" y="416.26368" style="stroke: #000000; stroke-width: 0.8"/>
      </g>
     </g>
     <g id="text_7">
      <!-- 0.6 -->
      <g transform="translate(479.073696 431.621961) scale(0.11 -0.11)">
       <defs>
        <path id="DejaVuSans-36" d="M 2113 2584 
Q 1688 2584 1439 2293 
Q 1191 2003 1191 1497 
Q 1191 994 1439 701 
Q 1688 409 2113 409 
Q 2538 409 2786 701 
Q 3034 994 3034 1497 
Q 3034 2003 2786 2293 
Q 2538 2584 2113 2584 
z
M 3366 4563 
L 3366 3988 
Q 3128 4100 2886 4159 
Q 2644 4219 2406 4219 
Q 1781 4219 1451 3797 
Q 1122 3375 1075 2522 
Q 1259 2794 1537 2939 
Q 1816 3084 2150 3084 
Q 2853 3084 3261 2657 
Q 3669 2231 3669 1497 
Q 3669 778 3244 343 
Q 2819 -91 2113 -91 
Q 1303 -91 875 529 
Q 447 1150 447 2328 
Q 447 3434 972 4092 
Q 1497 4750 2381 4750 
Q 2619 4750 2861 4703 
Q 3103 4656 3366 4563 
z
" transform="scale(0.015625)"/>
       </defs>
       <use xlink:href="#DejaVuSans-30"/>
       <use xlink:href="#DejaVuSans-2e" x="63.623047"/>
       <use xlink:href="#DejaVuSans-36" x="95.410156"/>
      </g>
     </g>
    </g>
    <g id="text_8">
     <!-- mean(|SHAP value|) -->
     <g transform="translate(230.113672 447.844461) scale(0.13 -0.13)">
      <defs>
       <path id="DejaVuSans-6d" d="M 3328 2828 
Q 3544 3216 3844 3400 
Q 4144 3584 4550 3584 
Q 5097 3584 5394 3201 
Q 5691 2819 5691 2113 
L 5691 0 
L 5113 0 
L 5113 2094 
Q 5113 2597 4934 2840 
Q 4756 3084 4391 3084 
Q 3944 3084 3684 2787 
Q 3425 2491 3425 1978 
L 3425 0 
L 2847 0 
L 2847 2094 
Q 2847 2600 2669 2842 
Q 2491 3084 2119 3084 
Q 1678 3084 1418 2786 
Q 1159 2488 1159 1978 
L 1159 0 
L 581 0 
L 581 3500 
L 1159 3500 
L 1159 2956 
Q 1356 3278 1631 3431 
Q 1906 3584 2284 3584 
Q 2666 3584 2933 3390 
Q 3200 3197 3328 2828 
z
" transform="scale(0.015625)"/>
       <path id="DejaVuSans-65" d="M 3597 1894 
L 3597 1613 
L 953 1613 
Q 991 1019 1311 708 
Q 1631 397 2203 397 
Q 2534 397 2845 478 
Q 3156 559 3463 722 
L 3463 178 
Q 3153 47 2828 -22 
Q 2503 -91 2169 -91 
Q 1331 -91 842 396 
Q 353 884 353 1716 
Q 353 2575 817 3079 
Q 1281 3584 2069 3584 
Q 2775 3584 3186 3129 
Q 3597 2675 3597 1894 
z
M 3022 2063 
Q 3016 2534 2758 2815 
Q 2500 3097 2075 3097 
Q 1594 3097 1305 2825 
Q 1016 2553 972 2059 
L 3022 2063 
z
" transform="scale(0.015625)"/>
       <path id="DejaVuSans-61" d="M 2194 1759 
Q 1497 1759 1228 1600 
Q 959 1441 959 1056 
Q 959 750 1161 570 
Q 1363 391 1709 391 
Q 2188 391 2477 730 
Q 2766 1069 2766 1631 
L 2766 1759 
L 2194 1759 
z
M 3341 1997 
L 3341 0 
L 2766 0 
L 2766 531 
Q 2569 213 2275 61 
Q 1981 -91 1556 -91 
Q 1019 -91 701 211 
Q 384 513 384 1019 
Q 384 1609 779 1909 
Q 1175 2209 1959 2209 
L 2766 2209 
L 2766 2266 
Q 2766 2663 2505 2880 
Q 2244 3097 1772 3097 
Q 1472 3097 1187 3025 
Q 903 2953 641 2809 
L 641 3341 
Q 956 3463 1253 3523 
Q 1550 3584 1831 3584 
Q 2591 3584 2966 3190 
Q 3341 2797 3341 1997 
z
" transform="scale(0.015625)"/>
       <path id="DejaVuSans-6e" d="M 3513 2113 
L 3513 0 
L 2938 0 
L 2938 2094 
Q 2938 2591 2744 2837 
Q 2550 3084 2163 3084 
Q 1697 3084 1428 2787 
Q 1159 2491 1159 1978 
L 1159 0 
L 581 0 
L 581 3500 
L 1159 3500 
L 1159 2956 
Q 1366 3272 1645 3428 
Q 1925 3584 2291 3584 
Q 2894 3584 3203 3211 
Q 3513 2838 3513 2113 
z
" transform="scale(0.015625)"/>
       <path id="DejaVuSans-28" d="M 1984 4856 
Q 1566 4138 1362 3434 
Q 1159 2731 1159 2009 
Q 1159 1288 1364 580 
Q 1569 -128 1984 -844 
L 1484 -844 
Q 1016 -109 783 600 
Q 550 1309 550 2009 
Q 550 2706 781 3412 
Q 1013 4119 1484 4856 
L 1984 4856 
z
" transform="scale(0.015625)"/>
       <path id="DejaVuSans-7c" d="M 1344 4891 
L 1344 -1509 
L 813 -1509 
L 813 4891 
L 1344 4891 
z
" transform="scale(0.015625)"/>
       <path id="DejaVuSans-53" d="M 3425 4513 
L 3425 3897 
Q 3066 4069 2747 4153 
Q 2428 4238 2131 4238 
Q 1616 4238 1336 4038 
Q 1056 3838 1056 3469 
Q 1056 3159 1242 3001 
Q 1428 2844 1947 2747 
L 2328 2669 
Q 3034 2534 3370 2195 
Q 3706 1856 3706 1288 
Q 3706 609 3251 259 
Q 2797 -91 1919 -91 
Q 1588 -91 1214 -16 
Q 841 59 441 206 
L 441 856 
Q 825 641 1194 531 
Q 1563 422 1919 422 
Q 2459 422 2753 634 
Q 3047 847 3047 1241 
Q 3047 1584 2836 1778 
Q 2625 1972 2144 2069 
L 1759 2144 
Q 1053 2284 737 2584 
Q 422 2884 422 3419 
Q 422 4038 858 4394 
Q 1294 4750 2059 4750 
Q 2388 4750 2728 4690 
Q 3069 4631 3425 4513 
z
" transform="scale(0.015625)"/>
       <path id="DejaVuSans-48" d="M 628 4666 
L 1259 4666 
L 1259 2753 
L 3553 2753 
L 3553 4666 
L 4184 4666 
L 4184 0 
L 3553 0 
L 3553 2222 
L 1259 2222 
L 1259 0 
L 628 0 
L 628 4666 
z
" transform="scale(0.015625)"/>
       <path id="DejaVuSans-41" d="M 2188 4044 
L 1331 1722 
L 3047 1722 
L 2188 4044 
z
M 1831 4666 
L 2547 4666 
L 4325 0 
L 3669 0 
L 3244 1197 
L 1141 1197 
L 716 0 
L 50 0 
L 1831 4666 
z
" transform="scale(0.015625)"/>
       <path id="DejaVuSans-50" d="M 1259 4147 
L 1259 2394 
L 2053 2394 
Q 2494 2394 2734 2622 
Q 2975 2850 2975 3272 
Q 2975 3691 2734 3919 
Q 2494 4147 2053 4147 
L 1259 4147 
z
M 628 4666 
L 2053 4666 
Q 2838 4666 3239 4311 
Q 3641 3956 3641 3272 
Q 3641 2581 3239 2228 
Q 2838 1875 2053 1875 
L 1259 1875 
L 1259 0 
L 628 0 
L 628 4666 
z
" transform="scale(0.015625)"/>
       <path id="DejaVuSans-20" transform="scale(0.015625)"/>
       <path id="DejaVuSans-76" d="M 191 3500 
L 800 3500 
L 1894 563 
L 2988 3500 
L 3597 3500 
L 2284 0 
L 1503 0 
L 191 3500 
z
" transform="scale(0.015625)"/>
       <path id="DejaVuSans-6c" d="M 603 4863 
L 1178 4863 
L 1178 0 
L 603 0 
L 603 4863 
z
" transform="scale(0.015625)"/>
       <path id="DejaVuSans-75" d="M 544 1381 
L 544 3500 
L 1119 3500 
L 1119 1403 
Q 1119 906 1312 657 
Q 1506 409 1894 409 
Q 2359 409 2629 706 
Q 2900 1003 2900 1516 
L 2900 3500 
L 3475 3500 
L 3475 0 
L 2900 0 
L 2900 538 
Q 2691 219 2414 64 
Q 2138 -91 1772 -91 
Q 1169 -91 856 284 
Q 544 659 544 1381 
z
M 1991 3584 
L 1991 3584 
z
" transform="scale(0.015625)"/>
       <path id="DejaVuSans-29" d="M 513 4856 
L 1013 4856 
Q 1481 4119 1714 3412 
Q 1947 2706 1947 2009 
Q 1947 1309 1714 600 
Q 1481 -109 1013 -844 
L 513 -844 
Q 928 -128 1133 580 
Q 1338 1288 1338 2009 
Q 1338 2731 1133 3434 
Q 928 4138 513 4856 
z
" transform="scale(0.015625)"/>
      </defs>
      <use xlink:href="#DejaVuSans-6d"/>
      <use xlink:href="#DejaVuSans-65" x="97.412109"/>
      <use xlink:href="#DejaVuSans-61" x="158.935547"/>
      <use xlink:href="#DejaVuSans-6e" x="220.214844"/>
      <use xlink:href="#DejaVuSans-28" x="283.59375"/>
      <use xlink:href="#DejaVuSans-7c" x="322.607422"/>
      <use xlink:href="#DejaVuSans-53" x="356.298828"/>
      <use xlink:href="#DejaVuSans-48" x="419.775391"/>
      <use xlink:href="#DejaVuSans-41" x="494.970703"/>
      <use xlink:href="#DejaVuSans-50" x="563.378906"/>
      <use xlink:href="#DejaVuSans-20" x="623.681641"/>
      <use xlink:href="#DejaVuSans-76" x="655.46875"/>
      <use xlink:href="#DejaVuSans-61" x="714.648438"/>
      <use xlink:href="#DejaVuSans-6c" x="775.927734"/>
      <use xlink:href="#DejaVuSans-75" x="803.710938"/>
      <use xlink:href="#DejaVuSans-65" x="867.089844"/>
      <use xlink:href="#DejaVuSans-7c" x="928.613281"/>
      <use xlink:href="#DejaVuSans-29" x="962.304688"/>
     </g>
    </g>
   </g>
   <g id="matplotlib.axis_2">
    <g id="ytick_1">
     <g id="text_9">
      <!-- Feature 5626 -->
      <g style="fill: #999999" transform="translate(-21.330156 89.247689) scale(0.13 -0.13)">
       <defs>
        <path id="DejaVuSans-46" d="M 628 4666 
L 3309 4666 
L 3309 4134 
L 1259 4134 
L 1259 2759 
L 3109 2759 
L 3109 2228 
L 1259 2228 
L 1259 0 
L 628 0 
L 628 4666 
z
" transform="scale(0.015625)"/>
        <path id="DejaVuSans-74" d="M 1172 4494 
L 1172 3500 
L 2356 3500 
L 2356 3053 
L 1172 3053 
L 1172 1153 
Q 1172 725 1289 603 
Q 1406 481 1766 481 
L 2356 481 
L 2356 0 
L 1766 0 
Q 1100 0 847 248 
Q 594 497 594 1153 
L 594 3053 
L 172 3053 
L 172 3500 
L 594 3500 
L 594 4494 
L 1172 4494 
z
" transform="scale(0.015625)"/>
        <path id="DejaVuSans-72" d="M 2631 2963 
Q 2534 3019 2420 3045 
Q 2306 3072 2169 3072 
Q 1681 3072 1420 2755 
Q 1159 2438 1159 1844 
L 1159 0 
L 581 0 
L 581 3500 
L 1159 3500 
L 1159 2956 
Q 1341 3275 1631 3429 
Q 1922 3584 2338 3584 
Q 2397 3584 2469 3576 
Q 2541 3569 2628 3553 
L 2631 2963 
z
" transform="scale(0.015625)"/>
       </defs>
       <use xlink:href="#DejaVuSans-46"/>
       <use xlink:href="#DejaVuSans-65" x="52.019531"/>
       <use xlink:href="#DejaVuSans-61" x="113.542969"/>
       <use xlink:href="#DejaVuSans-74" x="174.822266"/>
       <use xlink:href="#DejaVuSans-75" x="214.03125"/>
       <use xlink:href="#DejaVuSans-72" x="277.410156"/>
       <use xlink:href="#DejaVuSans-65" x="316.273438"/>
       <use xlink:href="#DejaVuSans-20" x="377.796875"/>
       <use xlink:href="#DejaVuSans-35" x="409.583984"/>
       <use xlink:href="#DejaVuSans-36" x="473.207031"/>
       <use xlink:href="#DejaVuSans-32" x="536.830078"/>
       <use xlink:href="#DejaVuSans-36" x="600.453125"/>
      </g>
     </g>
    </g>
    <g id="ytick_2">
     <g id="text_10">
      <!-- Feature 707 -->
      <g style="fill: #999999" transform="translate(-13.058906 123.000101) scale(0.13 -0.13)">
       <defs>
        <path id="DejaVuSans-37" d="M 525 4666 
L 3525 4666 
L 3525 4397 
L 1831 0 
L 1172 0 
L 2766 4134 
L 525 4134 
L 525 4666 
z
" transform="scale(0.015625)"/>
       </defs>
       <use xlink:href="#DejaVuSans-46"/>
       <use xlink:href="#DejaVuSans-65" x="52.019531"/>
       <use xlink:href="#DejaVuSans-61" x="113.542969"/>
       <use xlink:href="#DejaVuSans-74" x="174.822266"/>
       <use xlink:href="#DejaVuSans-75" x="214.03125"/>
       <use xlink:href="#DejaVuSans-72" x="277.410156"/>
       <use xlink:href="#DejaVuSans-65" x="316.273438"/>
       <use xlink:href="#DejaVuSans-20" x="377.796875"/>
       <use xlink:href="#DejaVuSans-37" x="409.583984"/>
       <use xlink:href="#DejaVuSans-30" x="473.207031"/>
       <use xlink:href="#DejaVuSans-37" x="536.830078"/>
      </g>
     </g>
    </g>
    <g id="ytick_3">
     <g id="text_11">
      <!-- Feature 6264 -->
      <g style="fill: #999999" transform="translate(-21.330156 156.752513) scale(0.13 -0.13)">
       <use xlink:href="#DejaVuSans-46"/>
       <use xlink:href="#DejaVuSans-65" x="52.019531"/>
       <use xlink:href="#DejaVuSans-61" x="113.542969"/>
       <use xlink:href="#DejaVuSans-74" x="174.822266"/>
       <use xlink:href="#DejaVuSans-75" x="214.03125"/>
       <use xlink:href="#DejaVuSans-72" x="277.410156"/>
       <use xlink:href="#DejaVuSans-65" x="316.273438"/>
       <use xlink:href="#DejaVuSans-20" x="377.796875"/>
       <use xlink:href="#DejaVuSans-36" x="409.583984"/>
       <use xlink:href="#DejaVuSans-32" x="473.207031"/>
       <use xlink:href="#DejaVuSans-36" x="536.830078"/>
       <use xlink:href="#DejaVuSans-34" x="600.453125"/>
      </g>
     </g>
    </g>
    <g id="ytick_4">
     <g id="text_12">
      <!-- Feature 1792 -->
      <g style="fill: #999999" transform="translate(-21.330156 190.504926) scale(0.13 -0.13)">
       <defs>
        <path id="DejaVuSans-39" d="M 703 97 
L 703 672 
Q 941 559 1184 500 
Q 1428 441 1663 441 
Q 2288 441 2617 861 
Q 2947 1281 2994 2138 
Q 2813 1869 2534 1725 
Q 2256 1581 1919 1581 
Q 1219 1581 811 2004 
Q 403 2428 403 3163 
Q 403 3881 828 4315 
Q 1253 4750 1959 4750 
Q 2769 4750 3195 4129 
Q 3622 3509 3622 2328 
Q 3622 1225 3098 567 
Q 2575 -91 1691 -91 
Q 1453 -91 1209 -44 
Q 966 3 703 97 
z
M 1959 2075 
Q 2384 2075 2632 2365 
Q 2881 2656 2881 3163 
Q 2881 3666 2632 3958 
Q 2384 4250 1959 4250 
Q 1534 4250 1286 3958 
Q 1038 3666 1038 3163 
Q 1038 2656 1286 2365 
Q 1534 2075 1959 2075 
z
" transform="scale(0.015625)"/>
       </defs>
       <use xlink:href="#DejaVuSans-46"/>
       <use xlink:href="#DejaVuSans-65" x="52.019531"/>
       <use xlink:href="#DejaVuSans-61" x="113.542969"/>
       <use xlink:href="#DejaVuSans-74" x="174.822266"/>
       <use xlink:href="#DejaVuSans-75" x="214.03125"/>
       <use xlink:href="#DejaVuSans-72" x="277.410156"/>
       <use xlink:href="#DejaVuSans-65" x="316.273438"/>
       <use xlink:href="#DejaVuSans-20" x="377.796875"/>
       <use xlink:href="#DejaVuSans-31" x="409.583984"/>
       <use xlink:href="#DejaVuSans-37" x="473.207031"/>
       <use xlink:href="#DejaVuSans-39" x="536.830078"/>
       <use xlink:href="#DejaVuSans-32" x="600.453125"/>
      </g>
     </g>
    </g>
    <g id="ytick_5">
     <g id="text_13">
      <!-- Feature 247 -->
      <g style="fill: #999999" transform="translate(-13.058906 224.257338) scale(0.13 -0.13)">
       <use xlink:href="#DejaVuSans-46"/>
       <use xlink:href="#DejaVuSans-65" x="52.019531"/>
       <use xlink:href="#DejaVuSans-61" x="113.542969"/>
       <use xlink:href="#DejaVuSans-74" x="174.822266"/>
       <use xlink:href="#DejaVuSans-75" x="214.03125"/>
       <use xlink:href="#DejaVuSans-72" x="277.410156"/>
       <use xlink:href="#DejaVuSans-65" x="316.273438"/>
       <use xlink:href="#DejaVuSans-20" x="377.796875"/>
       <use xlink:href="#DejaVuSans-32" x="409.583984"/>
       <use xlink:href="#DejaVuSans-34" x="473.207031"/>
       <use xlink:href="#DejaVuSans-37" x="536.830078"/>
      </g>
     </g>
    </g>
    <g id="ytick_6">
     <g id="text_14">
      <!-- Feature 4510 -->
      <g style="fill: #999999" transform="translate(-21.330156 258.009751) scale(0.13 -0.13)">
       <use xlink:href="#DejaVuSans-46"/>
       <use xlink:href="#DejaVuSans-65" x="52.019531"/>
       <use xlink:href="#DejaVuSans-61" x="113.542969"/>
       <use xlink:href="#DejaVuSans-74" x="174.822266"/>
       <use xlink:href="#DejaVuSans-75" x="214.03125"/>
       <use xlink:href="#DejaVuSans-72" x="277.410156"/>
       <use xlink:href="#DejaVuSans-65" x="316.273438"/>
       <use xlink:href="#DejaVuSans-20" x="377.796875"/>
       <use xlink:href="#DejaVuSans-34" x="409.583984"/>
       <use xlink:href="#DejaVuSans-35" x="473.207031"/>
       <use xlink:href="#DejaVuSans-31" x="536.830078"/>
       <use xlink:href="#DejaVuSans-30" x="600.453125"/>
      </g>
     </g>
    </g>
    <g id="ytick_7">
     <g id="text_15">
      <!-- Feature 2800 -->
      <g style="fill: #999999" transform="translate(-21.330156 291.762163) scale(0.13 -0.13)">
       <defs>
        <path id="DejaVuSans-38" d="M 2034 2216 
Q 1584 2216 1326 1975 
Q 1069 1734 1069 1313 
Q 1069 891 1326 650 
Q 1584 409 2034 409 
Q 2484 409 2743 651 
Q 3003 894 3003 1313 
Q 3003 1734 2745 1975 
Q 2488 2216 2034 2216 
z
M 1403 2484 
Q 997 2584 770 2862 
Q 544 3141 544 3541 
Q 544 4100 942 4425 
Q 1341 4750 2034 4750 
Q 2731 4750 3128 4425 
Q 3525 4100 3525 3541 
Q 3525 3141 3298 2862 
Q 3072 2584 2669 2484 
Q 3125 2378 3379 2068 
Q 3634 1759 3634 1313 
Q 3634 634 3220 271 
Q 2806 -91 2034 -91 
Q 1263 -91 848 271 
Q 434 634 434 1313 
Q 434 1759 690 2068 
Q 947 2378 1403 2484 
z
M 1172 3481 
Q 1172 3119 1398 2916 
Q 1625 2713 2034 2713 
Q 2441 2713 2670 2916 
Q 2900 3119 2900 3481 
Q 2900 3844 2670 4047 
Q 2441 4250 2034 4250 
Q 1625 4250 1398 4047 
Q 1172 3844 1172 3481 
z
" transform="scale(0.015625)"/>
       </defs>
       <use xlink:href="#DejaVuSans-46"/>
       <use xlink:href="#DejaVuSans-65" x="52.019531"/>
       <use xlink:href="#DejaVuSans-61" x="113.542969"/>
       <use xlink:href="#DejaVuSans-74" x="174.822266"/>
       <use xlink:href="#DejaVuSans-75" x="214.03125"/>
       <use xlink:href="#DejaVuSans-72" x="277.410156"/>
       <use xlink:href="#DejaVuSans-65" x="316.273438"/>
       <use xlink:href="#DejaVuSans-20" x="377.796875"/>
       <use xlink:href="#DejaVuSans-32" x="409.583984"/>
       <use xlink:href="#DejaVuSans-38" x="473.207031"/>
       <use xlink:href="#DejaVuSans-30" x="536.830078"/>
       <use xlink:href="#DejaVuSans-30" x="600.453125"/>
      </g>
     </g>
    </g>
    <g id="ytick_8">
     <g id="text_16">
      <!-- Feature 6204 -->
      <g style="fill: #999999" transform="translate(-21.330156 325.514575) scale(0.13 -0.13)">
       <use xlink:href="#DejaVuSans-46"/>
       <use xlink:href="#DejaVuSans-65" x="52.019531"/>
       <use xlink:href="#DejaVuSans-61" x="113.542969"/>
       <use xlink:href="#DejaVuSans-74" x="174.822266"/>
       <use xlink:href="#DejaVuSans-75" x="214.03125"/>
       <use xlink:href="#DejaVuSans-72" x="277.410156"/>
       <use xlink:href="#DejaVuSans-65" x="316.273438"/>
       <use xlink:href="#DejaVuSans-20" x="377.796875"/>
       <use xlink:href="#DejaVuSans-36" x="409.583984"/>
       <use xlink:href="#DejaVuSans-32" x="473.207031"/>
       <use xlink:href="#DejaVuSans-30" x="536.830078"/>
       <use xlink:href="#DejaVuSans-34" x="600.453125"/>
      </g>
     </g>
    </g>
    <g id="ytick_9">
     <g id="text_17">
      <!-- Feature 8921 -->
      <g style="fill: #999999" transform="translate(-21.330156 359.266988) scale(0.13 -0.13)">
       <use xlink:href="#DejaVuSans-46"/>
       <use xlink:href="#DejaVuSans-65" x="52.019531"/>
       <use xlink:href="#DejaVuSans-61" x="113.542969"/>
       <use xlink:href="#DejaVuSans-74" x="174.822266"/>
       <use xlink:href="#DejaVuSans-75" x="214.03125"/>
       <use xlink:href="#DejaVuSans-72" x="277.410156"/>
       <use xlink:href="#DejaVuSans-65" x="316.273438"/>
       <use xlink:href="#DejaVuSans-20" x="377.796875"/>
       <use xlink:href="#DejaVuSans-38" x="409.583984"/>
       <use xlink:href="#DejaVuSans-39" x="473.207031"/>
       <use xlink:href="#DejaVuSans-32" x="536.830078"/>
       <use xlink:href="#DejaVuSans-31" x="600.453125"/>
      </g>
     </g>
    </g>
    <g id="ytick_10">
     <g id="text_18">
      <!-- Sum of 13154 other features -->
      <g style="fill: #999999" transform="translate(-122.900781 393.0194) scale(0.13 -0.13)">
       <defs>
        <path id="DejaVuSans-6f" d="M 1959 3097 
Q 1497 3097 1228 2736 
Q 959 2375 959 1747 
Q 959 1119 1226 758 
Q 1494 397 1959 397 
Q 2419 397 2687 759 
Q 2956 1122 2956 1747 
Q 2956 2369 2687 2733 
Q 2419 3097 1959 3097 
z
M 1959 3584 
Q 2709 3584 3137 3096 
Q 3566 2609 3566 1747 
Q 3566 888 3137 398 
Q 2709 -91 1959 -91 
Q 1206 -91 779 398 
Q 353 888 353 1747 
Q 353 2609 779 3096 
Q 1206 3584 1959 3584 
z
" transform="scale(0.015625)"/>
        <path id="DejaVuSans-66" d="M 2375 4863 
L 2375 4384 
L 1825 4384 
Q 1516 4384 1395 4259 
Q 1275 4134 1275 3809 
L 1275 3500 
L 2222 3500 
L 2222 3053 
L 1275 3053 
L 1275 0 
L 697 0 
L 697 3053 
L 147 3053 
L 147 3500 
L 697 3500 
L 697 3744 
Q 697 4328 969 4595 
Q 1241 4863 1831 4863 
L 2375 4863 
z
" transform="scale(0.015625)"/>
        <path id="DejaVuSans-68" d="M 3513 2113 
L 3513 0 
L 2938 0 
L 2938 2094 
Q 2938 2591 2744 2837 
Q 2550 3084 2163 3084 
Q 1697 3084 1428 2787 
Q 1159 2491 1159 1978 
L 1159 0 
L 581 0 
L 581 4863 
L 1159 4863 
L 1159 2956 
Q 1366 3272 1645 3428 
Q 1925 3584 2291 3584 
Q 2894 3584 3203 3211 
Q 3513 2838 3513 2113 
z
" transform="scale(0.015625)"/>
        <path id="DejaVuSans-73" d="M 2834 3397 
L 2834 2853 
Q 2591 2978 2328 3040 
Q 2066 3103 1784 3103 
Q 1356 3103 1142 2972 
Q 928 2841 928 2578 
Q 928 2378 1081 2264 
Q 1234 2150 1697 2047 
L 1894 2003 
Q 2506 1872 2764 1633 
Q 3022 1394 3022 966 
Q 3022 478 2636 193 
Q 2250 -91 1575 -91 
Q 1294 -91 989 -36 
Q 684 19 347 128 
L 347 722 
Q 666 556 975 473 
Q 1284 391 1588 391 
Q 1994 391 2212 530 
Q 2431 669 2431 922 
Q 2431 1156 2273 1281 
Q 2116 1406 1581 1522 
L 1381 1569 
Q 847 1681 609 1914 
Q 372 2147 372 2553 
Q 372 3047 722 3315 
Q 1072 3584 1716 3584 
Q 2034 3584 2315 3537 
Q 2597 3491 2834 3397 
z
" transform="scale(0.015625)"/>
       </defs>
       <use xlink:href="#DejaVuSans-53"/>
       <use xlink:href="#DejaVuSans-75" x="63.476562"/>
       <use xlink:href="#DejaVuSans-6d" x="126.855469"/>
       <use xlink:href="#DejaVuSans-20" x="224.267578"/>
       <use xlink:href="#DejaVuSans-6f" x="256.054688"/>
       <use xlink:href="#DejaVuSans-66" x="317.236328"/>
       <use xlink:href="#DejaVuSans-20" x="352.441406"/>
       <use xlink:href="#DejaVuSans-31" x="384.228516"/>
       <use xlink:href="#DejaVuSans-33" x="447.851562"/>
       <use xlink:href="#DejaVuSans-31" x="511.474609"/>
       <use xlink:href="#DejaVuSans-35" x="575.097656"/>
       <use xlink:href="#DejaVuSans-34" x="638.720703"/>
       <use xlink:href="#DejaVuSans-20" x="702.34375"/>
       <use xlink:href="#DejaVuSans-6f" x="734.130859"/>
       <use xlink:href="#DejaVuSans-74" x="795.3125"/>
       <use xlink:href="#DejaVuSans-68" x="834.521484"/>
       <use xlink:href="#DejaVuSans-65" x="897.900391"/>
       <use xlink:href="#DejaVuSans-72" x="959.423828"/>
       <use xlink:href="#DejaVuSans-20" x="1000.537109"/>
       <use xlink:href="#DejaVuSans-66" x="1032.324219"/>
       <use xlink:href="#DejaVuSans-65" x="1067.529297"/>
       <use xlink:href="#DejaVuSans-61" x="1129.052734"/>
       <use xlink:href="#DejaVuSans-74" x="1190.332031"/>
       <use xlink:href="#DejaVuSans-75" x="1229.541016"/>
       <use xlink:href="#DejaVuSans-72" x="1292.919922"/>
       <use xlink:href="#DejaVuSans-65" x="1331.783203"/>
       <use xlink:href="#DejaVuSans-73" x="1393.306641"/>
      </g>
     </g>
    </g>
    <g id="ytick_11">
     <g id="text_19">
      <!-- Feature 5626 -->
      <g transform="translate(-21.330156 89.247688) scale(0.13 -0.13)">
       <use xlink:href="#DejaVuSans-46"/>
       <use xlink:href="#DejaVuSans-65" x="52.019531"/>
       <use xlink:href="#DejaVuSans-61" x="113.542969"/>
       <use xlink:href="#DejaVuSans-74" x="174.822266"/>
       <use xlink:href="#DejaVuSans-75" x="214.03125"/>
       <use xlink:href="#DejaVuSans-72" x="277.410156"/>
       <use xlink:href="#DejaVuSans-65" x="316.273438"/>
       <use xlink:href="#DejaVuSans-20" x="377.796875"/>
       <use xlink:href="#DejaVuSans-35" x="409.583984"/>
       <use xlink:href="#DejaVuSans-36" x="473.207031"/>
       <use xlink:href="#DejaVuSans-32" x="536.830078"/>
       <use xlink:href="#DejaVuSans-36" x="600.453125"/>
      </g>
     </g>
    </g>
    <g id="ytick_12">
     <g id="text_20">
      <!-- Feature 707 -->
      <g transform="translate(-13.058906 123.000101) scale(0.13 -0.13)">
       <use xlink:href="#DejaVuSans-46"/>
       <use xlink:href="#DejaVuSans-65" x="52.019531"/>
       <use xlink:href="#DejaVuSans-61" x="113.542969"/>
       <use xlink:href="#DejaVuSans-74" x="174.822266"/>
       <use xlink:href="#DejaVuSans-75" x="214.03125"/>
       <use xlink:href="#DejaVuSans-72" x="277.410156"/>
       <use xlink:href="#DejaVuSans-65" x="316.273438"/>
       <use xlink:href="#DejaVuSans-20" x="377.796875"/>
       <use xlink:href="#DejaVuSans-37" x="409.583984"/>
       <use xlink:href="#DejaVuSans-30" x="473.207031"/>
       <use xlink:href="#DejaVuSans-37" x="536.830078"/>
      </g>
     </g>
    </g>
    <g id="ytick_13">
     <g id="text_21">
      <!-- Feature 6264 -->
      <g transform="translate(-21.330156 156.752513) scale(0.13 -0.13)">
       <use xlink:href="#DejaVuSans-46"/>
       <use xlink:href="#DejaVuSans-65" x="52.019531"/>
       <use xlink:href="#DejaVuSans-61" x="113.542969"/>
       <use xlink:href="#DejaVuSans-74" x="174.822266"/>
       <use xlink:href="#DejaVuSans-75" x="214.03125"/>
       <use xlink:href="#DejaVuSans-72" x="277.410156"/>
       <use xlink:href="#DejaVuSans-65" x="316.273438"/>
       <use xlink:href="#DejaVuSans-20" x="377.796875"/>
       <use xlink:href="#DejaVuSans-36" x="409.583984"/>
       <use xlink:href="#DejaVuSans-32" x="473.207031"/>
       <use xlink:href="#DejaVuSans-36" x="536.830078"/>
       <use xlink:href="#DejaVuSans-34" x="600.453125"/>
      </g>
     </g>
    </g>
    <g id="ytick_14">
     <g id="text_22">
      <!-- Feature 1792 -->
      <g transform="translate(-21.330156 190.504925) scale(0.13 -0.13)">
       <use xlink:href="#DejaVuSans-46"/>
       <use xlink:href="#DejaVuSans-65" x="52.019531"/>
       <use xlink:href="#DejaVuSans-61" x="113.542969"/>
       <use xlink:href="#DejaVuSans-74" x="174.822266"/>
       <use xlink:href="#DejaVuSans-75" x="214.03125"/>
       <use xlink:href="#DejaVuSans-72" x="277.410156"/>
       <use xlink:href="#DejaVuSans-65" x="316.273438"/>
       <use xlink:href="#DejaVuSans-20" x="377.796875"/>
       <use xlink:href="#DejaVuSans-31" x="409.583984"/>
       <use xlink:href="#DejaVuSans-37" x="473.207031"/>
       <use xlink:href="#DejaVuSans-39" x="536.830078"/>
       <use xlink:href="#DejaVuSans-32" x="600.453125"/>
      </g>
     </g>
    </g>
    <g id="ytick_15">
     <g id="text_23">
      <!-- Feature 247 -->
      <g transform="translate(-13.058906 224.257338) scale(0.13 -0.13)">
       <use xlink:href="#DejaVuSans-46"/>
       <use xlink:href="#DejaVuSans-65" x="52.019531"/>
       <use xlink:href="#DejaVuSans-61" x="113.542969"/>
       <use xlink:href="#DejaVuSans-74" x="174.822266"/>
       <use xlink:href="#DejaVuSans-75" x="214.03125"/>
       <use xlink:href="#DejaVuSans-72" x="277.410156"/>
       <use xlink:href="#DejaVuSans-65" x="316.273438"/>
       <use xlink:href="#DejaVuSans-20" x="377.796875"/>
       <use xlink:href="#DejaVuSans-32" x="409.583984"/>
       <use xlink:href="#DejaVuSans-34" x="473.207031"/>
       <use xlink:href="#DejaVuSans-37" x="536.830078"/>
      </g>
     </g>
    </g>
    <g id="ytick_16">
     <g id="text_24">
      <!-- Feature 4510 -->
      <g transform="translate(-21.330156 258.00975) scale(0.13 -0.13)">
       <use xlink:href="#DejaVuSans-46"/>
       <use xlink:href="#DejaVuSans-65" x="52.019531"/>
       <use xlink:href="#DejaVuSans-61" x="113.542969"/>
       <use xlink:href="#DejaVuSans-74" x="174.822266"/>
       <use xlink:href="#DejaVuSans-75" x="214.03125"/>
       <use xlink:href="#DejaVuSans-72" x="277.410156"/>
       <use xlink:href="#DejaVuSans-65" x="316.273438"/>
       <use xlink:href="#DejaVuSans-20" x="377.796875"/>
       <use xlink:href="#DejaVuSans-34" x="409.583984"/>
       <use xlink:href="#DejaVuSans-35" x="473.207031"/>
       <use xlink:href="#DejaVuSans-31" x="536.830078"/>
       <use xlink:href="#DejaVuSans-30" x="600.453125"/>
      </g>
     </g>
    </g>
    <g id="ytick_17">
     <g id="text_25">
      <!-- Feature 2800 -->
      <g transform="translate(-21.330156 291.762163) scale(0.13 -0.13)">
       <use xlink:href="#DejaVuSans-46"/>
       <use xlink:href="#DejaVuSans-65" x="52.019531"/>
       <use xlink:href="#DejaVuSans-61" x="113.542969"/>
       <use xlink:href="#DejaVuSans-74" x="174.822266"/>
       <use xlink:href="#DejaVuSans-75" x="214.03125"/>
       <use xlink:href="#DejaVuSans-72" x="277.410156"/>
       <use xlink:href="#DejaVuSans-65" x="316.273438"/>
       <use xlink:href="#DejaVuSans-20" x="377.796875"/>
       <use xlink:href="#DejaVuSans-32" x="409.583984"/>
       <use xlink:href="#DejaVuSans-38" x="473.207031"/>
       <use xlink:href="#DejaVuSans-30" x="536.830078"/>
       <use xlink:href="#DejaVuSans-30" x="600.453125"/>
      </g>
     </g>
    </g>
    <g id="ytick_18">
     <g id="text_26">
      <!-- Feature 6204 -->
      <g transform="translate(-21.330156 325.514575) scale(0.13 -0.13)">
       <use xlink:href="#DejaVuSans-46"/>
       <use xlink:href="#DejaVuSans-65" x="52.019531"/>
       <use xlink:href="#DejaVuSans-61" x="113.542969"/>
       <use xlink:href="#DejaVuSans-74" x="174.822266"/>
       <use xlink:href="#DejaVuSans-75" x="214.03125"/>
       <use xlink:href="#DejaVuSans-72" x="277.410156"/>
       <use xlink:href="#DejaVuSans-65" x="316.273438"/>
       <use xlink:href="#DejaVuSans-20" x="377.796875"/>
       <use xlink:href="#DejaVuSans-36" x="409.583984"/>
       <use xlink:href="#DejaVuSans-32" x="473.207031"/>
       <use xlink:href="#DejaVuSans-30" x="536.830078"/>
       <use xlink:href="#DejaVuSans-34" x="600.453125"/>
      </g>
     </g>
    </g>
    <g id="ytick_19">
     <g id="text_27">
      <!-- Feature 8921 -->
      <g transform="translate(-21.330156 359.266987) scale(0.13 -0.13)">
       <use xlink:href="#DejaVuSans-46"/>
       <use xlink:href="#DejaVuSans-65" x="52.019531"/>
       <use xlink:href="#DejaVuSans-61" x="113.542969"/>
       <use xlink:href="#DejaVuSans-74" x="174.822266"/>
       <use xlink:href="#DejaVuSans-75" x="214.03125"/>
       <use xlink:href="#DejaVuSans-72" x="277.410156"/>
       <use xlink:href="#DejaVuSans-65" x="316.273438"/>
       <use xlink:href="#DejaVuSans-20" x="377.796875"/>
       <use xlink:href="#DejaVuSans-38" x="409.583984"/>
       <use xlink:href="#DejaVuSans-39" x="473.207031"/>
       <use xlink:href="#DejaVuSans-32" x="536.830078"/>
       <use xlink:href="#DejaVuSans-31" x="600.453125"/>
      </g>
     </g>
    </g>
    <g id="ytick_20">
     <g id="text_28">
      <!-- Sum of 13154 other features -->
      <g transform="translate(-122.900781 393.0194) scale(0.13 -0.13)">
       <use xlink:href="#DejaVuSans-53"/>
       <use xlink:href="#DejaVuSans-75" x="63.476562"/>
       <use xlink:href="#DejaVuSans-6d" x="126.855469"/>
       <use xlink:href="#DejaVuSans-20" x="224.267578"/>
       <use xlink:href="#DejaVuSans-6f" x="256.054688"/>
       <use xlink:href="#DejaVuSans-66" x="317.236328"/>
       <use xlink:href="#DejaVuSans-20" x="352.441406"/>
       <use xlink:href="#DejaVuSans-31" x="384.228516"/>
       <use xlink:href="#DejaVuSans-33" x="447.851562"/>
       <use xlink:href="#DejaVuSans-31" x="511.474609"/>
       <use xlink:href="#DejaVuSans-35" x="575.097656"/>
       <use xlink:href="#DejaVuSans-34" x="638.720703"/>
       <use xlink:href="#DejaVuSans-20" x="702.34375"/>
       <use xlink:href="#DejaVuSans-6f" x="734.130859"/>
       <use xlink:href="#DejaVuSans-74" x="795.3125"/>
       <use xlink:href="#DejaVuSans-68" x="834.521484"/>
       <use xlink:href="#DejaVuSans-65" x="897.900391"/>
       <use xlink:href="#DejaVuSans-72" x="959.423828"/>
       <use xlink:href="#DejaVuSans-20" x="1000.537109"/>
       <use xlink:href="#DejaVuSans-66" x="1032.324219"/>
       <use xlink:href="#DejaVuSans-65" x="1067.529297"/>
       <use xlink:href="#DejaVuSans-61" x="1129.052734"/>
       <use xlink:href="#DejaVuSans-74" x="1190.332031"/>
       <use xlink:href="#DejaVuSans-75" x="1229.541016"/>
       <use xlink:href="#DejaVuSans-72" x="1292.919922"/>
       <use xlink:href="#DejaVuSans-65" x="1331.783203"/>
       <use xlink:href="#DejaVuSans-73" x="1393.306641"/>
      </g>
     </g>
    </g>
   </g>
   <g id="patch_13">
    <path d="M 72 416.26368 
L 72 56.12544 
" style="fill: none; stroke: #000000; stroke-width: 0.8; stroke-linejoin: miter; stroke-linecap: square"/>
   </g>
   <g id="patch_14">
    <path d="M 72 416.26368 
L 518.4 416.26368 
" style="fill: none; stroke: #000000; stroke-width: 0.8; stroke-linejoin: miter; stroke-linecap: square"/>
   </g>
   <g id="text_29">
    <!-- +0.05 -->
    <g style="fill: #ff0051" transform="translate(108.802659 87.619954) scale(0.12 -0.12)">
     <defs>
      <path id="DejaVuSans-2b" d="M 2944 4013 
L 2944 2272 
L 4684 2272 
L 4684 1741 
L 2944 1741 
L 2944 0 
L 2419 0 
L 2419 1741 
L 678 1741 
L 678 2272 
L 2419 2272 
L 2419 4013 
L 2944 4013 
z
" transform="scale(0.015625)"/>
     </defs>
     <use xlink:href="#DejaVuSans-2b"/>
     <use xlink:href="#DejaVuSans-30" x="83.789062"/>
     <use xlink:href="#DejaVuSans-2e" x="147.412109"/>
     <use xlink:href="#DejaVuSans-30" x="179.199219"/>
     <use xlink:href="#DejaVuSans-35" x="242.822266"/>
    </g>
   </g>
   <g id="text_30">
    <!-- +0.04 -->
    <g style="fill: #ff0051" transform="translate(105.974162 121.372367) scale(0.12 -0.12)">
     <use xlink:href="#DejaVuSans-2b"/>
     <use xlink:href="#DejaVuSans-30" x="83.789062"/>
     <use xlink:href="#DejaVuSans-2e" x="147.412109"/>
     <use xlink:href="#DejaVuSans-30" x="179.199219"/>
     <use xlink:href="#DejaVuSans-34" x="242.822266"/>
    </g>
   </g>
   <g id="text_31">
    <!-- +0.04 -->
    <g style="fill: #ff0051" transform="translate(105.335992 155.124779) scale(0.12 -0.12)">
     <use xlink:href="#DejaVuSans-2b"/>
     <use xlink:href="#DejaVuSans-30" x="83.789062"/>
     <use xlink:href="#DejaVuSans-2e" x="147.412109"/>
     <use xlink:href="#DejaVuSans-30" x="179.199219"/>
     <use xlink:href="#DejaVuSans-34" x="242.822266"/>
    </g>
   </g>
   <g id="text_32">
    <!-- +0.03 -->
    <g style="fill: #ff0051" transform="translate(94.88485 188.877191) scale(0.12 -0.12)">
     <use xlink:href="#DejaVuSans-2b"/>
     <use xlink:href="#DejaVuSans-30" x="83.789062"/>
     <use xlink:href="#DejaVuSans-2e" x="147.412109"/>
     <use xlink:href="#DejaVuSans-30" x="179.199219"/>
     <use xlink:href="#DejaVuSans-33" x="242.822266"/>
    </g>
   </g>
   <g id="text_33">
    <!-- +0.02 -->
    <g style="fill: #ff0051" transform="translate(93.055834 222.629604) scale(0.12 -0.12)">
     <use xlink:href="#DejaVuSans-2b"/>
     <use xlink:href="#DejaVuSans-30" x="83.789062"/>
     <use xlink:href="#DejaVuSans-2e" x="147.412109"/>
     <use xlink:href="#DejaVuSans-30" x="179.199219"/>
     <use xlink:href="#DejaVuSans-32" x="242.822266"/>
    </g>
   </g>
   <g id="text_34">
    <!-- +0.02 -->
    <g style="fill: #ff0051" transform="translate(91.816077 256.382016) scale(0.12 -0.12)">
     <use xlink:href="#DejaVuSans-2b"/>
     <use xlink:href="#DejaVuSans-30" x="83.789062"/>
     <use xlink:href="#DejaVuSans-2e" x="147.412109"/>
     <use xlink:href="#DejaVuSans-30" x="179.199219"/>
     <use xlink:href="#DejaVuSans-32" x="242.822266"/>
    </g>
   </g>
   <g id="text_35">
    <!-- +0.01 -->
    <g style="fill: #ff0051" transform="translate(86.734836 290.134429) scale(0.12 -0.12)">
     <use xlink:href="#DejaVuSans-2b"/>
     <use xlink:href="#DejaVuSans-30" x="83.789062"/>
     <use xlink:href="#DejaVuSans-2e" x="147.412109"/>
     <use xlink:href="#DejaVuSans-30" x="179.199219"/>
     <use xlink:href="#DejaVuSans-31" x="242.822266"/>
    </g>
   </g>
   <g id="text_36">
    <!-- +0.01 -->
    <g style="fill: #ff0051" transform="translate(86.174917 323.886841) scale(0.12 -0.12)">
     <use xlink:href="#DejaVuSans-2b"/>
     <use xlink:href="#DejaVuSans-30" x="83.789062"/>
     <use xlink:href="#DejaVuSans-2e" x="147.412109"/>
     <use xlink:href="#DejaVuSans-30" x="179.199219"/>
     <use xlink:href="#DejaVuSans-31" x="242.822266"/>
    </g>
   </g>
   <g id="text_37">
    <!-- +0.01 -->
    <g style="fill: #ff0051" transform="translate(85.861929 357.639253) scale(0.12 -0.12)">
     <use xlink:href="#DejaVuSans-2b"/>
     <use xlink:href="#DejaVuSans-30" x="83.789062"/>
     <use xlink:href="#DejaVuSans-2e" x="147.412109"/>
     <use xlink:href="#DejaVuSans-30" x="179.199219"/>
     <use xlink:href="#DejaVuSans-31" x="242.822266"/>
    </g>
   </g>
   <g id="text_38">
    <!-- +0.58 -->
    <g style="fill: #ff0051" transform="translate(481.659864 391.391666) scale(0.12 -0.12)">
     <use xlink:href="#DejaVuSans-2b"/>
     <use xlink:href="#DejaVuSans-30" x="83.789062"/>
     <use xlink:href="#DejaVuSans-2e" x="147.412109"/>
     <use xlink:href="#DejaVuSans-35" x="179.199219"/>
     <use xlink:href="#DejaVuSans-38" x="242.822266"/>
    </g>
   </g>
  </g>
 </g>
 <defs>
  <clipPath id="p650c5ac45f">
   <rect x="72" y="56.12544" width="446.4" height="360.13824"/>
  </clipPath>
 </defs>
</svg>
