<svg width="4667" height="1406" xmlns="http://www.w3.org/2000/svg" xmlns:xlink="http://www.w3.org/1999/xlink" overflow="hidden"><defs><clipPath id="clip0"><rect x="73" y="491" width="4667" height="1406"/></clipPath><clipPath id="clip1"><rect x="74" y="492" width="4664" height="1402"/></clipPath><clipPath id="clip2"><rect x="74" y="492" width="4664" height="1402"/></clipPath><clipPath id="clip3"><rect x="207" y="662" width="4484" height="1080"/></clipPath><clipPath id="clip4"><rect x="207" y="662" width="4484" height="1080"/></clipPath><clipPath id="clip5"><rect x="74" y="492" width="4664" height="1402"/></clipPath><clipPath id="clip6"><rect x="74" y="492" width="4664" height="1402"/></clipPath><clipPath id="clip7"><rect x="74" y="492" width="4664" height="1402"/></clipPath><clipPath id="clip8"><rect x="74" y="492" width="4664" height="1402"/></clipPath><clipPath id="clip9"><rect x="74" y="492" width="4664" height="1402"/></clipPath><clipPath id="clip10"><rect x="74" y="492" width="4664" height="1402"/></clipPath><clipPath id="clip11"><rect x="74" y="492" width="4664" height="1402"/></clipPath><clipPath id="clip12"><rect x="74" y="492" width="4664" height="1402"/></clipPath><clipPath id="clip13"><rect x="74" y="492" width="4664" height="1402"/></clipPath><clipPath id="clip14"><rect x="74" y="492" width="4664" height="1402"/></clipPath><clipPath id="clip15"><rect x="74" y="492" width="4664" height="1402"/></clipPath><clipPath id="clip16"><rect x="74" y="492" width="4664" height="1402"/></clipPath><clipPath id="clip17"><rect x="74" y="492" width="4664" height="1402"/></clipPath><clipPath id="clip18"><rect x="74" y="492" width="4664" height="1402"/></clipPath><clipPath id="clip19"><rect x="74" y="492" width="4664" height="1402"/></clipPath><clipPath id="clip20"><rect x="74" y="492" width="4664" height="1402"/></clipPath><clipPath id="clip21"><rect x="74" y="492" width="4664" height="1402"/></clipPath><clipPath id="clip22"><rect x="74" y="492" width="4664" height="1402"/></clipPath><clipPath id="clip23"><rect x="74" y="492" width="4664" height="1402"/></clipPath><clipPath id="clip24"><rect x="74" y="492" width="4664" height="1402"/></clipPath><clipPath id="clip25"><rect x="74" y="492" width="4664" height="1402"/></clipPath><clipPath id="clip26"><rect x="74" y="492" width="4664" height="1402"/></clipPath><clipPath id="clip27"><rect x="74" y="492" width="4664" height="1402"/></clipPath><clipPath id="clip28"><rect x="74" y="492" width="4664" height="1402"/></clipPath><clipPath id="clip29"><rect x="74" y="492" width="4664" height="1402"/></clipPath><clipPath id="clip30"><rect x="74" y="492" width="4664" height="1402"/></clipPath><clipPath id="clip31"><rect x="74" y="492" width="4664" height="1402"/></clipPath><clipPath id="clip32"><rect x="74" y="492" width="4664" height="1402"/></clipPath><clipPath id="clip33"><rect x="74" y="492" width="4664" height="1402"/></clipPath><clipPath id="clip34"><rect x="74" y="492" width="4664" height="1402"/></clipPath><clipPath id="clip35"><rect x="74" y="492" width="4664" height="1402"/></clipPath><clipPath id="clip36"><rect x="74" y="492" width="4664" height="1402"/></clipPath><clipPath id="clip37"><rect x="74" y="492" width="4664" height="1402"/></clipPath><clipPath id="clip38"><rect x="74" y="492" width="4664" height="1402"/></clipPath><clipPath id="clip39"><rect x="74" y="492" width="4664" height="1402"/></clipPath><clipPath id="clip40"><rect x="74" y="492" width="4664" height="1402"/></clipPath><clipPath id="clip41"><rect x="74" y="492" width="4664" height="1402"/></clipPath><clipPath id="clip42"><rect x="74" y="492" width="4664" height="1402"/></clipPath><clipPath id="clip43"><rect x="74" y="492" width="4664" height="1402"/></clipPath><clipPath id="clip44"><rect x="74" y="492" width="4664" height="1402"/></clipPath><clipPath id="clip45"><rect x="74" y="492" width="4664" height="1402"/></clipPath><clipPath id="clip46"><rect x="74" y="492" width="4664" height="1402"/></clipPath><clipPath id="clip47"><rect x="74" y="492" width="4664" height="1402"/></clipPath><clipPath id="clip48"><rect x="74" y="492" width="4664" height="1402"/></clipPath><clipPath id="clip49"><rect x="74" y="492" width="4664" height="1402"/></clipPath><clipPath id="clip50"><rect x="74" y="492" width="4664" height="1402"/></clipPath><clipPath id="clip51"><rect x="74" y="492" width="4664" height="1402"/></clipPath><clipPath id="clip52"><rect x="74" y="492" width="4664" height="1402"/></clipPath><clipPath id="clip53"><rect x="74" y="492" width="4664" height="1402"/></clipPath><clipPath id="clip54"><rect x="74" y="492" width="4664" height="1402"/></clipPath><clipPath id="clip55"><rect x="74" y="492" width="4664" height="1402"/></clipPath><clipPath id="clip56"><rect x="74" y="492" width="4664" height="1402"/></clipPath><clipPath id="clip57"><rect x="74" y="492" width="4664" height="1402"/></clipPath><clipPath id="clip58"><rect x="74" y="492" width="4664" height="1402"/></clipPath><clipPath id="clip59"><rect x="74" y="492" width="4664" height="1402"/></clipPath><clipPath id="clip60"><rect x="74" y="492" width="4664" height="1402"/></clipPath><clipPath id="clip61"><rect x="74" y="492" width="4664" height="1402"/></clipPath><clipPath id="clip62"><rect x="74" y="492" width="4664" height="1402"/></clipPath><clipPath id="clip63"><rect x="74" y="492" width="4664" height="1402"/></clipPath><clipPath id="clip64"><rect x="74" y="492" width="4664" height="1402"/></clipPath><clipPath id="clip65"><rect x="74" y="492" width="4664" height="1402"/></clipPath><clipPath id="clip66"><rect x="74" y="492" width="4664" height="1402"/></clipPath><clipPath id="clip67"><rect x="74" y="492" width="4664" height="1402"/></clipPath><clipPath id="clip68"><rect x="74" y="492" width="4664" height="1402"/></clipPath><clipPath id="clip69"><rect x="74" y="492" width="4664" height="1402"/></clipPath><clipPath id="clip70"><rect x="74" y="492" width="4664" height="1402"/></clipPath><clipPath id="clip71"><rect x="74" y="492" width="4664" height="1402"/></clipPath><clipPath id="clip72"><rect x="74" y="492" width="4664" height="1402"/></clipPath><clipPath id="clip73"><rect x="74" y="492" width="4664" height="1402"/></clipPath><clipPath id="clip74"><rect x="74" y="492" width="4664" height="1402"/></clipPath><clipPath id="clip75"><rect x="74" y="492" width="4664" height="1402"/></clipPath><clipPath id="clip76"><rect x="74" y="492" width="4664" height="1402"/></clipPath><clipPath id="clip77"><rect x="74" y="492" width="4664" height="1402"/></clipPath><clipPath id="clip78"><rect x="74" y="492" width="4664" height="1402"/></clipPath><clipPath id="clip79"><rect x="74" y="492" width="4664" height="1402"/></clipPath><clipPath id="clip80"><rect x="74" y="492" width="4664" height="1402"/></clipPath><clipPath id="clip81"><rect x="74" y="492" width="4664" height="1402"/></clipPath><clipPath id="clip82"><rect x="74" y="492" width="4664" height="1402"/></clipPath><clipPath id="clip83"><rect x="74" y="492" width="4664" height="1402"/></clipPath><clipPath id="clip84"><rect x="74" y="492" width="4664" height="1402"/></clipPath><clipPath id="clip85"><rect x="74" y="492" width="4664" height="1402"/></clipPath><clipPath id="clip86"><rect x="74" y="492" width="4664" height="1402"/></clipPath><clipPath id="clip87"><rect x="74" y="492" width="4664" height="1402"/></clipPath><clipPath id="clip88"><rect x="74" y="492" width="4664" height="1402"/></clipPath><clipPath id="clip89"><rect x="74" y="492" width="4664" height="1402"/></clipPath><clipPath id="clip90"><rect x="74" y="492" width="4664" height="1402"/></clipPath><clipPath id="clip91"><rect x="74" y="492" width="4664" height="1402"/></clipPath><clipPath id="clip92"><rect x="74" y="492" width="4664" height="1402"/></clipPath><clipPath id="clip93"><rect x="74" y="492" width="4664" height="1402"/></clipPath><clipPath id="clip94"><rect x="74" y="492" width="4664" height="1402"/></clipPath><clipPath id="clip95"><rect x="74" y="492" width="4664" height="1402"/></clipPath><clipPath id="clip96"><rect x="74" y="492" width="4664" height="1402"/></clipPath><clipPath id="clip97"><rect x="74" y="492" width="4664" height="1402"/></clipPath><clipPath id="clip98"><rect x="74" y="492" width="4664" height="1402"/></clipPath><clipPath id="clip99"><rect x="74" y="492" width="4664" height="1402"/></clipPath><clipPath id="clip100"><rect x="74" y="492" width="4664" height="1402"/></clipPath><clipPath id="clip101"><rect x="74" y="492" width="4664" height="1402"/></clipPath><clipPath id="clip102"><rect x="74" y="492" width="4664" height="1402"/></clipPath><clipPath id="clip103"><rect x="74" y="492" width="4664" height="1402"/></clipPath><clipPath id="clip104"><rect x="74" y="492" width="4664" height="1402"/></clipPath></defs><g clip-path="url(#clip0)" transform="translate(-73 -491)"><rect x="73.9999" y="492" width="4664" height="1403" fill="#FFFFFF"/><g clip-path="url(#clip1)"><path d="M207.5 1739.5 4687.5 1739.5M207.5 1523.55 4687.5 1523.55M207.5 1416.55 4687.5 1416.55M207.5 1308.54 4687.5 1308.54M207.5 1200.54 4687.5 1200.54M207.5 1093.54 4687.5 1093.54M207.5 985.532 4687.5 985.532M207.5 877.529 4687.5 877.529M207.5 769.525 4687.5 769.525M207.5 662.5 4687.5 662.5" stroke="#D9D9D9" stroke-width="3.4375" stroke-linejoin="round" stroke-miterlimit="10" fill="none"/></g><g clip-path="url(#clip2)"><path d="M207.5 1631.5 4687.5 1631.5" stroke="#D9D9D9" stroke-width="3.4375" stroke-linejoin="round" stroke-miterlimit="10" fill="none" fill-rule="evenodd"/></g><g clip-path="url(#clip3)"><path d="M214 1632 227.007 1201.04 241.008 1228.04 254.008 1497.05 267.009 1335.04 281.009 1524.05 294.01 1497.05 307.01 1335.04 321.011 1632 334.011 1632 348.011 1632 361.012 1524.05 374.012 1389.05 388.013 1201.04 401.013 1335.04 414.014 1524.05 428.014 1389.05 441.014 1201.04 455.015 1335.04 468.015 1632 481.016 1632 495.016 1524.05 508.017 1497.05 521.017 1335.04 535.018 1524.05 548.018 1389.05 562.018 1201.04 575.019 1335.04 588.019 1632 602.02 1632 615.02 1524.05 628.021 1497.05 642.021 1335.04 655.021 1524.05 669.022 1389.05 682.022 1201.04 695.023 1335.04 709.023 1524.05 722.024 1389.05 735.024 1201.04 749.025 1335.04 762.025 1632 776.025 1632 789.026 1524.05 802.026 1497.05 816.027 1228.04 829.027 1389.05 842.028 1093 856.028 1093 869.029 1093 883.029 1201.04 896.029 1335.04 909.03 1632 923.03 1524.05 936.031 1389.05 949.031 1201.04 963.032 1228.04 976.032 1389.05 990.032 1201.04 1003.03 1228.04 1016.03 1389.05 1030.03 1201.04 1043.03 1228.04 1056.03 1497.05 1070.04 1335.04 1083.04 1632 1097.04 1524.05 1110.04 1389.05 1123.04 1201.04 1137.04 1335.04 1150.04 1524.05 1163.04 1497.05 1177.04 1335.04 1190.04 1632 1204.04 1632 1217.04 1524.05 1230.04 1389.05 1244.04 1093 1257.04 1201.04 1270.04 1335.04 1284.04 1524.05 1297.04 1497.05 1311.04 1228.04 1324.04 1389.05 1337.04 1093 1351.04 1093 1364.04 1201.04 1377.05 1335.04 1391.05 1632 1404.05 1632 1418.05 1524.05 1431.05 1389.05 1444.05 1093 1458.05 1093 1471.05 1201.04 1484.05 1228.04 1498.05 1497.05 1511.05 1335.04 1525.05 1632 1538.05 1632 1551.05 1524.05 1565.05 1389.05 1578.05 1093 1591.05 1093 1605.05 1093 1618.05 1201.04 1632.05 1335.04 1645.05 1524.05 1658.05 1497.05 1672.05 1228.04 1685.06 1497.05 1698.06 1335.04 1712.06 1632 1725.06 1524.05 1739.06 1389.05 1752.06 1093 1765.06 1093 1779.06 1201.04 1792.06 1228.04 1805.06 1497.05 1819.06 1228.04 1832.06 1497.05 1846.06 1335.04 1859.06 1632 1872.06 1632 1886.06 1632 1899.06 1524.05 1912.06 1389.05 1926.06 1093 1939.06 1201.04 1953.06 1228.04 1966.06 1389.05 1979.06 1201.04 1993.07 1335.04 2006.07 1524.05 2019.07 1389.05 2033.07 1093 2046.07 1093 2060.07 1201.04 2073.07 1335.04 2086.07 1524.05 2100.07 1389.05 2113.07 1201.04 2126.07 1228.04 2140.07 1389.05 2153.07 1201.04 2167.07 1228.04 2180.07 1389.05 2193.07 1093 2207.07 1201.04 2220.07 1228.04 2233.07 1497.05 2247.07 1228.04 2260.07 1389.05 2274.07 1201.04 2287.08 1335.04 2300.08 1632 2314.08 1524.05 2327.08 1497.05 2340.08 1335.04 2354.08 1632 2367.08 1524.05 2381.08 1389.05 2394.08 1093 2407.08 1093 2421.08 1093 2434.08 1201.04 2447.08 1335.04 2461.08 1632 2474.08 1524.05 2488.08 1389.05 2501.08 1201.04 2514.08 1228.04 2528.08 1497.05 2541.08 1228.04 2554.08 1389.05 2568.08 1201.04 2581.08 1335.04 2595.09 1524.05 2608.09 1389.05 2621.09 1201.04 2635.09 1335.04 2648.09 1524.05 2661.09 1389.05 2675.09 1201.04 2688.09 1335.04 2702.09 1524.05 2715.09 1389.05 2728.09 1201.04 2742.09 1228.04 2755.09 1497.05 2768.09 1228.04 2782.09 1497.05 2795.09 1335.04 2809.09 1524.05 2822.09 1389.05 2835.09 1093 2849.09 1093 2862.09 1093 2875.09 1093 2889.09 1201.04 2902.1 1228.04 2916.1 1389.05 2929.1 1093 2942.1 1093 2956.1 1201.04 2969.1 1228.04 2982.1 1497.05 2996.1 1335.04 3009.1 1524.05 3023.1 1389.05 3036.1 1093 3049.1 1093 3063.1 1093 3076.1 1093 3089.1 1201.04 3103.1 1228.04 3116.1 1497.05 3130.1 1335.04 3143.1 1632 3156.1 1632 3170.1 1524.05 3183.1 1497.05 3196.1 1228.04 3210.11 1389.05 3223.11 1201.04 3237.11 1335.04 3250.11 1524.05 3263.11 1497.05 3277.11 1228.04 3290.11 1497.05 3303.11 1228.04 3317.11 1389.05 3330.11 1201.04 3344.11 1335.04 3357.11 1524.05 3370.11 1389.05 3384.11 1201.04 3397.11 1228.04 3410.11 1497.05 3424.11 1335.04 3437.11 1524.05 3451.11 1497.05 3464.11 1228.04 3477.11 1497.05 3491.11 1335.04 3504.11 1524.05 3517.12 1497.05 3531.12 1228.04 3544.12 1497.05 3558.12 1335.04 3571.12 1632 3584.12 1524.05 3598.12 1497.05 3611.12 1335.04 3624.12 1524.05 3638.12 1497.05 3651.12 1228.04 3665.12 1497.05 3678.12 1228.04 3691.12 1389.05 3705.12 1093 3718.12 1201.04 3731.12 1335.04 3745.12 1632 3758.12 1632 3772.12 1632 3785.12 1632 3798.12 1632 3812.13 1524.05 3825.13 1497.05 3838.13 1335.04 3852.13 1632 3865.13 1524.05 3879.13 1389.05 3892.13 1093 3905.13 1201.04 3919.13 1335.04 3932.13 1524.05 3945.13 1497.05 3959.13 1335.04 3972.13 1632 3986.13 1524.05 3999.13 1497.05 4012.13 1228.04 4026.13 1497.05 4039.13 1228.04 4052.13 1389.05 4066.13 1093 4079.13 1093 4093.13 1201.04 4106.13 1228.04 4119.14 1497.05 4133.14 1228.04 4146.14 1389.05 4159.14 1093 4173.14 1093 4186.14 1093 4200.14 1093 4213.14 1201.04 4226.14 1335.04 4240.14 1632 4253.14 1524.05 4266.14 1497.05 4280.14 1335.04 4293.14 1524.05 4306.14 1497.05 4320.14 1228.04 4333.14 1389.05 4347.14 1093 4360.14 1201.04 4373.14 1228.04 4387.14 1497.05 4400.14 1228.04 4413.14 1497.05 4427.15 1335.04 4440.15 1632 4454.15 1524.05 4467.15 1389.05 4480.15 1093 4494.15 1093 4507.15 1201.04 4520.15 1335.04 4534.15 1632 4547.15 1524.05 4561.15 1497.05 4574.15 1335.04 4587.15 1524.05 4601.15 1389.05 4614.15 1201.04 4627.15 1228.04 4641.15 1389.05 4654.15 1632 4668.15 1632 4681 1632" stroke="#4472C4" stroke-width="10.3125" stroke-linecap="round" stroke-linejoin="round" stroke-miterlimit="10" fill="none"/></g><g clip-path="url(#clip4)"><path d="M227 1371.04 241.008 1401.05 254.008 1496.05 267.009 1328.04 281.009 1522.05 294.01 1493.05 307.01 1381.05 321.011 1634.05 334.011 1638.05 348.011 1635.05 361.012 1527.05 374.012 1385.05 388.013 1226.04 401.013 1343.04 414.014 1540.05 428.014 1395.05 441.014 1208.04 455.015 1381.05 468.015 1646.05 481.016 1618.05 495.016 1571.05 508.017 1510.05 521.017 1350.04 535.018 1528.05 548.018 1380.05 562.018 1213.04 575.019 1345.04 588.019 1640.05 602.02 1595.05 615.02 1535.05 628.021 1508.05 642.021 1343.04 655.021 1533.05 669.022 1400.05 682.022 1211.04 695.023 1346.04 709.023 1542.05 722.024 1403.05 735.024 1217.04 749.025 1348.04 762.025 1652.05 776.025 1643.05 789.026 1546.05 802.026 1413.05 816.027 1272.04 829.027 1401.05 842.028 1103.04 856.028 1097.04 869.029 1111.04 883.029 1210.04 896.029 1345.04 909.03 1629.05 923.03 1560.05 936.031 1402.05 949.031 1202.04 963.032 1246.04 976.032 1382.05 990.032 1207.04 1003.03 1234.04 1016.03 1396.05 1030.03 1201.04 1043.03 1248.04 1056.03 1436.05 1070.04 1347.04 1083.04 1622.05 1097.04 1545.05 1110.04 1404.05 1123.04 1210.04 1137.04 1319.04 1150.04 1538.05 1163.04 1489.05 1177.04 1403.05 1190.04 1641.05 1204.04 1630.05 1217.04 1524.05 1230.04 1382.05 1244.04 1139.04 1257.04 1183.04 1270.04 1334.04 1284.04 1560.05 1297.04 1445.05 1311.04 1258.04 1324.04 1363.04 1337.04 1091.04 1351.04 1097.04 1364.04 1200.04 1377.05 1349.04 1391.05 1643.05 1404.05 1634.05 1418.05 1532.05 1431.05 1354.04 1444.05 1123.04 1458.05 1100.04 1471.05 1176.04 1484.05 1246.04 1498.05 1493.05 1511.05 1337.04 1525.05 1639.05 1538.05 1625.05 1551.05 1534.05 1565.05 1390.05 1578.05 1098.04 1591.05 1100.04 1605.05 1129.04 1618.05 1180.04 1632.05 1344.04 1645.05 1539.05 1658.05 1442.05 1672.05 1292.04 1685.06 1488.05 1698.06 1410.05 1712.06 1622.05 1725.06 1542.05 1739.06 1388.05 1752.06 1089.04 1765.06 1114.04 1779.06 1186.04 1792.06 1260.04 1805.06 1405.05 1819.06 1222.04 1832.06 1411.05 1846.06 1368.04 1859.06 1663 1872.06 1635.05 1886.06 1603.05 1899.06 1520.05 1912.06 1400.05 1926.06 1103.04 1939.06 1177.04 1953.06 1234.04 1966.06 1403.05 1979.06 1173.04 1993.07 1352.04 2006.07 1536.05 2019.07 1388.05 2033.07 1098.04 2046.07 1118.04 2060.07 1206.04 2073.07 1341.04 2086.07 1541.05 2100.07 1398.05 2113.07 1182.04 2126.07 1257.04 2140.07 1375.05 2153.07 1207.04 2167.07 1235.04 2180.07 1380.05 2193.07 1102.04 2207.07 1128.04 2220.07 1259.04 2233.07 1405.05 2247.07 1239.04 2260.07 1393.05 2274.07 1217.04 2287.07 1341.04 2300.08 1598.05 2314.08 1547.05 2327.08 1484.05 2340.08 1415.05 2354.08 1644.05 2367.08 1538.05 2381.08 1349.04 2394.08 1096.04 2407.08 1093.04 2421.08 1114.04 2434.08 1179.04 2447.08 1363.04 2461.08 1623.05 2474.08 1536.05 2488.08 1392.05 2501.08 1198.04 2514.08 1309.04 2528.08 1460.05 2541.08 1248.04 2554.08 1402.05 2568.08 1191.04 2581.08 1340.04 2595.08 1538.05 2608.09 1393.05 2621.09 1200.04 2635.09 1335.04 2648.09 1532.05 2661.09 1390.05 2675.09 1206.04 2688.09 1342.04 2702.09 1535.05 2715.09 1383.05 2728.09 1196.04 2742.09 1307.04 2755.09 1474.05 2768.09 1297.04 2782.09 1499.05 2795.09 1348.04 2809.09 1542.05 2822.09 1363.04 2835.09 1112.04 2849.09 1093.04 2862.09 1099.04 2875.09 1112.04 2889.09 1191.04 2902.09 1322.04 2916.1 1394.05 2929.1 1082.04 2942.1 1131.04 2956.1 1164.04 2969.1 1296.04 2982.1 1498.05 2996.1 1343.04 3009.1 1533.05 3023.1 1395.05 3036.1 1105.04 3049.1 1104.04 3063.1 1100.04 3076.1 1106.04 3089.1 1171.04 3103.1 1291.04 3116.1 1483.05 3130.1 1342.04 3143.1 1632.05 3156.1 1626.05 3170.1 1606.05 3183.1 1477.05 3196.1 1243.04 3210.11 1395.05 3223.11 1207.04 3237.11 1348.04 3250.11 1542.05 3263.11 1453.05 3277.11 1293.04 3290.11 1509.05 3303.11 1253.04 3317.11 1410.05 3330.11 1215.04 3344.11 1367.04 3357.11 1555.05 3370.11 1407.05 3384.11 1191.04 3397.11 1348.04 3410.11 1509.05 3424.11 1324.04 3437.11 1543.05 3451.11 1394.05 3464.11 1256.04 3477.11 1485.05 3491.11 1320.04 3504.11 1531.05 3517.12 1387.05 3531.12 1251.04 3544.12 1487.05 3558.12 1377.05 3571.12 1635.05 3584.12 1542.05 3598.12 1459.05 3611.12 1356.04 3624.12 1589.05 3638.12 1432.05 3651.12 1266.04 3665.12 1471.05 3678.12 1254.04 3691.12 1394.05 3705.12 1110.04 3718.12 1203.04 3731.12 1357.04 3745.12 1638.05 3758.12 1641.05 3772.12 1635.05 3785.12 1646.05 3798.12 1630.05 3812.12 1543.05 3825.13 1504.05 3838.13 1348.04 3852.13 1597.05 3865.13 1541.05 3879.13 1401.05 3892.13 1107.04 3905.13 1201.04 3919.13 1345.04 3932.13 1543.05 3945.13 1509.05 3959.13 1341.04 3972.13 1633.05 3986.13 1560.05 3999.13 1456.05 4012.13 1266.04 4026.13 1513.05 4039.13 1290.04 4052.13 1375.05 4066.13 1090.04 4079.13 1122.04 4093.13 1201.04 4106.13 1328.04 4119.14 1499.05 4133.14 1268.04 4146.14 1404.05 4159.14 1105.04 4173.14 1110.04 4186.14 1101.04 4200.14 1108.04 4213.14 1203.04 4226.14 1337.04 4240.14 1637.05 4253.14 1542.05 4266.14 1442.05 4280.14 1346.04 4293.14 1558.05 4306.14 1466.05 4320.14 1240.04 4333.14 1401.05 4347.14 1141.04 4360.14 1191.04 4373.14 1256.04 4387.14 1419.05 4400.14 1243.04 4413.15 1481.05 4427.15 1376.05 4440.15 1641.05 4454.15 1534.05 4467.15 1367.04 4480.15 1108.04 4494.15 1191.04 4507.15 1238.04 4520.15 1247.04 4534.15 1384.05 4547.15 1169.04 4561.15 969.032 4574.15 797.026 4587.15 981.032 4601.15 885.029 4614.15 718 4627.15 933.031 4641.15 1140.04 4654.15 912.03 4668.15 1046.03 4681 1208.04" stroke="#ED7D31" stroke-width="10.3125" stroke-linecap="round" stroke-linejoin="round" stroke-miterlimit="10" fill="none"/></g><g clip-path="url(#clip5)"><text fill="#595959" font-family="Calibri,Calibri_MSFontService,sans-serif" font-weight="400" font-size="41" transform="matrix(1 0 0 1 104.042 1751)">-0.2</text></g><g clip-path="url(#clip6)"><text fill="#595959" font-family="Calibri,Calibri_MSFontService,sans-serif" font-weight="400" font-size="41" transform="matrix(1 0 0 1 147.973 1643)">0</text></g><g clip-path="url(#clip7)"><text fill="#595959" font-family="Calibri,Calibri_MSFontService,sans-serif" font-weight="400" font-size="41" transform="matrix(1 0 0 1 116.669 1536)">0.2</text></g><g clip-path="url(#clip8)"><text fill="#595959" font-family="Calibri,Calibri_MSFontService,sans-serif" font-weight="400" font-size="41" transform="matrix(1 0 0 1 116.669 1428)">0.4</text></g><g clip-path="url(#clip9)"><text fill="#595959" font-family="Calibri,Calibri_MSFontService,sans-serif" font-weight="400" font-size="41" transform="matrix(1 0 0 1 116.669 1320)">0.6</text></g><g clip-path="url(#clip10)"><text fill="#595959" font-family="Calibri,Calibri_MSFontService,sans-serif" font-weight="400" font-size="41" transform="matrix(1 0 0 1 116.669 1212)">0.8</text></g><g clip-path="url(#clip11)"><text fill="#595959" font-family="Calibri,Calibri_MSFontService,sans-serif" font-weight="400" font-size="41" transform="matrix(1 0 0 1 147.973 1105)">1</text></g><g clip-path="url(#clip12)"><text fill="#595959" font-family="Calibri,Calibri_MSFontService,sans-serif" font-weight="400" font-size="41" transform="matrix(1 0 0 1 116.669 997)">1.2</text></g><g clip-path="url(#clip13)"><text fill="#595959" font-family="Calibri,Calibri_MSFontService,sans-serif" font-weight="400" font-size="41" transform="matrix(1 0 0 1 116.669 889)">1.4</text></g><g clip-path="url(#clip14)"><text fill="#595959" font-family="Calibri,Calibri_MSFontService,sans-serif" font-weight="400" font-size="41" transform="matrix(1 0 0 1 116.669 782)">1.6</text></g><g clip-path="url(#clip15)"><text fill="#595959" font-family="Calibri,Calibri_MSFontService,sans-serif" font-weight="400" font-size="41" transform="matrix(1 0 0 1 116.669 674)">1.8</text></g><g clip-path="url(#clip16)"><text fill="#595959" font-family="Calibri,Calibri_MSFontService,sans-serif" font-weight="400" font-size="41" transform="matrix(6.12323e-17 -1 1 6.12323e-17 227.654 1679)">1</text></g><g clip-path="url(#clip17)"><text fill="#595959" font-family="Calibri,Calibri_MSFontService,sans-serif" font-weight="400" font-size="41" transform="matrix(6.12323e-17 -1 1 6.12323e-17 281.155 1679)">5</text></g><g clip-path="url(#clip18)"><text fill="#595959" font-family="Calibri,Calibri_MSFontService,sans-serif" font-weight="400" font-size="41" transform="matrix(6.12323e-17 -1 1 6.12323e-17 334.655 1679)">9</text></g><g clip-path="url(#clip19)"><text fill="#595959" font-family="Calibri,Calibri_MSFontService,sans-serif" font-weight="400" font-size="41" transform="matrix(6.12323e-17 -1 1 6.12323e-17 388.156 1700)">13</text></g><g clip-path="url(#clip20)"><text fill="#595959" font-family="Calibri,Calibri_MSFontService,sans-serif" font-weight="400" font-size="41" transform="matrix(6.12323e-17 -1 1 6.12323e-17 441.657 1700)">17</text></g><g clip-path="url(#clip21)"><text fill="#595959" font-family="Calibri,Calibri_MSFontService,sans-serif" font-weight="400" font-size="41" transform="matrix(6.12323e-17 -1 1 6.12323e-17 495.158 1700)">21</text></g><g clip-path="url(#clip22)"><text fill="#595959" font-family="Calibri,Calibri_MSFontService,sans-serif" font-weight="400" font-size="41" transform="matrix(6.12323e-17 -1 1 6.12323e-17 548.659 1700)">25</text></g><g clip-path="url(#clip23)"><text fill="#595959" font-family="Calibri,Calibri_MSFontService,sans-serif" font-weight="400" font-size="41" transform="matrix(6.12323e-17 -1 1 6.12323e-17 602.159 1700)">29</text></g><g clip-path="url(#clip24)"><text fill="#595959" font-family="Calibri,Calibri_MSFontService,sans-serif" font-weight="400" font-size="41" transform="matrix(6.12323e-17 -1 1 6.12323e-17 655.66 1700)">33</text></g><g clip-path="url(#clip25)"><text fill="#595959" font-family="Calibri,Calibri_MSFontService,sans-serif" font-weight="400" font-size="41" transform="matrix(6.12323e-17 -1 1 6.12323e-17 709.161 1700)">37</text></g><g clip-path="url(#clip26)"><text fill="#595959" font-family="Calibri,Calibri_MSFontService,sans-serif" font-weight="400" font-size="41" transform="matrix(6.12323e-17 -1 1 6.12323e-17 762.662 1700)">41</text></g><g clip-path="url(#clip27)"><text fill="#595959" font-family="Calibri,Calibri_MSFontService,sans-serif" font-weight="400" font-size="41" transform="matrix(6.12323e-17 -1 1 6.12323e-17 816.163 1700)">45</text></g><g clip-path="url(#clip28)"><text fill="#595959" font-family="Calibri,Calibri_MSFontService,sans-serif" font-weight="400" font-size="41" transform="matrix(6.12323e-17 -1 1 6.12323e-17 869.664 1700)">49</text></g><g clip-path="url(#clip29)"><text fill="#595959" font-family="Calibri,Calibri_MSFontService,sans-serif" font-weight="400" font-size="41" transform="matrix(6.12323e-17 -1 1 6.12323e-17 923.164 1700)">53</text></g><g clip-path="url(#clip30)"><text fill="#595959" font-family="Calibri,Calibri_MSFontService,sans-serif" font-weight="400" font-size="41" transform="matrix(6.12323e-17 -1 1 6.12323e-17 976.665 1700)">57</text></g><g clip-path="url(#clip31)"><text fill="#595959" font-family="Calibri,Calibri_MSFontService,sans-serif" font-weight="400" font-size="41" transform="matrix(6.12323e-17 -1 1 6.12323e-17 1030.17 1700)">61</text></g><g clip-path="url(#clip32)"><text fill="#595959" font-family="Calibri,Calibri_MSFontService,sans-serif" font-weight="400" font-size="41" transform="matrix(6.12323e-17 -1 1 6.12323e-17 1083.67 1700)">65</text></g><g clip-path="url(#clip33)"><text fill="#595959" font-family="Calibri,Calibri_MSFontService,sans-serif" font-weight="400" font-size="41" transform="matrix(6.12323e-17 -1 1 6.12323e-17 1137.17 1700)">69</text></g><g clip-path="url(#clip34)"><text fill="#595959" font-family="Calibri,Calibri_MSFontService,sans-serif" font-weight="400" font-size="41" transform="matrix(6.12323e-17 -1 1 6.12323e-17 1190.67 1700)">73</text></g><g clip-path="url(#clip35)"><text fill="#595959" font-family="Calibri,Calibri_MSFontService,sans-serif" font-weight="400" font-size="41" transform="matrix(6.12323e-17 -1 1 6.12323e-17 1244.17 1700)">77</text></g><g clip-path="url(#clip36)"><text fill="#595959" font-family="Calibri,Calibri_MSFontService,sans-serif" font-weight="400" font-size="41" transform="matrix(6.12323e-17 -1 1 6.12323e-17 1297.67 1700)">81</text></g><g clip-path="url(#clip37)"><text fill="#595959" font-family="Calibri,Calibri_MSFontService,sans-serif" font-weight="400" font-size="41" transform="matrix(6.12323e-17 -1 1 6.12323e-17 1351.17 1700)">85</text></g><g clip-path="url(#clip38)"><text fill="#595959" font-family="Calibri,Calibri_MSFontService,sans-serif" font-weight="400" font-size="41" transform="matrix(6.12323e-17 -1 1 6.12323e-17 1404.67 1700)">89</text></g><g clip-path="url(#clip39)"><text fill="#595959" font-family="Calibri,Calibri_MSFontService,sans-serif" font-weight="400" font-size="41" transform="matrix(6.12323e-17 -1 1 6.12323e-17 1458.17 1700)">93</text></g><g clip-path="url(#clip40)"><text fill="#595959" font-family="Calibri,Calibri_MSFontService,sans-serif" font-weight="400" font-size="41" transform="matrix(6.12323e-17 -1 1 6.12323e-17 1511.67 1700)">97</text></g><g clip-path="url(#clip41)"><text fill="#595959" font-family="Calibri,Calibri_MSFontService,sans-serif" font-weight="400" font-size="41" transform="matrix(6.12323e-17 -1 1 6.12323e-17 1565.17 1721)">101</text></g><g clip-path="url(#clip42)"><text fill="#595959" font-family="Calibri,Calibri_MSFontService,sans-serif" font-weight="400" font-size="41" transform="matrix(6.12323e-17 -1 1 6.12323e-17 1618.67 1721)">105</text></g><g clip-path="url(#clip43)"><text fill="#595959" font-family="Calibri,Calibri_MSFontService,sans-serif" font-weight="400" font-size="41" transform="matrix(6.12323e-17 -1 1 6.12323e-17 1672.18 1721)">109</text></g><g clip-path="url(#clip44)"><text fill="#595959" font-family="Calibri,Calibri_MSFontService,sans-serif" font-weight="400" font-size="41" transform="matrix(6.12323e-17 -1 1 6.12323e-17 1725.68 1721)">113</text></g><g clip-path="url(#clip45)"><text fill="#595959" font-family="Calibri,Calibri_MSFontService,sans-serif" font-weight="400" font-size="41" transform="matrix(6.12323e-17 -1 1 6.12323e-17 1779.18 1721)">117</text></g><g clip-path="url(#clip46)"><text fill="#595959" font-family="Calibri,Calibri_MSFontService,sans-serif" font-weight="400" font-size="41" transform="matrix(6.12323e-17 -1 1 6.12323e-17 1832.68 1721)">121</text></g><g clip-path="url(#clip47)"><text fill="#595959" font-family="Calibri,Calibri_MSFontService,sans-serif" font-weight="400" font-size="41" transform="matrix(6.12323e-17 -1 1 6.12323e-17 1886.18 1721)">125</text></g><g clip-path="url(#clip48)"><text fill="#595959" font-family="Calibri,Calibri_MSFontService,sans-serif" font-weight="400" font-size="41" transform="matrix(6.12323e-17 -1 1 6.12323e-17 1939.68 1721)">129</text></g><g clip-path="url(#clip49)"><text fill="#595959" font-family="Calibri,Calibri_MSFontService,sans-serif" font-weight="400" font-size="41" transform="matrix(6.12323e-17 -1 1 6.12323e-17 1993.18 1721)">133</text></g><g clip-path="url(#clip50)"><text fill="#595959" font-family="Calibri,Calibri_MSFontService,sans-serif" font-weight="400" font-size="41" transform="matrix(6.12323e-17 -1 1 6.12323e-17 2046.68 1721)">137</text></g><g clip-path="url(#clip51)"><text fill="#595959" font-family="Calibri,Calibri_MSFontService,sans-serif" font-weight="400" font-size="41" transform="matrix(6.12323e-17 -1 1 6.12323e-17 2100.18 1721)">141</text></g><g clip-path="url(#clip52)"><text fill="#595959" font-family="Calibri,Calibri_MSFontService,sans-serif" font-weight="400" font-size="41" transform="matrix(6.12323e-17 -1 1 6.12323e-17 2153.68 1721)">145</text></g><g clip-path="url(#clip53)"><text fill="#595959" font-family="Calibri,Calibri_MSFontService,sans-serif" font-weight="400" font-size="41" transform="matrix(6.12323e-17 -1 1 6.12323e-17 2207.18 1721)">149</text></g><g clip-path="url(#clip54)"><text fill="#595959" font-family="Calibri,Calibri_MSFontService,sans-serif" font-weight="400" font-size="41" transform="matrix(6.12323e-17 -1 1 6.12323e-17 2260.68 1721)">153</text></g><g clip-path="url(#clip55)"><text fill="#595959" font-family="Calibri,Calibri_MSFontService,sans-serif" font-weight="400" font-size="41" transform="matrix(6.12323e-17 -1 1 6.12323e-17 2314.19 1721)">157</text></g><g clip-path="url(#clip56)"><text fill="#595959" font-family="Calibri,Calibri_MSFontService,sans-serif" font-weight="400" font-size="41" transform="matrix(6.12323e-17 -1 1 6.12323e-17 2367.69 1721)">161</text></g><g clip-path="url(#clip57)"><text fill="#595959" font-family="Calibri,Calibri_MSFontService,sans-serif" font-weight="400" font-size="41" transform="matrix(6.12323e-17 -1 1 6.12323e-17 2421.19 1721)">165</text></g><g clip-path="url(#clip58)"><text fill="#595959" font-family="Calibri,Calibri_MSFontService,sans-serif" font-weight="400" font-size="41" transform="matrix(6.12323e-17 -1 1 6.12323e-17 2474.69 1721)">169</text></g><g clip-path="url(#clip59)"><text fill="#595959" font-family="Calibri,Calibri_MSFontService,sans-serif" font-weight="400" font-size="41" transform="matrix(6.12323e-17 -1 1 6.12323e-17 2528.19 1721)">173</text></g><g clip-path="url(#clip60)"><text fill="#595959" font-family="Calibri,Calibri_MSFontService,sans-serif" font-weight="400" font-size="41" transform="matrix(6.12323e-17 -1 1 6.12323e-17 2581.69 1721)">177</text></g><g clip-path="url(#clip61)"><text fill="#595959" font-family="Calibri,Calibri_MSFontService,sans-serif" font-weight="400" font-size="41" transform="matrix(6.12323e-17 -1 1 6.12323e-17 2635.19 1721)">181</text></g><g clip-path="url(#clip62)"><text fill="#595959" font-family="Calibri,Calibri_MSFontService,sans-serif" font-weight="400" font-size="41" transform="matrix(6.12323e-17 -1 1 6.12323e-17 2688.69 1721)">185</text></g><g clip-path="url(#clip63)"><text fill="#595959" font-family="Calibri,Calibri_MSFontService,sans-serif" font-weight="400" font-size="41" transform="matrix(6.12323e-17 -1 1 6.12323e-17 2742.19 1721)">189</text></g><g clip-path="url(#clip64)"><text fill="#595959" font-family="Calibri,Calibri_MSFontService,sans-serif" font-weight="400" font-size="41" transform="matrix(6.12323e-17 -1 1 6.12323e-17 2795.69 1721)">193</text></g><g clip-path="url(#clip65)"><text fill="#595959" font-family="Calibri,Calibri_MSFontService,sans-serif" font-weight="400" font-size="41" transform="matrix(6.12323e-17 -1 1 6.12323e-17 2849.19 1721)">197</text></g><g clip-path="url(#clip66)"><text fill="#595959" font-family="Calibri,Calibri_MSFontService,sans-serif" font-weight="400" font-size="41" transform="matrix(6.12323e-17 -1 1 6.12323e-17 2902.69 1721)">201</text></g><g clip-path="url(#clip67)"><text fill="#595959" font-family="Calibri,Calibri_MSFontService,sans-serif" font-weight="400" font-size="41" transform="matrix(6.12323e-17 -1 1 6.12323e-17 2956.2 1721)">205</text></g><g clip-path="url(#clip68)"><text fill="#595959" font-family="Calibri,Calibri_MSFontService,sans-serif" font-weight="400" font-size="41" transform="matrix(6.12323e-17 -1 1 6.12323e-17 3009.7 1721)">209</text></g><g clip-path="url(#clip69)"><text fill="#595959" font-family="Calibri,Calibri_MSFontService,sans-serif" font-weight="400" font-size="41" transform="matrix(6.12323e-17 -1 1 6.12323e-17 3063.2 1721)">213</text></g><g clip-path="url(#clip70)"><text fill="#595959" font-family="Calibri,Calibri_MSFontService,sans-serif" font-weight="400" font-size="41" transform="matrix(6.12323e-17 -1 1 6.12323e-17 3116.7 1721)">217</text></g><g clip-path="url(#clip71)"><text fill="#595959" font-family="Calibri,Calibri_MSFontService,sans-serif" font-weight="400" font-size="41" transform="matrix(6.12323e-17 -1 1 6.12323e-17 3170.2 1721)">221</text></g><g clip-path="url(#clip72)"><text fill="#595959" font-family="Calibri,Calibri_MSFontService,sans-serif" font-weight="400" font-size="41" transform="matrix(6.12323e-17 -1 1 6.12323e-17 3223.7 1721)">225</text></g><g clip-path="url(#clip73)"><text fill="#595959" font-family="Calibri,Calibri_MSFontService,sans-serif" font-weight="400" font-size="41" transform="matrix(6.12323e-17 -1 1 6.12323e-17 3277.2 1721)">229</text></g><g clip-path="url(#clip74)"><text fill="#595959" font-family="Calibri,Calibri_MSFontService,sans-serif" font-weight="400" font-size="41" transform="matrix(6.12323e-17 -1 1 6.12323e-17 3330.7 1721)">233</text></g><g clip-path="url(#clip75)"><text fill="#595959" font-family="Calibri,Calibri_MSFontService,sans-serif" font-weight="400" font-size="41" transform="matrix(6.12323e-17 -1 1 6.12323e-17 3384.2 1721)">237</text></g><g clip-path="url(#clip76)"><text fill="#595959" font-family="Calibri,Calibri_MSFontService,sans-serif" font-weight="400" font-size="41" transform="matrix(6.12323e-17 -1 1 6.12323e-17 3437.7 1721)">241</text></g><g clip-path="url(#clip77)"><text fill="#595959" font-family="Calibri,Calibri_MSFontService,sans-serif" font-weight="400" font-size="41" transform="matrix(6.12323e-17 -1 1 6.12323e-17 3491.2 1721)">245</text></g><g clip-path="url(#clip78)"><text fill="#595959" font-family="Calibri,Calibri_MSFontService,sans-serif" font-weight="400" font-size="41" transform="matrix(6.12323e-17 -1 1 6.12323e-17 3544.7 1721)">249</text></g><g clip-path="url(#clip79)"><text fill="#595959" font-family="Calibri,Calibri_MSFontService,sans-serif" font-weight="400" font-size="41" transform="matrix(6.12323e-17 -1 1 6.12323e-17 3598.2 1721)">253</text></g><g clip-path="url(#clip80)"><text fill="#595959" font-family="Calibri,Calibri_MSFontService,sans-serif" font-weight="400" font-size="41" transform="matrix(6.12323e-17 -1 1 6.12323e-17 3651.71 1721)">257</text></g><g clip-path="url(#clip81)"><text fill="#595959" font-family="Calibri,Calibri_MSFontService,sans-serif" font-weight="400" font-size="41" transform="matrix(6.12323e-17 -1 1 6.12323e-17 3705.21 1721)">261</text></g><g clip-path="url(#clip82)"><text fill="#595959" font-family="Calibri,Calibri_MSFontService,sans-serif" font-weight="400" font-size="41" transform="matrix(6.12323e-17 -1 1 6.12323e-17 3758.71 1721)">265</text></g><g clip-path="url(#clip83)"><text fill="#595959" font-family="Calibri,Calibri_MSFontService,sans-serif" font-weight="400" font-size="41" transform="matrix(6.12323e-17 -1 1 6.12323e-17 3812.21 1721)">269</text></g><g clip-path="url(#clip84)"><text fill="#595959" font-family="Calibri,Calibri_MSFontService,sans-serif" font-weight="400" font-size="41" transform="matrix(6.12323e-17 -1 1 6.12323e-17 3865.71 1721)">273</text></g><g clip-path="url(#clip85)"><text fill="#595959" font-family="Calibri,Calibri_MSFontService,sans-serif" font-weight="400" font-size="41" transform="matrix(6.12323e-17 -1 1 6.12323e-17 3919.21 1721)">277</text></g><g clip-path="url(#clip86)"><text fill="#595959" font-family="Calibri,Calibri_MSFontService,sans-serif" font-weight="400" font-size="41" transform="matrix(6.12323e-17 -1 1 6.12323e-17 3972.71 1721)">281</text></g><g clip-path="url(#clip87)"><text fill="#595959" font-family="Calibri,Calibri_MSFontService,sans-serif" font-weight="400" font-size="41" transform="matrix(6.12323e-17 -1 1 6.12323e-17 4026.21 1721)">285</text></g><g clip-path="url(#clip88)"><text fill="#595959" font-family="Calibri,Calibri_MSFontService,sans-serif" font-weight="400" font-size="41" transform="matrix(6.12323e-17 -1 1 6.12323e-17 4079.71 1721)">289</text></g><g clip-path="url(#clip89)"><text fill="#595959" font-family="Calibri,Calibri_MSFontService,sans-serif" font-weight="400" font-size="41" transform="matrix(6.12323e-17 -1 1 6.12323e-17 4133.21 1721)">293</text></g><g clip-path="url(#clip90)"><text fill="#595959" font-family="Calibri,Calibri_MSFontService,sans-serif" font-weight="400" font-size="41" transform="matrix(6.12323e-17 -1 1 6.12323e-17 4186.71 1721)">297</text></g><g clip-path="url(#clip91)"><text fill="#595959" font-family="Calibri,Calibri_MSFontService,sans-serif" font-weight="400" font-size="41" transform="matrix(6.12323e-17 -1 1 6.12323e-17 4240.21 1721)">301</text></g><g clip-path="url(#clip92)"><text fill="#595959" font-family="Calibri,Calibri_MSFontService,sans-serif" font-weight="400" font-size="41" transform="matrix(6.12323e-17 -1 1 6.12323e-17 4293.72 1721)">305</text></g><g clip-path="url(#clip93)"><text fill="#595959" font-family="Calibri,Calibri_MSFontService,sans-serif" font-weight="400" font-size="41" transform="matrix(6.12323e-17 -1 1 6.12323e-17 4347.22 1721)">309</text></g><g clip-path="url(#clip94)"><text fill="#595959" font-family="Calibri,Calibri_MSFontService,sans-serif" font-weight="400" font-size="41" transform="matrix(6.12323e-17 -1 1 6.12323e-17 4400.72 1721)">313</text></g><g clip-path="url(#clip95)"><text fill="#595959" font-family="Calibri,Calibri_MSFontService,sans-serif" font-weight="400" font-size="41" transform="matrix(6.12323e-17 -1 1 6.12323e-17 4454.22 1721)">317</text></g><g clip-path="url(#clip96)"><text fill="#595959" font-family="Calibri,Calibri_MSFontService,sans-serif" font-weight="400" font-size="41" transform="matrix(6.12323e-17 -1 1 6.12323e-17 4507.72 1721)">321</text></g><g clip-path="url(#clip97)"><text fill="#595959" font-family="Calibri,Calibri_MSFontService,sans-serif" font-weight="400" font-size="41" transform="matrix(6.12323e-17 -1 1 6.12323e-17 4561.22 1721)">325</text></g><g clip-path="url(#clip98)"><text fill="#595959" font-family="Calibri,Calibri_MSFontService,sans-serif" font-weight="400" font-size="41" transform="matrix(6.12323e-17 -1 1 6.12323e-17 4614.72 1721)">329</text></g><g clip-path="url(#clip99)"><text fill="#595959" font-family="Calibri,Calibri_MSFontService,sans-serif" font-weight="400" font-size="41" transform="matrix(6.12323e-17 -1 1 6.12323e-17 4668.22 1721)">333</text></g><g clip-path="url(#clip100)"><text fill="#595959" font-family="Calibri,Calibri_MSFontService,sans-serif" font-weight="400" font-size="64" transform="matrix(1 0 0 1 1603.3 588)">Comparison of Momentum Calculated by GRU with Standards</text></g><g clip-path="url(#clip101)"><path d="M2118 1829 2206 1829" stroke="#4472C4" stroke-width="10.3125" stroke-linecap="round" stroke-linejoin="round" stroke-miterlimit="10" fill="none" fill-rule="evenodd"/></g><g clip-path="url(#clip102)"><text fill="#595959" font-family="Calibri,Calibri_MSFontService,sans-serif" font-weight="400" font-size="41" transform="matrix(1 0 0 1 2215.46 1840)">standard</text></g><g clip-path="url(#clip103)"><path d="M2415 1829 2503 1829" stroke="#ED7D31" stroke-width="10.3125" stroke-linecap="round" stroke-linejoin="round" stroke-miterlimit="10" fill="none" fill-rule="evenodd"/></g><g clip-path="url(#clip104)"><text fill="#595959" font-family="Calibri,Calibri_MSFontService,sans-serif" font-weight="400" font-size="41" transform="matrix(1 0 0 1 2512.16 1840)">momentum</text></g><rect x="74.5001" y="492.5" width="4664" height="1403" stroke="#D9D9D9" stroke-width="3.4375" stroke-linejoin="round" stroke-miterlimit="10" fill="none"/></g></svg>